<?xml version="1.0" encoding="utf-8"?>
<!-- Generator: Adobe Illustrator 16.0.0, SVG Export Plug-In . SVG Version: 6.00 Build 0)  -->
<!DOCTYPE svg PUBLIC "-//W3C//DTD SVG 1.1//EN" "http://www.w3.org/Graphics/SVG/1.1/DTD/svg11.dtd">
<svg version="1.1" id="Layer_1" xmlns="http://www.w3.org/2000/svg" xmlns:xlink="http://www.w3.org/1999/xlink" x="0px" y="0px"
	viewBox="0 0 197.278 104.957" enable-background="new 0 0 197.278 104.957"
	xml:space="preserve">
	<path fill="#7F70A2" d="M71.79,80.414l-6.521-17.201c3.458-2.741,5.682-6.971,5.682-11.726c0-4.707-2.177-8.9-5.574-11.644
	l6.685-17.156c6.236-0.022,11.304-5.101,11.304-11.343C83.366,5.089,78.277,0,72.022,0c-6.255,0-11.344,5.089-11.344,11.345
	c0,3.403,1.513,6.452,3.893,8.533l-6.546,16.8c-0.669-0.092-1.347-0.155-2.041-0.155c-4.121,0-7.851,1.666-10.558,4.359
	l-23.098-14.47c0.227-0.893,0.36-1.822,0.36-2.785c0-6.256-5.089-11.346-11.345-11.346S0,17.371,0,23.627
	c0,6.255,5.089,11.345,11.345,11.345c2.375,0,4.58-0.737,6.404-1.989L41.48,47.85c-0.292,1.166-0.464,2.38-0.464,3.637
	c0,2.069,0.42,4.042,1.18,5.835l-6.345,5.201c-1.743-1.092-3.795-1.733-5.999-1.733c-6.255,0-11.344,5.089-11.344,11.345
	c0,6.254,5.089,11.343,11.344,11.343s11.344-5.089,11.344-11.343c0-1.131-0.171-2.223-0.481-3.254l6.469-5.305
	c2.472,1.803,5.506,2.879,8.799,2.879c0.647,0,1.281-0.055,1.907-0.135l6.407,16.901c-2.381,2.081-3.895,5.13-3.895,8.533
	c0,6.257,5.089,11.347,11.345,11.347c6.255,0,11.344-5.09,11.344-11.347C83.093,85.514,78.026,80.437,71.79,80.414z M11.345,31.972
	C6.744,31.972,3,28.228,3,23.627c0-4.602,3.744-8.346,8.345-8.346s8.345,3.744,8.345,8.346
	C19.689,28.228,15.946,31.972,11.345,31.972z M29.853,80.478c-4.601,0-8.344-3.743-8.344-8.343c0-4.602,3.743-8.345,8.344-8.345
	s8.344,3.743,8.344,8.345C38.197,76.734,34.454,80.478,29.853,80.478z M63.678,11.345C63.678,6.744,67.421,3,72.022,3
	c4.601,0,8.344,3.744,8.344,8.345s-3.743,8.345-8.344,8.345C67.421,19.689,63.678,15.946,63.678,11.345z M71.749,100.102
	c-4.602,0-8.345-3.744-8.345-8.347c0-4.601,3.744-8.343,8.345-8.343c4.601,0,8.344,3.742,8.344,8.343
	C80.093,96.357,76.35,100.102,71.749,100.102z"/>
	<g>
		<path fill="#FFFFFF" d="M65.78,57.598c-0.594,2.512-1.726,4.441-3.396,5.789c-1.72,1.336-3.754,2.004-6.104,2.004
		c-2.128-0.049-3.903-0.568-5.325-1.559c-1.447-0.951-2.499-2.053-3.154-3.303c-0.198-0.408-0.377-0.797-0.538-1.168
		c-0.148-0.384-0.272-0.866-0.371-1.447c-0.186-1.089-0.278-3.18-0.278-6.272c0-3.142,0.093-5.245,0.278-6.309
		c0.198-1.063,0.501-1.923,0.909-2.579c0.655-1.249,1.707-2.362,3.154-3.34c1.422-0.989,3.197-1.497,5.325-1.521
		c2.61,0.025,4.737,0.798,6.383,2.319c1.645,1.534,2.684,3.433,3.117,5.696h-4.342c-0.334-1.088-0.94-2.016-1.818-2.783
		c-0.916-0.729-2.029-1.107-3.34-1.132c-0.965,0.025-1.794,0.217-2.486,0.575c-0.705,0.371-1.274,0.835-1.707,1.392
		c-0.532,0.582-0.885,1.33-1.058,2.245c-0.198,0.965-0.297,2.777-0.297,5.437c0,2.66,0.099,4.459,0.297,5.399
		c0.173,0.941,0.525,1.701,1.058,2.283c0.433,0.557,1.002,1.008,1.707,1.354c0.692,0.408,1.521,0.613,2.486,0.613
		c2.301,0,4.02-1.23,5.158-3.693H65.78z"/>
	</g>
	<g>
		<path fill="#7F71A2" d="M75.95,57.004c0,1.547,0.445,2.723,1.336,3.525c0.829,0.816,1.917,1.225,3.266,1.225
		c1.571,0,2.975-0.624,4.212-1.873l2.802,2.393c-1.967,2.104-4.28,3.143-6.939,3.117c-1.015,0-2.004-0.148-2.969-0.445
		c-0.482-0.16-0.953-0.377-1.41-0.648c-0.482-0.235-0.934-0.525-1.354-0.873c-0.816-0.717-1.479-1.719-1.985-3.006
		c-0.557-1.236-0.835-2.844-0.835-4.824c0-1.904,0.241-3.488,0.724-4.75c0.482-1.286,1.101-2.301,1.855-3.043
		c0.767-0.754,1.626-1.299,2.579-1.633c0.94-0.334,1.868-0.501,2.783-0.501c2.202,0.025,4.063,0.749,5.585,2.171
		c1.546,1.447,2.332,3.439,2.356,5.974v3.191H75.95z M84.077,53.812c-0.05-1.496-0.452-2.628-1.206-3.395
		c-0.742-0.729-1.695-1.095-2.857-1.095c-1.163,0-2.115,0.365-2.857,1.095c-0.73,0.767-1.132,1.899-1.206,3.395H84.077z"/>
		<path fill="#7F71A2" d="M92.07,40.963h3.669v20.736h11.787v3.469H92.07V40.963z"/>
		<path fill="#7F71A2" d="M110.979,40.963h15.456v3.47h-11.787v6.906h10.061v3.254h-10.061v7.105h11.787v3.469h-15.456V40.963z"/>
		<path fill="#7F71A2" d="M129.889,40.963h3.453l10.957,17.199h0.066V40.963h3.669v24.205h-3.47l-10.94-17.199h-0.066v17.199h-3.669
		V40.963z"/>
	</g>
	<g>
		<path fill="#6D6E70" d="M98.777,80.947v0.615c0,0.309-0.059,0.6-0.175,0.875c-0.117,0.275-0.278,0.521-0.483,0.734
		c-0.205,0.215-0.446,0.386-0.721,0.512c-0.275,0.126-0.572,0.189-0.889,0.189c-0.271,0-0.546-0.038-0.826-0.112
		c-0.28-0.075-0.532-0.206-0.756-0.392c-0.224-0.188-0.408-0.428-0.553-0.722c-0.145-0.294-0.217-0.669-0.217-1.127v-5.487
		c0-0.327,0.056-0.631,0.168-0.91c0.112-0.28,0.271-0.523,0.476-0.729c0.205-0.205,0.45-0.366,0.735-0.482
		c0.285-0.117,0.6-0.176,0.945-0.176c0.672,0,1.218,0.22,1.638,0.658c0.206,0.215,0.366,0.469,0.483,0.764
		c0.116,0.293,0.175,0.613,0.175,0.959v0.56h-1.428v-0.476c0-0.281-0.079-0.523-0.238-0.729s-0.374-0.309-0.644-0.309
		c-0.355,0-0.59,0.11-0.707,0.33c-0.117,0.219-0.175,0.496-0.175,0.832v5.096c0,0.29,0.063,0.533,0.189,0.729
		c0.126,0.196,0.352,0.294,0.679,0.294c0.093,0,0.194-0.017,0.301-0.049c0.107-0.032,0.208-0.086,0.301-0.161
		c0.084-0.074,0.154-0.177,0.21-0.308c0.056-0.131,0.084-0.294,0.084-0.49v-0.489H98.777z"/>
		<path fill="#6D6E70" d="M99.729,79.07c0-0.289,0.019-0.555,0.056-0.798c0.037-0.243,0.107-0.457,0.21-0.644
		c0.168-0.309,0.408-0.556,0.721-0.742c0.312-0.187,0.693-0.28,1.141-0.28c0.448,0,0.828,0.094,1.141,0.28
		c0.312,0.187,0.554,0.434,0.722,0.742c0.102,0.187,0.172,0.4,0.209,0.644s0.057,0.509,0.057,0.798v2.338
		c0,0.289-0.02,0.556-0.057,0.799c-0.037,0.242-0.107,0.457-0.209,0.644c-0.168,0.308-0.409,0.556-0.722,0.742
		c-0.313,0.187-0.693,0.28-1.141,0.28c-0.448,0-0.828-0.094-1.141-0.28c-0.313-0.187-0.553-0.435-0.721-0.742
		c-0.103-0.187-0.173-0.401-0.21-0.644c-0.038-0.243-0.056-0.51-0.056-0.799V79.07z M101.157,81.633
		c0,0.271,0.063,0.474,0.189,0.609c0.126,0.135,0.296,0.202,0.511,0.202s0.385-0.067,0.511-0.202
		c0.126-0.136,0.189-0.339,0.189-0.609v-2.786c0-0.271-0.063-0.474-0.189-0.608c-0.126-0.136-0.296-0.203-0.511-0.203
		s-0.385,0.067-0.511,0.203c-0.126,0.135-0.189,0.338-0.189,0.608V81.633z"/>
		<path fill="#6D6E70" d="M105.035,83.789V76.69h1.429v0.687h0.027c0.149-0.225,0.329-0.408,0.539-0.553s0.479-0.218,0.805-0.218
		c0.178,0,0.355,0.03,0.532,0.091s0.336,0.161,0.476,0.301c0.141,0.141,0.252,0.32,0.336,0.539c0.084,0.22,0.127,0.488,0.127,0.806
		v5.446h-1.428v-4.914c0-0.262-0.062-0.467-0.183-0.616c-0.122-0.149-0.294-0.224-0.519-0.224c-0.271,0-0.457,0.084-0.56,0.252
		s-0.153,0.41-0.153,0.728v4.774H105.035z"/>
		<path fill="#6D6E70" d="M113.071,78.679c-0.01-0.243-0.086-0.425-0.231-0.546c-0.145-0.121-0.31-0.182-0.497-0.182
		c-0.224,0-0.396,0.072-0.518,0.217s-0.182,0.311-0.182,0.496c0,0.131,0.032,0.26,0.098,0.386c0.064,0.126,0.232,0.24,0.504,0.343
		l0.84,0.336c0.532,0.205,0.898,0.485,1.1,0.84c0.2,0.355,0.301,0.742,0.301,1.162c0,0.299-0.055,0.576-0.161,0.833
		c-0.107,0.257-0.255,0.483-0.44,0.679c-0.188,0.196-0.412,0.351-0.673,0.463c-0.261,0.111-0.546,0.168-0.854,0.168
		c-0.578,0-1.063-0.183-1.455-0.547c-0.196-0.177-0.355-0.398-0.477-0.664c-0.121-0.267-0.187-0.576-0.195-0.932h1.344
		c0.027,0.196,0.096,0.378,0.203,0.546s0.296,0.253,0.566,0.253c0.205,0,0.39-0.068,0.553-0.203
		c0.164-0.136,0.246-0.324,0.246-0.567c0-0.196-0.052-0.364-0.154-0.505c-0.104-0.139-0.289-0.261-0.561-0.363l-0.686-0.252
		c-0.448-0.168-0.801-0.418-1.057-0.749c-0.258-0.331-0.386-0.735-0.386-1.211c0-0.299,0.056-0.576,0.169-0.833
		c0.111-0.257,0.266-0.479,0.461-0.665c0.188-0.187,0.406-0.329,0.658-0.427s0.523-0.147,0.812-0.147s0.557,0.052,0.805,0.154
		c0.247,0.103,0.459,0.247,0.637,0.434s0.317,0.409,0.42,0.665c0.104,0.257,0.154,0.529,0.154,0.819H113.071z"/>
		<path fill="#6D6E70" d="M119.538,80.779h-2.827v0.965c0,0.225,0.063,0.397,0.188,0.519c0.127,0.121,0.297,0.182,0.512,0.182
		c0.27,0,0.449-0.079,0.539-0.237c0.088-0.159,0.142-0.318,0.16-0.477h1.428c0,0.625-0.191,1.129-0.573,1.512
		c-0.187,0.196-0.411,0.351-0.672,0.463c-0.262,0.111-0.556,0.168-0.882,0.168c-0.448,0-0.828-0.094-1.141-0.28
		c-0.313-0.187-0.554-0.435-0.722-0.742c-0.103-0.187-0.173-0.401-0.21-0.644c-0.037-0.243-0.057-0.51-0.057-0.799V79.07
		c0-0.289,0.02-0.555,0.057-0.798s0.107-0.457,0.21-0.644c0.168-0.309,0.408-0.556,0.722-0.742c0.312-0.187,0.692-0.28,1.141-0.28
		c0.326,0,0.623,0.056,0.889,0.168s0.492,0.267,0.68,0.462c0.373,0.42,0.559,0.947,0.559,1.582V80.779z M116.711,79.658h1.399
		v-0.812c0-0.271-0.062-0.474-0.188-0.608c-0.126-0.136-0.296-0.203-0.511-0.203s-0.385,0.067-0.512,0.203
		c-0.125,0.135-0.188,0.338-0.188,0.608V79.658z"/>
		<path fill="#6D6E70" d="M120.589,75.248V73.82h1.428v1.428H120.589z M120.589,83.789V76.69h1.428v7.099H120.589z"/>
		<path fill="#6D6E70" d="M123.108,73.82h1.429v7.967c0,0.271,0.049,0.455,0.147,0.553c0.098,0.098,0.281,0.16,0.553,0.189v1.344
		c-0.327,0-0.621-0.026-0.883-0.078c-0.261-0.051-0.484-0.15-0.672-0.301c-0.187-0.14-0.328-0.338-0.427-0.595
		c-0.098-0.257-0.147-0.595-0.147-1.015V73.82z"/>
		<path fill="#6D6E70" d="M132.53,80.779h-2.828v0.965c0,0.225,0.063,0.397,0.189,0.519s0.296,0.182,0.511,0.182
		c0.271,0,0.45-0.079,0.539-0.237c0.089-0.159,0.142-0.318,0.161-0.477h1.428c0,0.625-0.191,1.129-0.574,1.512
		c-0.187,0.196-0.41,0.351-0.672,0.463c-0.262,0.111-0.555,0.168-0.882,0.168c-0.448,0-0.828-0.094-1.141-0.28
		c-0.313-0.187-0.554-0.435-0.722-0.742c-0.103-0.187-0.172-0.401-0.209-0.644c-0.038-0.243-0.057-0.51-0.057-0.799V79.07
		c0-0.289,0.019-0.555,0.057-0.798c0.037-0.243,0.106-0.457,0.209-0.644c0.168-0.309,0.408-0.556,0.722-0.742
		c0.312-0.187,0.692-0.28,1.141-0.28c0.327,0,0.623,0.056,0.89,0.168c0.266,0.112,0.492,0.267,0.679,0.462
		c0.373,0.42,0.56,0.947,0.56,1.582V80.779z M129.702,79.658h1.4v-0.812c0-0.271-0.062-0.474-0.189-0.608
		c-0.125-0.136-0.296-0.203-0.511-0.203s-0.385,0.067-0.511,0.203c-0.126,0.135-0.189,0.338-0.189,0.608V79.658z"/>
		<path fill="#6D6E70" d="M133.58,83.789V76.69h1.429v0.687h0.027c0.149-0.225,0.329-0.408,0.539-0.553s0.479-0.218,0.805-0.218
		c0.178,0,0.355,0.03,0.532,0.091s0.336,0.161,0.476,0.301c0.141,0.141,0.252,0.32,0.336,0.539c0.084,0.22,0.127,0.488,0.127,0.806
		v5.446h-1.428v-4.914c0-0.262-0.062-0.467-0.183-0.616c-0.122-0.149-0.294-0.224-0.519-0.224c-0.271,0-0.457,0.084-0.56,0.252
		s-0.153,0.41-0.153,0.728v4.774H133.58z"/>
		<path fill="#6D6E70" d="M145.76,80.779h-2.827v0.965c0,0.225,0.062,0.397,0.188,0.519s0.296,0.182,0.511,0.182
		c0.271,0,0.45-0.079,0.539-0.237c0.089-0.159,0.143-0.318,0.161-0.477h1.428c0,0.625-0.191,1.129-0.573,1.512
		c-0.188,0.196-0.411,0.351-0.672,0.463c-0.262,0.111-0.557,0.168-0.883,0.168c-0.447,0-0.828-0.094-1.141-0.28
		s-0.553-0.435-0.721-0.742c-0.104-0.187-0.174-0.401-0.211-0.644c-0.037-0.243-0.056-0.51-0.056-0.799V79.07
		c0-0.289,0.019-0.555,0.056-0.798s0.107-0.457,0.211-0.644c0.168-0.309,0.408-0.556,0.721-0.742s0.693-0.28,1.141-0.28
		c0.326,0,0.623,0.056,0.889,0.168c0.267,0.112,0.492,0.267,0.68,0.462c0.373,0.42,0.56,0.947,0.56,1.582V80.779z M142.933,79.658
		h1.399v-0.812c0-0.271-0.063-0.474-0.188-0.608c-0.127-0.136-0.297-0.203-0.512-0.203s-0.385,0.067-0.511,0.203
		c-0.126,0.135-0.188,0.338-0.188,0.608V79.658z"/>
		<path fill="#6D6E70" d="M146.894,83.789V73.82h1.429v8.54h2.828v1.429H146.894z"/>
		<path fill="#6D6E70" d="M156.12,80.779h-2.828v0.965c0,0.225,0.062,0.397,0.189,0.519c0.125,0.121,0.295,0.182,0.51,0.182
		c0.271,0,0.451-0.079,0.539-0.237c0.09-0.159,0.143-0.318,0.162-0.477h1.428c0,0.625-0.191,1.129-0.574,1.512
		c-0.188,0.196-0.41,0.351-0.672,0.463c-0.262,0.111-0.556,0.168-0.883,0.168c-0.447,0-0.828-0.094-1.141-0.28
		s-0.553-0.435-0.721-0.742c-0.104-0.187-0.173-0.401-0.21-0.644c-0.038-0.243-0.056-0.51-0.056-0.799V79.07
		c0-0.289,0.018-0.555,0.056-0.798c0.037-0.243,0.106-0.457,0.21-0.644c0.168-0.309,0.408-0.556,0.721-0.742s0.693-0.28,1.141-0.28
		c0.327,0,0.623,0.056,0.89,0.168s0.492,0.267,0.679,0.462c0.373,0.42,0.561,0.947,0.561,1.582V80.779z M153.292,79.658h1.4v-0.812
		c0-0.271-0.063-0.474-0.189-0.608c-0.126-0.136-0.297-0.203-0.512-0.203s-0.385,0.067-0.51,0.203
		c-0.127,0.135-0.189,0.338-0.189,0.608V79.658z"/>
		<path fill="#6D6E70" d="M159.872,83.789v-0.729h-0.027c-0.188,0.262-0.377,0.462-0.568,0.602c-0.191,0.141-0.459,0.211-0.805,0.211
		c-0.168,0-0.338-0.026-0.511-0.078c-0.173-0.051-0.339-0.146-0.497-0.286c-0.158-0.131-0.287-0.319-0.385-0.567
		c-0.098-0.247-0.146-0.566-0.146-0.959c0-0.4,0.032-0.754,0.098-1.057c0.064-0.303,0.187-0.558,0.363-0.764
		c0.168-0.195,0.396-0.343,0.687-0.44c0.289-0.099,0.657-0.147,1.106-0.147c0.046,0,0.098,0,0.153,0s0.107,0.006,0.154,0.014
		c0.046,0.01,0.103,0.015,0.168,0.015s0.136,0.005,0.21,0.015v-0.742c0-0.243-0.051-0.443-0.154-0.603
		c-0.103-0.159-0.289-0.237-0.56-0.237c-0.187,0-0.356,0.061-0.511,0.182s-0.255,0.299-0.301,0.531h-1.387
		c0.037-0.635,0.252-1.147,0.645-1.539c0.186-0.188,0.41-0.334,0.672-0.441c0.261-0.107,0.555-0.161,0.882-0.161
		c0.298,0,0.579,0.047,0.84,0.14c0.261,0.094,0.489,0.234,0.687,0.42c0.186,0.188,0.336,0.42,0.447,0.701
		c0.112,0.279,0.168,0.605,0.168,0.979v4.942H159.872z M159.872,80.736c-0.158-0.027-0.289-0.042-0.393-0.042
		c-0.308,0-0.571,0.073-0.791,0.218c-0.219,0.145-0.328,0.408-0.328,0.791c0,0.27,0.064,0.489,0.195,0.657
		c0.131,0.169,0.312,0.253,0.547,0.253c0.242,0,0.432-0.08,0.566-0.238c0.135-0.159,0.203-0.383,0.203-0.672V80.736z"/>
		<path fill="#6D6E70" d="M162.35,83.789V76.69h1.429v0.757c0.289-0.262,0.573-0.467,0.854-0.617
		c0.279-0.148,0.625-0.224,1.035-0.224v1.513c-0.139-0.057-0.284-0.084-0.434-0.084c-0.148,0-0.311,0.025-0.482,0.076
		c-0.173,0.052-0.329,0.139-0.469,0.26c-0.15,0.121-0.271,0.279-0.365,0.476c-0.093,0.196-0.139,0.438-0.139,0.728v4.215H162.35z"/>
		<path fill="#6D6E70" d="M166.241,83.789V76.69h1.429v0.687h0.028c0.148-0.225,0.328-0.408,0.539-0.553
		c0.209-0.145,0.478-0.218,0.805-0.218c0.178,0,0.354,0.03,0.531,0.091c0.178,0.061,0.336,0.161,0.477,0.301
		c0.141,0.141,0.252,0.32,0.336,0.539c0.084,0.22,0.126,0.488,0.126,0.806v5.446h-1.428v-4.914c0-0.262-0.062-0.467-0.183-0.616
		s-0.293-0.224-0.518-0.224c-0.271,0-0.457,0.084-0.561,0.252c-0.102,0.168-0.153,0.41-0.153,0.728v4.774H166.241z"/>
		<path fill="#6D6E70" d="M171.128,75.248V73.82h1.428v1.428H171.128z M171.128,83.789V76.69h1.428v7.099H171.128z"/>
		<path fill="#6D6E70" d="M173.731,83.789V76.69h1.428v0.687h0.028c0.149-0.225,0.329-0.408,0.539-0.553s0.478-0.218,0.806-0.218
		c0.177,0,0.354,0.03,0.531,0.091s0.336,0.161,0.477,0.301c0.14,0.141,0.252,0.32,0.336,0.539c0.084,0.22,0.125,0.488,0.125,0.806
		v5.446h-1.428v-4.914c0-0.262-0.061-0.467-0.182-0.616s-0.294-0.224-0.518-0.224c-0.271,0-0.458,0.084-0.561,0.252
		s-0.154,0.41-0.154,0.728v4.774H173.731z"/>
		<path fill="#6D6E70" d="M180.605,84.615c0.009,0.168,0.077,0.326,0.203,0.475c0.126,0.15,0.31,0.225,0.553,0.225
		c0.233,0,0.401-0.072,0.504-0.217s0.154-0.329,0.154-0.553v-1.4h-0.028c-0.158,0.233-0.348,0.413-0.566,0.539
		c-0.22,0.126-0.475,0.189-0.764,0.189c-0.598,0-1.013-0.225-1.246-0.672c-0.084-0.159-0.145-0.355-0.182-0.588
		c-0.037-0.234-0.057-0.547-0.057-0.938v-2.702c0-0.514,0.015-0.891,0.043-1.135c0.056-0.466,0.275-0.816,0.658-1.049
		c0.177-0.121,0.442-0.183,0.797-0.183c0.178,0,0.33,0.019,0.455,0.056c0.127,0.038,0.24,0.09,0.344,0.154
		c0.103,0.065,0.195,0.143,0.279,0.23c0.084,0.09,0.173,0.186,0.267,0.287V76.69h1.428v7.966c0,0.242-0.04,0.488-0.119,0.735
		s-0.208,0.469-0.385,0.665c-0.177,0.205-0.401,0.371-0.672,0.497s-0.593,0.188-0.966,0.188c-0.215,0-0.439-0.035-0.672-0.104
		c-0.234-0.07-0.448-0.188-0.645-0.356c-0.205-0.16-0.381-0.371-0.525-0.638s-0.24-0.608-0.287-1.028H180.605z M180.605,81.604
		c0,0.224,0.049,0.42,0.147,0.588c0.098,0.168,0.281,0.252,0.553,0.252c0.205,0,0.375-0.071,0.511-0.217
		c0.136-0.145,0.203-0.329,0.203-0.553v-2.759c0-0.261-0.065-0.473-0.196-0.637c-0.131-0.163-0.303-0.244-0.518-0.244
		c-0.243,0-0.42,0.088-0.532,0.266s-0.168,0.41-0.168,0.699V81.604z"/>
		<path fill="#6D6E70" d="M191.356,80.779h-2.827v0.965c0,0.225,0.063,0.397,0.188,0.519c0.127,0.121,0.297,0.182,0.512,0.182
		c0.27,0,0.449-0.079,0.539-0.237c0.088-0.159,0.142-0.318,0.16-0.477h1.428c0,0.625-0.191,1.129-0.573,1.512
		c-0.187,0.196-0.411,0.351-0.672,0.463c-0.262,0.111-0.556,0.168-0.882,0.168c-0.448,0-0.828-0.094-1.141-0.28
		c-0.313-0.187-0.554-0.435-0.722-0.742c-0.103-0.187-0.173-0.401-0.21-0.644c-0.037-0.243-0.057-0.51-0.057-0.799V79.07
		c0-0.289,0.02-0.555,0.057-0.798s0.107-0.457,0.21-0.644c0.168-0.309,0.408-0.556,0.722-0.742c0.312-0.187,0.692-0.28,1.141-0.28
		c0.326,0,0.623,0.056,0.889,0.168s0.492,0.267,0.68,0.462c0.373,0.42,0.559,0.947,0.559,1.582V80.779z M188.529,79.658h1.399
		v-0.812c0-0.271-0.062-0.474-0.188-0.608c-0.126-0.136-0.296-0.203-0.511-0.203s-0.385,0.067-0.512,0.203
		c-0.125,0.135-0.188,0.338-0.188,0.608V79.658z"/>
		<path fill="#6D6E70" d="M192.407,76.69v-2.155h1.428v2.155h0.883v1.12h-0.883v3.934c0,0.168,0.017,0.299,0.049,0.393
		c0.033,0.094,0.087,0.163,0.162,0.21c0.074,0.047,0.165,0.075,0.272,0.084c0.106,0.009,0.24,0.014,0.399,0.014v1.345h-0.588
		c-0.327,0-0.601-0.052-0.819-0.154c-0.22-0.104-0.395-0.233-0.525-0.393c-0.131-0.158-0.226-0.338-0.286-0.539
		c-0.062-0.2-0.092-0.394-0.092-0.58v-4.312h-0.714v-1.12H192.407z"/>
		<path fill="#6D6E70" d="M94.241,100.588v-9.967h4.256v1.344h-2.828v2.926h2.464v1.344h-2.464v2.926h2.828v1.428H94.241z"/>
		<path fill="#6D6E70" d="M102.179,100.588v-0.644c-0.094,0.103-0.182,0.198-0.266,0.287s-0.177,0.165-0.28,0.231
		c-0.103,0.064-0.219,0.116-0.35,0.153c-0.131,0.038-0.285,0.056-0.462,0.056c-0.597,0-1.013-0.224-1.246-0.672
		c-0.084-0.158-0.145-0.354-0.182-0.588c-0.038-0.232-0.056-0.546-0.056-0.938v-2.702c0-0.513,0.014-0.892,0.042-1.134
		c0.056-0.467,0.275-0.816,0.658-1.051c0.177-0.121,0.443-0.182,0.798-0.182c0.28,0,0.53,0.062,0.749,0.189
		c0.219,0.125,0.408,0.306,0.567,0.539h0.028v-3.514h1.427v9.967H102.179z M100.765,98.278c0,0.29,0.056,0.522,0.168,0.7
		c0.112,0.178,0.289,0.266,0.532,0.266c0.215,0,0.387-0.082,0.518-0.244c0.131-0.164,0.196-0.376,0.196-0.638v-2.758
		c0-0.224-0.068-0.408-0.203-0.554c-0.135-0.145-0.306-0.217-0.511-0.217c-0.271,0-0.455,0.084-0.553,0.252
		s-0.147,0.364-0.147,0.588V98.278z"/>
		<path fill="#6D6E70" d="M109.054,93.49v7.098h-1.428v-0.686h-0.029c-0.148,0.225-0.328,0.408-0.539,0.553
		c-0.209,0.145-0.478,0.217-0.805,0.217c-0.178,0-0.354-0.029-0.531-0.09c-0.178-0.061-0.336-0.162-0.477-0.302
		c-0.14-0.14-0.252-0.319-0.336-0.539s-0.126-0.487-0.126-0.805V93.49h1.429v4.914c0,0.262,0.061,0.467,0.182,0.616
		s0.294,0.224,0.518,0.224c0.271,0,0.457-0.084,0.561-0.252c0.102-0.168,0.154-0.41,0.154-0.729V93.49H109.054z"/>
		<path fill="#6D6E70" d="M111.741,98.545c0,0.224,0.062,0.396,0.189,0.518c0.125,0.121,0.295,0.182,0.51,0.182
		c0.271,0,0.451-0.079,0.539-0.238c0.09-0.158,0.143-0.316,0.162-0.476h1.428c0,0.626-0.191,1.13-0.574,1.513
		c-0.188,0.195-0.41,0.35-0.672,0.461c-0.262,0.112-0.556,0.168-0.883,0.168c-0.447,0-0.828-0.093-1.141-0.279
		c-0.312-0.188-0.553-0.434-0.721-0.742c-0.104-0.187-0.173-0.401-0.21-0.645c-0.038-0.242-0.056-0.508-0.056-0.797v-2.338
		c0-0.29,0.018-0.556,0.056-0.799c0.037-0.242,0.106-0.457,0.21-0.645c0.168-0.307,0.408-0.555,0.721-0.741s0.693-0.28,1.141-0.28
		c0.327,0,0.623,0.057,0.89,0.168c0.267,0.112,0.492,0.266,0.679,0.463c0.373,0.42,0.561,0.965,0.561,1.637h-1.428
		c0-0.289-0.063-0.501-0.189-0.637c-0.126-0.135-0.297-0.203-0.512-0.203s-0.385,0.068-0.51,0.203
		c-0.127,0.136-0.189,0.339-0.189,0.609V98.545z"/>
		<path fill="#6D6E70" d="M118.11,100.588V99.86h-0.027c-0.188,0.261-0.376,0.462-0.567,0.603c-0.191,0.14-0.46,0.209-0.805,0.209
		c-0.168,0-0.339-0.025-0.511-0.076c-0.174-0.051-0.339-0.147-0.498-0.287c-0.158-0.131-0.286-0.32-0.385-0.567
		c-0.098-0.247-0.146-0.567-0.146-0.959c0-0.401,0.033-0.753,0.098-1.057c0.065-0.304,0.188-0.558,0.364-0.763
		c0.168-0.196,0.396-0.344,0.687-0.441c0.289-0.098,0.657-0.146,1.105-0.146c0.047,0,0.098,0,0.154,0
		c0.056,0,0.107,0.004,0.154,0.014c0.046,0.01,0.102,0.014,0.168,0.014c0.064,0,0.135,0.005,0.209,0.014v-0.742
		c0-0.242-0.051-0.443-0.153-0.602s-0.29-0.238-0.56-0.238c-0.188,0-0.357,0.061-0.512,0.183c-0.154,0.121-0.254,0.299-0.301,0.532
		h-1.387c0.037-0.635,0.252-1.148,0.645-1.541c0.187-0.186,0.41-0.333,0.672-0.44s0.555-0.161,0.883-0.161
		c0.298,0,0.578,0.047,0.84,0.141c0.261,0.093,0.489,0.232,0.686,0.42c0.187,0.187,0.336,0.42,0.447,0.699
		c0.113,0.28,0.168,0.607,0.168,0.98v4.941H118.11z M118.11,97.537c-0.158-0.029-0.289-0.043-0.392-0.043
		c-0.308,0-0.571,0.072-0.791,0.217s-0.329,0.408-0.329,0.791c0,0.271,0.065,0.49,0.196,0.658c0.13,0.168,0.312,0.252,0.546,0.252
		c0.242,0,0.432-0.079,0.566-0.238c0.136-0.158,0.203-0.382,0.203-0.672V97.537z"/>
		<path fill="#6D6E70" d="M120.589,93.49v-2.156h1.428v2.156h0.883v1.12h-0.883v3.935c0,0.168,0.017,0.299,0.049,0.392
		c0.033,0.093,0.087,0.163,0.162,0.21c0.074,0.047,0.165,0.074,0.272,0.084c0.106,0.01,0.24,0.014,0.399,0.014v1.344h-0.588
		c-0.327,0-0.601-0.051-0.819-0.153c-0.22-0.103-0.395-0.233-0.525-0.392c-0.131-0.159-0.226-0.339-0.286-0.539
		c-0.062-0.201-0.092-0.395-0.092-0.582V94.61h-0.714v-1.12H120.589z"/>
		<path fill="#6D6E70" d="M123.444,92.049v-1.428h1.429v1.428H123.444z M123.444,100.588V93.49h1.429v7.098H123.444z"/>
		<path fill="#6D6E70" d="M125.923,95.871c0-0.29,0.019-0.556,0.057-0.799c0.037-0.242,0.106-0.457,0.209-0.645
		c0.168-0.307,0.408-0.555,0.722-0.741c0.312-0.187,0.692-0.28,1.141-0.28s0.828,0.094,1.142,0.28
		c0.312,0.187,0.553,0.435,0.721,0.741c0.103,0.188,0.172,0.402,0.21,0.645c0.037,0.243,0.056,0.509,0.056,0.799v2.338
		c0,0.289-0.019,0.555-0.056,0.797c-0.038,0.243-0.107,0.458-0.21,0.645c-0.168,0.309-0.408,0.555-0.721,0.742
		c-0.313,0.187-0.693,0.279-1.142,0.279s-0.828-0.093-1.141-0.279c-0.313-0.188-0.554-0.434-0.722-0.742
		c-0.103-0.187-0.172-0.401-0.209-0.645c-0.038-0.242-0.057-0.508-0.057-0.797V95.871z M127.351,98.433
		c0,0.271,0.063,0.474,0.189,0.608c0.126,0.136,0.296,0.203,0.511,0.203s0.386-0.067,0.511-0.203
		c0.127-0.135,0.189-0.338,0.189-0.608v-2.786c0-0.271-0.062-0.474-0.189-0.609c-0.125-0.135-0.296-0.203-0.511-0.203
		s-0.385,0.068-0.511,0.203c-0.126,0.136-0.189,0.339-0.189,0.609V98.433z"/>
		<path fill="#6D6E70" d="M131.229,100.588V93.49h1.429v0.686h0.027c0.149-0.224,0.329-0.408,0.539-0.553s0.479-0.217,0.805-0.217
		c0.178,0,0.355,0.031,0.532,0.092s0.336,0.16,0.476,0.301c0.141,0.14,0.252,0.319,0.336,0.539c0.084,0.219,0.127,0.487,0.127,0.805
		v5.445h-1.428v-4.914c0-0.261-0.062-0.466-0.183-0.615c-0.122-0.149-0.294-0.225-0.519-0.225c-0.271,0-0.457,0.084-0.56,0.252
		s-0.153,0.411-0.153,0.729v4.773H131.229z"/>
		<path fill="#6D6E70" d="M139.307,100.588v-9.967h1.372l2.156,6.006h0.027v-6.006h1.428v9.967h-1.344l-2.184-5.992h-0.028v5.992
		H139.307z"/>
		<path fill="#6D6E70" d="M149.765,93.49v7.098h-1.428v-0.686h-0.029c-0.148,0.225-0.328,0.408-0.539,0.553
		c-0.209,0.145-0.478,0.217-0.805,0.217c-0.178,0-0.354-0.029-0.531-0.09c-0.178-0.061-0.336-0.162-0.477-0.302
		c-0.14-0.14-0.252-0.319-0.336-0.539s-0.126-0.487-0.126-0.805V93.49h1.429v4.914c0,0.262,0.061,0.467,0.182,0.616
		s0.294,0.224,0.518,0.224c0.271,0,0.457-0.084,0.561-0.252c0.102-0.168,0.154-0.41,0.154-0.729V93.49H149.765z"/>
		<path fill="#6D6E70" d="M150.94,100.588V93.49h1.428v0.686h0.027c0.15-0.224,0.33-0.408,0.539-0.553
		c0.211-0.145,0.479-0.217,0.806-0.217c0.308,0,0.564,0.074,0.771,0.225c0.205,0.148,0.373,0.312,0.504,0.49
		c0.177-0.197,0.373-0.365,0.588-0.505c0.214-0.14,0.513-0.21,0.896-0.21c0.177,0,0.359,0.031,0.546,0.092s0.354,0.16,0.504,0.301
		c0.149,0.14,0.271,0.319,0.364,0.539c0.093,0.219,0.14,0.487,0.14,0.805v5.445h-1.428v-4.914c0-0.261-0.061-0.466-0.182-0.615
		s-0.295-0.225-0.519-0.225c-0.271,0-0.457,0.084-0.56,0.252c-0.104,0.168-0.154,0.411-0.154,0.729v4.773h-1.428v-4.914
		c0-0.261-0.061-0.466-0.182-0.615c-0.122-0.149-0.295-0.225-0.519-0.225c-0.271,0-0.458,0.084-0.56,0.252
		c-0.104,0.168-0.154,0.411-0.154,0.729v4.773H150.94z"/>
		<path fill="#6D6E70" d="M163.358,97.578h-2.828v0.967c0,0.224,0.062,0.396,0.189,0.518c0.125,0.121,0.295,0.182,0.51,0.182
		c0.271,0,0.451-0.079,0.539-0.238c0.09-0.158,0.143-0.316,0.162-0.476h1.428c0,0.626-0.191,1.13-0.574,1.513
		c-0.188,0.195-0.41,0.35-0.672,0.461c-0.262,0.112-0.556,0.168-0.883,0.168c-0.447,0-0.828-0.093-1.141-0.279
		c-0.312-0.188-0.553-0.434-0.721-0.742c-0.104-0.187-0.173-0.401-0.21-0.645c-0.038-0.242-0.056-0.508-0.056-0.797v-2.338
		c0-0.29,0.018-0.556,0.056-0.799c0.037-0.242,0.106-0.457,0.21-0.645c0.168-0.307,0.408-0.555,0.721-0.741s0.693-0.28,1.141-0.28
		c0.327,0,0.623,0.057,0.89,0.168c0.267,0.112,0.492,0.266,0.679,0.463c0.373,0.42,0.561,0.947,0.561,1.581V97.578z M160.32,92.553
		l1.26-1.975h1.513l-1.849,1.975H160.32z M160.53,96.459h1.4v-0.812c0-0.271-0.063-0.474-0.189-0.609
		c-0.126-0.135-0.297-0.203-0.512-0.203s-0.385,0.068-0.51,0.203c-0.127,0.136-0.189,0.339-0.189,0.609V96.459z"/>
		<path fill="#6D6E70" d="M164.407,100.588V93.49h1.429v0.756c0.289-0.261,0.573-0.467,0.854-0.615
		c0.279-0.15,0.625-0.225,1.035-0.225v1.512c-0.14-0.056-0.285-0.084-0.434-0.084c-0.149,0-0.311,0.026-0.483,0.078
		c-0.173,0.051-0.329,0.137-0.469,0.258c-0.149,0.122-0.271,0.28-0.364,0.477c-0.094,0.195-0.14,0.438-0.14,0.729v4.213H164.407z"/>
		<path fill="#6D6E70" d="M168.3,92.049v-1.428h1.428v1.428H168.3z M168.3,100.588V93.49h1.428v7.098H168.3z"/>
		<path fill="#6D6E70" d="M173.746,103.459v-3.515h-0.028c-0.158,0.233-0.348,0.413-0.566,0.539c-0.22,0.126-0.469,0.188-0.75,0.188
		c-0.345,0-0.613-0.061-0.805-0.182s-0.348-0.275-0.469-0.462c-0.094-0.149-0.154-0.345-0.182-0.588
		c-0.028-0.233-0.043-0.611-0.043-1.134v-2.702c0-0.392,0.02-0.704,0.057-0.938c0.037-0.232,0.098-0.429,0.182-0.588
		c0.233-0.447,0.648-0.672,1.246-0.672c0.178,0,0.332,0.02,0.463,0.057c0.13,0.037,0.246,0.088,0.35,0.153
		c0.103,0.065,0.195,0.143,0.279,0.231c0.084,0.088,0.173,0.184,0.267,0.287V93.49h1.428v9.969H173.746z M172.332,98.404
		c0,0.225,0.049,0.42,0.147,0.588c0.098,0.168,0.281,0.252,0.553,0.252c0.205,0,0.375-0.072,0.511-0.217s0.203-0.329,0.203-0.553
		v-2.758c0-0.262-0.065-0.475-0.196-0.637c-0.131-0.164-0.303-0.246-0.518-0.246c-0.243,0-0.42,0.09-0.532,0.267
		s-0.168,0.411-0.168,0.7V98.404z"/>
		<path fill="#6D6E70" d="M180.62,93.49v7.098h-1.428v-0.686h-0.029c-0.148,0.225-0.328,0.408-0.539,0.553
		c-0.209,0.145-0.478,0.217-0.805,0.217c-0.178,0-0.354-0.029-0.531-0.09c-0.178-0.061-0.336-0.162-0.477-0.302
		c-0.14-0.14-0.252-0.319-0.336-0.539s-0.126-0.487-0.126-0.805V93.49h1.429v4.914c0,0.262,0.061,0.467,0.182,0.616
		s0.294,0.224,0.518,0.224c0.271,0,0.457-0.084,0.561-0.252c0.102-0.168,0.154-0.41,0.154-0.729V93.49H180.62z"/>
		<path fill="#6D6E70" d="M185.925,97.578h-2.827v0.967c0,0.224,0.063,0.396,0.188,0.518c0.127,0.121,0.297,0.182,0.512,0.182
		c0.27,0,0.449-0.079,0.539-0.238c0.088-0.158,0.142-0.316,0.16-0.476h1.428c0,0.626-0.191,1.13-0.573,1.513
		c-0.187,0.195-0.411,0.35-0.672,0.461c-0.262,0.112-0.556,0.168-0.882,0.168c-0.448,0-0.828-0.093-1.141-0.279
		c-0.313-0.188-0.554-0.434-0.722-0.742c-0.103-0.187-0.173-0.401-0.21-0.645c-0.037-0.242-0.057-0.508-0.057-0.797v-2.338
		c0-0.29,0.02-0.556,0.057-0.799c0.037-0.242,0.107-0.457,0.21-0.645c0.168-0.307,0.408-0.555,0.722-0.741
		c0.312-0.187,0.692-0.28,1.141-0.28c0.326,0,0.623,0.057,0.889,0.168c0.266,0.112,0.492,0.266,0.68,0.463
		c0.373,0.42,0.559,0.947,0.559,1.581V97.578z M183.098,96.459h1.399v-0.812c0-0.271-0.062-0.474-0.188-0.609
		c-0.126-0.135-0.296-0.203-0.511-0.203s-0.385,0.068-0.512,0.203c-0.125,0.136-0.188,0.339-0.188,0.609V96.459z"/>
	</g>
</svg>
