<?xml version="1.0" encoding="UTF-8" standalone="no"?>
<!-- Created with Inkscape (http://www.inkscape.org/) -->

<svg
   xmlns:dc="http://purl.org/dc/elements/1.1/"
   xmlns:cc="http://creativecommons.org/ns#"
   xmlns:rdf="http://www.w3.org/1999/02/22-rdf-syntax-ns#"
   xmlns:svg="http://www.w3.org/2000/svg"
   xmlns="http://www.w3.org/2000/svg"
   xmlns:sodipodi="http://sodipodi.sourceforge.net/DTD/sodipodi-0.dtd"
   xmlns:inkscape="http://www.inkscape.org/namespaces/inkscape"
   version="1.1"
   id="svg2"
   xml:space="preserve"
   width="912.21332"
   height="413.50668"
   viewBox="0 0 912.21332 413.50668"
   sodipodi:docname="logo_tecfa_noir.svg"
   inkscape:version="0.92.3 (2405546, 2018-03-11)"><metadata
     id="metadata8"><rdf:RDF><cc:Work
         rdf:about=""><dc:format>image/svg+xml</dc:format><dc:type
           rdf:resource="http://purl.org/dc/dcmitype/StillImage" /><dc:title></dc:title></cc:Work></rdf:RDF></metadata><defs
     id="defs6" /><sodipodi:namedview
     pagecolor="#ffffff"
     bordercolor="#666666"
     borderopacity="1"
     objecttolerance="10"
     gridtolerance="10"
     guidetolerance="10"
     inkscape:pageopacity="0"
     inkscape:pageshadow="2"
     inkscape:window-width="640"
     inkscape:window-height="480"
     id="namedview4"
     showgrid="false"
     inkscape:zoom="0.3902596"
     inkscape:cx="456.10666"
     inkscape:cy="206.75334"
     inkscape:window-x="0"
     inkscape:window-y="0"
     inkscape:window-maximized="0"
     inkscape:current-layer="g10" /><g
     id="g10"
     inkscape:groupmode="layer"
     inkscape:label="ink_ext_XXXXXX"
     transform="matrix(1.3333333,0,0,-1.3333333,0,413.50667)"><g
       id="g12"
       transform="scale(0.1)"><path
         d="m 2422.32,348.59 c 0,-149.078 -120.82,-269.9611 -269.86,-269.9611 -149.06,0 -269.9,120.8831 -269.9,269.9611 0,149.031 120.84,269.871 269.9,269.871 149.04,0 269.86,-120.84 269.86,-269.871"
         style="fill:#7b7979;fill-opacity:1;fill-rule:nonzero;stroke:none"
         id="path14"
         inkscape:connector-curvature="0" /><path
         d="m 1164.55,937.211 c 0,-148.602 -120.41,-268.949 -268.964,-268.949 -148.574,0 -268.984,120.347 -268.984,268.949 0,148.589 120.41,268.999 268.984,268.999 148.554,0 268.964,-120.41 268.964,-268.999"
         style="fill:#4f4c4c;fill-opacity:1;fill-rule:nonzero;stroke:none"
         id="path16"
         inkscape:connector-curvature="0" /><path
         d="m 608.496,2392.75 c 0,-148.53 -120.41,-269 -269.004,-269 -148.554,0 -269.0037,120.47 -269.0037,269 0,148.62 120.4497,269.05 269.0037,269.05 148.594,0 269.004,-120.43 269.004,-269.05"
         style="fill:#a7a5a6;fill-opacity:1;fill-rule:nonzero;stroke:none"
         id="path18"
         inkscape:connector-curvature="0" /><path
         d="m 2429.3,2760.9 c 0,-148.36 -120.28,-268.67 -268.66,-268.67 -148.37,0 -268.65,120.31 -268.65,268.67 0,148.38 120.28,268.69 268.65,268.69 148.38,0 268.66,-120.31 268.66,-268.69"
         style="fill:#d3d2d2;fill-opacity:1;fill-rule:nonzero;stroke:none"
         id="path20"
         inkscape:connector-curvature="0" /><path
         d="m 2798.03,2948.52 h 278.43 v -420.45 h 172.02 v -218.38 h -172.02 v -767.15 c 0,-32.75 3.17,-58.24 9.56,-76.41 6.38,-18.22 16.4,-31.87 30.05,-40.95 13.66,-9.14 31.41,-14.59 53.23,-16.41 21.83,-1.82 48.2,-2.7 79.18,-2.7 v -262.09 h -114.65 c -63.75,0 -116.99,9.97 -159.73,30 -42.77,20.04 -76.91,45.47 -102.36,76.47 -25.53,30.94 -44.18,65.92 -55.96,105.12 -11.89,39.08 -17.75,76.81 -17.75,113.26 v 840.86 h -139.22 v 218.38 h 139.22 v 420.45"
         style="fill:#231f20;fill-opacity:1;fill-rule:nonzero;stroke:none"
         id="path22"
         inkscape:connector-curvature="0" /><path
         d="m 3636.13,1949.32 h 272.97 v 158.34 c 0,52.77 -12.26,92.34 -36.81,118.75 -24.61,26.36 -57.84,39.61 -99.67,39.61 -41.9,0 -75.06,-13.25 -99.65,-39.61 -24.57,-26.41 -36.84,-65.98 -36.84,-118.75 z m 0,-218.38 v -188.4 c 0,-43.65 12.27,-77.34 36.84,-101.02 24.59,-23.67 57.75,-35.45 99.65,-35.45 52.77,0 87.77,15.41 105.11,46.41 17.29,30.88 27.72,61.82 31.37,92.81 h 278.48 c 0,-58.3 -9.55,-112.91 -28.65,-163.83 -19.11,-50.97 -46.88,-94.62 -83.27,-131.01 -36.44,-38.2 -80.11,-68.26 -131.07,-90.12 -50.98,-21.79 -108.28,-32.75 -171.97,-32.75 -85.55,0 -159.26,18.16 -221.14,54.61 -61.87,36.38 -109.18,84.61 -141.97,144.67 -20.04,36.38 -33.69,78.28 -40.92,125.62 -7.3,47.29 -10.93,99.14 -10.93,155.57 v 455.93 c 0,56.39 3.63,108.25 10.93,155.59 7.23,47.32 20.88,89.18 40.92,125.61 32.79,60.05 80.1,108.24 141.97,144.68 61.88,36.39 135.59,54.59 221.14,54.59 63.69,0 121.46,-10.9 173.36,-32.75 51.87,-21.84 95.52,-52.32 131.03,-91.45 35.51,-39.16 62.81,-85.09 81.92,-137.87 19.1,-52.81 28.65,-109.22 28.65,-169.27 v -382.17 h -551.45"
         style="fill:#231f20;fill-opacity:1;fill-rule:nonzero;stroke:none"
         id="path24"
         inkscape:connector-curvature="0" /><path
         d="m 4605.23,1542.54 c 0,-43.65 12.31,-77.34 36.86,-101.02 24.59,-23.67 57.77,-35.45 99.67,-35.45 52.77,0 87.77,15.41 105.12,46.41 17.26,30.88 27.71,61.82 31.36,92.81 h 278.48 c 0,-58.3 -9.55,-112.91 -28.65,-163.83 -19.12,-50.97 -46.9,-94.62 -83.3,-131.01 -36.41,-38.2 -80.08,-68.26 -131.04,-90.12 -50.98,-21.79 -108.28,-32.75 -171.97,-32.75 -85.59,0 -159.3,18.16 -221.13,54.61 -61.92,36.38 -109.22,84.61 -141.98,144.67 -20.04,36.38 -33.69,78.28 -40.95,125.62 -7.27,47.29 -10.9,99.14 -10.9,155.57 v 455.93 c 0,56.39 3.63,108.25 10.9,155.59 7.26,47.32 20.91,89.18 40.95,125.61 32.76,60.05 80.06,108.24 141.98,144.68 61.83,36.39 135.54,54.59 221.13,54.59 63.69,0 121.46,-10.9 173.36,-32.75 51.87,-21.84 95.52,-52.32 131.03,-91.45 35.49,-39.16 62.8,-86.01 81.92,-140.58 19.1,-54.61 28.65,-113.79 28.65,-177.46 h -278.48 c 0,56.36 -12.26,97.79 -36.83,124.2 -24.59,26.36 -57.82,39.61 -99.65,39.61 -41.9,0 -75.08,-13.25 -99.67,-39.61 -24.55,-26.41 -36.86,-65.98 -36.86,-118.75 v -565.12"
         style="fill:#231f20;fill-opacity:1;fill-rule:nonzero;stroke:none"
         id="path26"
         inkscape:connector-curvature="0" /><path
         d="m 5386,2309.69 h -136.47 v 218.38 H 5386 v 188.38 c 0,67.32 10.02,124.21 30.05,170.62 19.99,46.41 46.82,84.65 80.51,114.67 33.69,30.04 71.9,51.85 114.67,65.51 42.75,13.65 86.9,20.48 132.42,20.48 h 128.32 v -262.09 h -125.6 c -54.61,0 -81.88,-31.85 -81.88,-95.54 v -202.03 h 207.48 V 2309.69 H 5664.49 V 1143.98 H 5386 v 1165.71"
         style="fill:#231f20;fill-opacity:1;fill-rule:nonzero;stroke:none"
         id="path28"
         inkscape:connector-curvature="0" /><path
         d="m 6510.7,1739.1 c -30.93,5.45 -56.42,8.2 -76.4,8.2 -60.06,0 -111.51,-14.12 -154.28,-42.32 -42.77,-28.26 -64.12,-79.65 -64.12,-154.24 0,-52.79 12.69,-95.56 38.22,-128.32 25.43,-32.75 60.94,-49.16 106.47,-49.16 47.28,0 84.14,15.47 110.56,46.47 26.37,30.88 39.55,74.59 39.55,131.01 z m 0,-453.14 h -5.45 c -36.42,-50.98 -73.26,-90.12 -110.56,-117.42 -37.33,-27.31 -89.65,-40.96 -156.98,-40.96 -32.75,0 -66.44,5.04 -101.01,15 -34.57,10.02 -66.86,28.24 -96.91,54.61 -30,26.36 -54.59,63.69 -73.72,111.97 -19.1,48.16 -28.65,110.57 -28.65,186.97 0,78.23 6.37,146.96 19.1,206.12 12.72,59.12 35.92,108.26 69.61,147.42 33.69,39.12 78.71,68.26 135.16,87.36 56.39,19.1 128.32,28.65 215.64,28.65 20.04,0 40.02,-0.93 60.1,-2.71 20,-1.82 44.55,-3.67 73.67,-5.45 v 144.69 c 0,47.28 -10.02,86.4 -30,117.36 -20.04,30.94 -56.42,46.45 -109.22,46.45 -36.4,0 -69.6,-11.88 -99.64,-35.51 -30.02,-23.67 -49.59,-58.28 -58.68,-103.75 h -270.29 c 9.08,125.6 50.96,225.64 125.61,300.29 36.36,36.39 80.06,65.08 131.03,86.02 50.92,20.89 108.26,31.38 171.97,31.38 58.25,0 112.86,-9.12 163.83,-27.28 50.92,-18.22 95.08,-45.53 132.39,-81.92 37.3,-36.4 66.89,-81.87 88.75,-136.48 21.83,-54.61 32.75,-118.34 32.75,-191.11 v -963.68 h -278.5 v 141.98"
         style="fill:#231f20;fill-opacity:1;fill-rule:nonzero;stroke:none"
         id="path30"
         inkscape:connector-curvature="0" /><path
         d="m 2848.89,901.762 h -60.18 v 48.937 h 172.38 v -48.937 h -60.17 v -314.18 h -52.03 v 314.18"
         style="fill:#656263;fill-opacity:1;fill-rule:nonzero;stroke:none"
         id="path32"
         inkscape:connector-curvature="0" /><path
         d="m 2996.78,738.051 h 51.03 v 29.59 c 0,9.839 -2.3,17.218 -6.91,22.16 -4.57,4.929 -10.78,7.39 -18.6,7.39 -7.83,0 -14.04,-2.461 -18.61,-7.39 -4.59,-4.942 -6.91,-12.321 -6.91,-22.16 z m 0,-40.821 v -35.179 c 0,-8.141 2.32,-14.469 6.91,-18.871 4.57,-4.43 10.78,-6.621 18.61,-6.621 9.87,0 16.41,2.871 19.61,8.671 3.27,5.79 5.2,11.551 5.9,17.352 h 51.99 c 0,-10.902 -1.77,-21.102 -5.35,-30.633 -3.57,-9.508 -8.73,-17.648 -15.52,-24.449 -6.82,-7.148 -15,-12.77 -24.5,-16.84 -9.55,-4.078 -20.25,-6.129 -32.13,-6.129 -15.97,0 -29.74,3.399 -41.32,10.199 -11.57,6.79 -20.41,15.821 -26.51,27.032 -3.75,6.789 -6.31,14.629 -7.67,23.468 -1.35,8.852 -2.03,18.52 -2.03,29.071 v 85.148 c 0,10.531 0.68,20.262 2.03,29.102 1.36,8.828 3.92,16.648 7.67,23.437 6.1,11.211 14.94,20.223 26.51,27.012 11.58,6.801 25.35,10.219 41.32,10.219 11.88,0 22.7,-2.028 32.37,-6.11 9.71,-4.109 17.87,-9.789 24.49,-17.109 6.62,-7.289 11.72,-15.879 15.29,-25.73 3.58,-9.879 5.35,-20.391 5.35,-31.641 V 697.23 h -103.02"
         style="fill:#656263;fill-opacity:1;fill-rule:nonzero;stroke:none"
         id="path34"
         inkscape:connector-curvature="0" /><path
         d="m 3185.51,662.051 c 0,-8.141 2.28,-14.469 6.85,-18.871 4.63,-4.43 10.8,-6.621 18.64,-6.621 9.84,0 16.4,2.871 19.63,8.671 3.22,5.79 5.19,11.551 5.85,17.352 h 52.04 c 0,-10.902 -1.8,-21.102 -5.34,-30.633 -3.57,-9.508 -8.79,-17.648 -15.58,-24.449 -6.8,-7.148 -14.94,-12.77 -24.47,-16.84 -9.52,-4.078 -20.24,-6.129 -32.13,-6.129 -16,0 -29.77,3.399 -41.31,10.199 -11.55,6.79 -20.39,15.821 -26.53,27.032 -3.75,6.789 -6.28,14.629 -7.63,23.468 -1.39,8.852 -2.05,18.52 -2.05,29.071 v 85.148 c 0,10.531 0.66,20.262 2.05,29.102 1.35,8.828 3.88,16.648 7.63,23.437 6.14,11.211 14.98,20.223 26.53,27.012 11.54,6.801 25.31,10.219 41.31,10.219 11.89,0 22.71,-2.028 32.4,-6.11 9.67,-4.109 17.85,-9.789 24.45,-17.109 6.66,-7.289 11.76,-16.059 15.33,-26.25 3.54,-10.199 5.34,-21.23 5.34,-33.168 h -52.04 c 0,10.547 -2.28,18.277 -6.85,23.219 -4.59,4.929 -10.8,7.39 -18.63,7.39 -7.84,0 -14.01,-2.461 -18.64,-7.39 -4.57,-4.942 -6.85,-12.321 -6.85,-22.16 v -105.59"
         style="fill:#656263;fill-opacity:1;fill-rule:nonzero;stroke:none"
         id="path36"
         inkscape:connector-curvature="0" /><path
         d="m 3313.01,950.699 h 52.03 V 821.191 h 1 c 5.44,8.149 11.97,14.86 19.62,20.141 7.68,5.27 17.43,7.887 29.34,7.887 6.46,0 12.91,-1.098 19.36,-3.297 6.46,-2.231 12.24,-5.863 17.34,-10.961 5.1,-5.102 9.2,-11.66 12.25,-19.652 3.08,-8.008 4.6,-17.789 4.6,-29.329 V 587.582 h -52.01 v 179 c 0,9.547 -2.22,17.008 -6.66,22.438 -4.41,5.449 -10.68,8.171 -18.86,8.171 -9.87,0 -16.66,-3.07 -20.41,-9.16 -3.73,-6.121 -5.57,-14.98 -5.57,-26.551 V 587.582 h -52.03 v 363.117"
         style="fill:#656263;fill-opacity:1;fill-rule:nonzero;stroke:none"
         id="path38"
         inkscape:connector-curvature="0" /><path
         d="m 3508.83,846.148 h 52.03 v -24.957 h 1 c 5.44,8.149 12.01,14.86 19.66,20.141 7.64,5.27 17.43,7.887 29.32,7.887 6.45,0 12.89,-1.098 19.36,-3.297 6.48,-2.231 12.26,-5.863 17.34,-10.961 5.12,-5.102 9.18,-11.66 12.26,-19.652 3.07,-8.008 4.59,-17.789 4.59,-29.329 V 587.582 h -52.03 v 179 c 0,9.547 -2.22,17.008 -6.62,22.438 -4.45,5.449 -10.72,8.171 -18.86,8.171 -9.89,0 -16.68,-3.07 -20.43,-9.16 -3.72,-6.121 -5.59,-14.98 -5.59,-26.551 V 587.582 h -52.03 v 258.566"
         style="fill:#656263;fill-opacity:1;fill-rule:nonzero;stroke:none"
         id="path40"
         inkscape:connector-curvature="0" /><path
         d="m 3752.11,666.148 c 0,-9.898 2.28,-17.277 6.85,-22.199 4.63,-4.929 10.81,-7.39 18.64,-7.39 7.83,0 14,2.461 18.63,7.39 4.57,4.922 6.86,12.301 6.86,22.199 v 101.493 c 0,9.839 -2.29,17.218 -6.86,22.16 -4.63,4.929 -10.8,7.39 -18.63,7.39 -7.83,0 -14.01,-2.461 -18.64,-7.39 -4.57,-4.942 -6.85,-12.321 -6.85,-22.16 z m -52.03,93.301 c 0,10.531 0.66,20.262 2.05,29.102 1.35,8.828 3.89,16.648 7.62,23.437 6.15,11.211 15,20.223 26.54,27.012 11.54,6.801 25.31,10.219 41.31,10.219 15.99,0 29.76,-3.418 41.31,-10.219 11.54,-6.789 20.39,-15.801 26.52,-27.012 3.75,-6.789 6.29,-14.609 7.64,-23.437 1.34,-8.84 2.05,-18.571 2.05,-29.102 v -85.148 c 0,-10.551 -0.71,-20.219 -2.05,-29.071 -1.35,-8.839 -3.89,-16.679 -7.64,-23.468 -6.13,-11.211 -14.98,-20.242 -26.52,-27.032 -11.55,-6.8 -25.32,-10.199 -41.31,-10.199 -16,0 -29.77,3.399 -41.31,10.199 -11.54,6.79 -20.39,15.821 -26.54,27.032 -3.73,6.789 -6.27,14.629 -7.62,23.468 -1.39,8.852 -2.05,18.52 -2.05,29.071 v 85.148"
         style="fill:#656263;fill-opacity:1;fill-rule:nonzero;stroke:none"
         id="path42"
         inkscape:connector-curvature="0" /><path
         d="m 3887.75,950.699 h 52.04 V 660.531 c 0,-9.871 1.75,-16.582 5.33,-20.16 3.57,-3.57 10.31,-5.859 20.15,-6.891 v -48.949 c -11.89,0 -22.67,0.938 -32.38,2.809 -9.69,1.879 -17.83,5.449 -24.49,10.73 -6.6,5.25 -11.72,12.649 -15.27,22.141 -3.6,9.559 -5.38,21.777 -5.38,36.738 v 293.75"
         style="fill:#656263;fill-opacity:1;fill-rule:nonzero;stroke:none"
         id="path44"
         inkscape:connector-curvature="0" /><path
         d="m 4033.09,666.148 c 0,-9.898 2.32,-17.277 6.89,-22.199 4.59,-4.929 10.78,-7.39 18.63,-7.39 7.8,0 14.01,2.461 18.62,7.39 4.59,4.922 6.87,12.301 6.87,22.199 v 101.493 c 0,9.839 -2.28,17.218 -6.87,22.16 -4.61,4.929 -10.82,7.39 -18.62,7.39 -7.85,0 -14.04,-2.461 -18.63,-7.39 -4.57,-4.942 -6.89,-12.321 -6.89,-22.16 z m -52,93.301 c 0,10.531 0.65,20.262 2.04,29.102 1.36,8.828 3.88,16.648 7.63,23.437 6.12,11.211 14.98,20.223 26.54,27.012 11.55,6.801 25.32,10.219 41.31,10.219 15.96,0 29.75,-3.418 41.31,-10.219 11.54,-6.789 20.39,-15.801 26.49,-27.012 3.75,-6.789 6.32,-14.609 7.67,-23.437 1.35,-8.84 2.05,-18.571 2.05,-29.102 v -85.148 c 0,-10.551 -0.7,-20.219 -2.05,-29.071 -1.35,-8.839 -3.92,-16.679 -7.67,-23.468 -6.1,-11.211 -14.95,-20.242 -26.49,-27.032 -11.56,-6.8 -25.35,-10.199 -41.31,-10.199 -15.99,0 -29.76,3.399 -41.31,10.199 -11.56,6.79 -20.42,15.821 -26.54,27.032 -3.75,6.789 -6.27,14.629 -7.63,23.468 -1.39,8.852 -2.04,18.52 -2.04,29.071 v 85.148"
         style="fill:#656263;fill-opacity:1;fill-rule:nonzero;stroke:none"
         id="path46"
         inkscape:connector-curvature="0" /><path
         d="m 4226.41,667.148 c 0,-8.148 1.77,-15.289 5.35,-21.41 3.57,-6.129 10.25,-9.179 20.12,-9.179 7.48,0 13.69,2.64 18.61,7.91 4.92,5.281 7.4,11.961 7.4,20.14 v 100.45 c 0,9.55 -2.36,17.281 -7.15,23.203 -4.76,5.976 -11.03,8.929 -18.86,8.929 -8.83,0 -15.28,-3.211 -19.36,-9.691 -4.1,-6.449 -6.11,-14.941 -6.11,-25.488 z m 0,-109.628 c 0.31,-6.149 2.77,-11.899 7.38,-17.34 4.59,-5.45 11.29,-8.192 20.16,-8.192 8.45,0 14.6,2.66 18.35,7.934 3.72,5.277 5.59,11.969 5.59,20.117 v 51.031 h -1.01 c -5.81,-8.531 -12.66,-15.05 -20.67,-19.66 -7.99,-4.59 -17.25,-6.879 -27.79,-6.879 -21.43,0 -36.56,8.149 -45.37,24.489 -3.09,5.781 -5.28,12.89 -6.64,21.41 -1.37,8.48 -2.03,19.902 -2.03,34.179 v 98.442 c 0,18.668 0.48,32.461 1.54,41.289 0.99,8.82 3.22,15.969 6.62,21.422 4.39,6.797 10.12,12.418 17.07,16.82 6.95,4.406 16.74,6.637 29.34,6.637 6.44,0 11.99,-0.668 16.58,-2.028 4.57,-1.39 8.73,-3.261 12.48,-5.609 3.75,-2.402 7.15,-5.211 10.19,-8.441 3.05,-3.219 6.29,-6.692 9.69,-10.43 v 23.437 h 52.01 V 555.98 c 0,-8.832 -1.42,-17.781 -4.33,-26.761 -2.87,-9.02 -7.56,-17.168 -14.01,-24.489 -6.44,-7.332 -14.61,-13.281 -24.49,-17.871 -9.84,-4.57 -21.6,-6.859 -35.19,-6.859 -7.82,0 -15.96,1.25 -24.46,3.809 -8.49,2.562 -16.4,6.8 -23.73,12.75 -7.32,5.941 -13.59,13.851 -18.87,23.691 -5.27,9.91 -8.77,22.289 -10.44,37.27 h 52.03"
         style="fill:#656263;fill-opacity:1;fill-rule:nonzero;stroke:none"
         id="path48"
         inkscape:connector-curvature="0" /><path
         d="m 4372.73,846.148 h 52.04 V 587.582 h -52.04 z m 0,104.551 h 52.04 v -51.988 h -52.04 v 51.988"
         style="fill:#656263;fill-opacity:1;fill-rule:nonzero;stroke:none"
         id="path50"
         inkscape:connector-curvature="0" /><path
         d="m 4512.48,738.051 h 50.98 v 29.59 c 0,9.839 -2.29,17.218 -6.86,22.16 -4.63,4.929 -10.82,7.39 -18.63,7.39 -7.81,0 -14.01,-2.461 -18.63,-7.39 -4.57,-4.942 -6.86,-12.321 -6.86,-22.16 z m 0,-40.821 v -35.179 c 0,-8.141 2.29,-14.469 6.86,-18.871 4.62,-4.43 10.82,-6.621 18.63,-6.621 9.84,0 16.41,2.871 19.63,8.671 3.22,5.79 5.17,11.551 5.86,17.352 h 52.03 c 0,-10.902 -1.78,-21.102 -5.37,-30.633 -3.54,-9.508 -8.75,-17.648 -15.55,-24.449 -6.8,-7.148 -14.94,-12.77 -24.49,-16.84 -9.49,-4.078 -20.22,-6.129 -32.11,-6.129 -16,0 -29.77,3.399 -41.31,10.199 -11.54,6.79 -20.39,15.821 -26.54,27.032 -3.71,6.789 -6.27,14.629 -7.62,23.468 -1.37,8.852 -2.05,18.52 -2.05,29.071 v 85.148 c 0,10.531 0.68,20.262 2.05,29.102 1.35,8.828 3.91,16.648 7.62,23.437 6.15,11.211 15,20.223 26.54,27.012 11.54,6.801 25.31,10.219 41.31,10.219 11.89,0 22.67,-2.028 32.4,-6.11 9.67,-4.109 17.81,-9.789 24.47,-17.109 6.64,-7.289 11.74,-15.879 15.28,-25.73 3.59,-9.879 5.37,-20.391 5.37,-31.641 V 697.23 h -103.01"
         style="fill:#656263;fill-opacity:1;fill-rule:nonzero;stroke:none"
         id="path52"
         inkscape:connector-curvature="0" /><path
         d="m 4740.43,773.73 c -0.31,8.852 -3.13,15.469 -8.4,19.918 -5.27,4.403 -11.31,6.622 -18.1,6.622 -8.15,0 -14.48,-2.629 -18.87,-7.911 -4.43,-5.269 -6.62,-11.308 -6.62,-18.097 0,-4.774 1.17,-9.442 3.57,-14.032 2.35,-4.609 8.5,-8.769 18.34,-12.519 l 30.59,-12.199 c 19.39,-7.481 32.75,-17.68 40.04,-30.633 7.3,-12.93 10.99,-27.008 10.99,-42.297 0,-10.902 -1.99,-21.023 -5.88,-30.352 -3.9,-9.378 -9.25,-17.621 -16.05,-24.73 -6.84,-7.148 -14.98,-12.77 -24.49,-16.84 -9.53,-4.078 -19.91,-6.129 -31.1,-6.129 -10.23,0 -19.92,1.699 -29.1,5.098 -9.16,3.402 -17.24,8.32 -24.22,14.781 -6.97,6.488 -12.65,14.539 -17.07,24.238 -4.43,9.672 -6.83,20.981 -7.13,33.934 h 48.93 c 1.05,-7.152 3.52,-13.773 7.42,-19.922 3.89,-6.101 10.78,-9.18 20.65,-9.18 7.48,0 14.18,2.5 20.15,7.418 5.92,4.922 8.91,11.782 8.91,20.622 0,7.152 -1.88,13.3 -5.63,18.402 -3.73,5.098 -10.52,9.488 -20.39,13.238 l -24.96,9.199 c -16.35,6.102 -29.18,15.18 -38.53,27.25 -9.34,12.071 -14.03,26.782 -14.03,44.121 0,10.899 2.05,21 6.14,30.352 4.06,9.379 9.61,17.348 16.56,23.969 6.95,6.621 15.04,11.828 24.24,15.578 9.16,3.711 19.04,5.59 29.59,5.59 10.5,0 20.31,-1.949 29.29,-5.879 9.03,-3.891 16.76,-9.141 23.21,-15.801 6.48,-6.641 11.56,-14.609 15.31,-23.949 3.73,-9.352 5.6,-19.309 5.6,-29.86 h -48.96"
         style="fill:#656263;fill-opacity:1;fill-rule:nonzero;stroke:none"
         id="path54"
         inkscape:connector-curvature="0" /><path
         d="m 4962.3,671.762 c 0,-10.551 2.04,-19.082 6.1,-25.532 4.1,-6.441 10.55,-9.671 19.39,-9.671 7.8,0 14.09,2.972 18.87,8.91 4.75,5.941 7.15,13.711 7.15,23.203 V 769.16 c 0,8.141 -2.48,14.879 -7.4,20.16 -4.96,5.25 -11.14,7.871 -18.62,7.871 -9.86,0 -16.58,-3.07 -20.15,-9.16 -3.58,-6.121 -5.34,-13.261 -5.34,-21.449 z m 51.51,-60.692 c -3.4,-3.75 -6.66,-7.261 -9.73,-10.48 -3.04,-3.231 -6.44,-6.039 -10.19,-8.399 -3.75,-2.39 -7.97,-4.261 -12.72,-5.609 -4.8,-1.352 -10.39,-2.051 -16.83,-2.051 -21.43,0 -36.57,8.149 -45.39,24.489 -3.09,5.781 -5.28,12.89 -6.63,21.41 -1.38,8.48 -2.05,19.902 -2.05,34.179 v 98.442 c 0,18.668 0.51,32.461 1.53,41.289 0.99,8.82 3.22,15.969 6.62,21.422 4.43,6.797 10.13,12.418 17.11,16.82 6.93,4.406 16.74,6.637 29.29,6.637 10.2,0 19.32,-2.309 27.31,-6.879 7.97,-4.61 14.86,-11.129 20.62,-19.629 h 1.06 v 127.988 h 52.01 V 587.582 h -52.01 v 23.488"
         style="fill:#656263;fill-opacity:1;fill-rule:nonzero;stroke:none"
         id="path56"
         inkscape:connector-curvature="0" /><path
         d="m 5153.52,738.051 h 51.01 v 29.59 c 0,9.839 -2.28,17.218 -6.87,22.16 -4.61,4.929 -10.82,7.39 -18.62,7.39 -7.85,0 -14.04,-2.461 -18.63,-7.39 -4.57,-4.942 -6.89,-12.321 -6.89,-22.16 z m 0,-40.821 v -35.179 c 0,-8.141 2.32,-14.469 6.89,-18.871 4.59,-4.43 10.78,-6.621 18.63,-6.621 9.85,0 16.41,2.871 19.63,8.671 3.22,5.79 5.16,11.551 5.86,17.352 h 52.03 c 0,-10.902 -1.81,-21.102 -5.39,-30.633 -3.55,-9.508 -8.73,-17.648 -15.53,-24.449 -6.79,-7.148 -14.98,-12.77 -24.49,-16.84 -9.51,-4.078 -20.21,-6.129 -32.11,-6.129 -15.99,0 -29.76,3.399 -41.31,10.199 -11.56,6.79 -20.43,15.821 -26.54,27.032 -3.75,6.789 -6.27,14.629 -7.64,23.468 -1.38,8.852 -2.03,18.52 -2.03,29.071 v 85.148 c 0,10.531 0.65,20.262 2.03,29.102 1.37,8.828 3.89,16.648 7.64,23.437 6.11,11.211 14.98,20.223 26.54,27.012 11.55,6.801 25.32,10.219 41.31,10.219 11.9,0 22.68,-2.028 32.37,-6.11 9.7,-4.109 17.85,-9.789 24.47,-17.109 6.66,-7.289 11.74,-15.879 15.29,-25.73 3.58,-9.879 5.39,-20.391 5.39,-31.641 V 697.23 h -103.04"
         style="fill:#656263;fill-opacity:1;fill-rule:nonzero;stroke:none"
         id="path58"
         inkscape:connector-curvature="0" /><path
         d="m 5380.96,805.371 h -25.49 v 40.777 h 25.49 v 35.223 c 0,12.539 1.87,23.199 5.62,31.867 3.75,8.672 8.73,15.782 15.06,21.391 6.27,5.621 13.42,9.73 21.39,12.242 7.99,2.578 16.23,3.828 24.74,3.828 h 23.99 v -48.937 h -23.48 c -10.19,0 -15.29,-5.981 -15.29,-17.871 v -37.743 h 38.77 v -40.777 h -38.77 V 587.582 h -52.03 v 217.789"
         style="fill:#656263;fill-opacity:1;fill-rule:nonzero;stroke:none"
         id="path60"
         inkscape:connector-curvature="0" /><path
         d="m 5532.42,666.148 c 0,-9.898 2.31,-17.277 6.92,-22.199 4.57,-4.929 10.78,-7.39 18.59,-7.39 7.83,0 14.04,2.461 18.61,7.39 4.59,4.922 6.92,12.301 6.92,22.199 v 101.493 c 0,9.839 -2.33,17.218 -6.92,22.16 -4.57,4.929 -10.78,7.39 -18.61,7.39 -7.81,0 -14.02,-2.461 -18.59,-7.39 -4.61,-4.942 -6.92,-12.321 -6.92,-22.16 z m -51.99,93.301 c 0,10.531 0.66,20.262 2.01,29.102 1.39,8.828 3.93,16.648 7.68,23.437 6.09,11.211 14.94,20.223 26.52,27.012 11.56,6.801 25.33,10.219 41.29,10.219 15.98,0 29.75,-3.418 41.33,-10.219 11.56,-6.789 20.41,-15.801 26.5,-27.012 3.75,-6.789 6.31,-14.609 7.68,-23.437 1.35,-8.84 2.03,-18.571 2.03,-29.102 v -85.148 c 0,-10.551 -0.68,-20.219 -2.03,-29.071 -1.37,-8.839 -3.93,-16.679 -7.68,-23.468 -6.09,-11.211 -14.94,-20.242 -26.5,-27.032 -11.58,-6.8 -25.35,-10.199 -41.33,-10.199 -15.96,0 -29.73,3.399 -41.29,10.199 -11.58,6.79 -20.43,15.821 -26.52,27.032 -3.75,6.789 -6.29,14.629 -7.68,23.468 -1.35,8.852 -2.01,18.52 -2.01,29.071 v 85.148"
         style="fill:#656263;fill-opacity:1;fill-rule:nonzero;stroke:none"
         id="path62"
         inkscape:connector-curvature="0" /><path
         d="m 5668.59,846.148 h 52.04 v -27.539 c 10.54,9.512 20.91,17 31.11,22.442 10.19,5.449 22.79,8.168 37.73,8.168 v -55.098 c -5.09,2.051 -10.37,3.07 -15.82,3.07 -5.41,0 -11.31,-0.941 -17.58,-2.781 -6.3,-1.871 -12.07,-5.039 -17.34,-9.43 -5.27,-4.449 -9.61,-10.21 -13.01,-17.339 -3.4,-7.153 -5.09,-16 -5.09,-26.551 V 587.582 h -52.04 v 258.566"
         style="fill:#656263;fill-opacity:1;fill-rule:nonzero;stroke:none"
         id="path64"
         inkscape:connector-curvature="0" /><path
         d="m 5810.39,846.148 h 52.03 v -24.957 h 1 c 5.45,8.149 12.01,14.86 19.67,20.141 7.63,5.27 17.42,7.887 29.31,7.887 11.19,0 20.57,-2.719 28.03,-8.168 7.48,-5.442 13.59,-11.36 18.38,-17.852 6.44,7.133 13.59,13.281 21.42,18.383 7.82,5.098 18.68,7.637 32.62,7.637 6.49,0 13.11,-1.098 19.9,-3.297 6.8,-2.231 12.91,-5.863 18.34,-10.961 5.45,-5.102 9.89,-11.66 13.3,-19.652 3.38,-8.008 5.1,-17.789 5.1,-29.329 V 587.582 h -52.03 v 179 c 0,9.547 -2.23,17.008 -6.62,22.438 -4.45,5.449 -10.72,8.171 -18.87,8.171 -9.9,0 -16.7,-3.07 -20.41,-9.16 -3.75,-6.121 -5.6,-14.98 -5.6,-26.551 V 587.582 h -52.03 v 179 c 0,9.547 -2.23,17.008 -6.63,22.438 -4.45,5.449 -10.72,8.171 -18.86,8.171 -9.89,0 -16.68,-3.07 -20.43,-9.16 -3.71,-6.121 -5.59,-14.98 -5.59,-26.551 V 587.582 h -52.03 v 258.566"
         style="fill:#656263;fill-opacity:1;fill-rule:nonzero;stroke:none"
         id="path66"
         inkscape:connector-curvature="0" /><path
         d="m 6210.76,698.789 c -5.8,1 -10.55,1.52 -14.3,1.52 -11.23,0 -20.83,-2.629 -28.82,-7.911 -7.97,-5.269 -11.96,-14.878 -11.96,-28.828 0,-9.84 2.35,-17.832 7.13,-23.961 4.77,-6.129 11.39,-9.179 19.89,-9.179 8.84,0 15.7,2.89 20.66,8.652 4.92,5.797 7.4,13.949 7.4,24.488 z m 0,-84.668 h -1.05 c -6.8,-9.551 -13.66,-16.82 -20.63,-21.93 -6.97,-5.121 -16.76,-7.66 -29.35,-7.66 -6.1,0 -12.39,0.938 -18.87,2.809 -6.45,1.879 -12.48,5.281 -18.11,10.199 -5.6,4.922 -10.19,11.891 -13.77,20.922 -3.57,9 -5.33,20.621 -5.33,34.918 0,14.633 1.17,27.441 3.58,38.492 2.34,11.078 6.68,20.238 13,27.539 6.27,7.328 14.71,12.781 25.24,16.352 10.51,3.578 23.98,5.328 40.27,5.328 3.75,0 7.5,-0.168 11.25,-0.5 3.71,-0.36 8.32,-0.668 13.77,-1.02 v 27.012 c 0,8.848 -1.87,16.168 -5.62,21.969 -3.75,5.75 -10.55,8.64 -20.39,8.64 -6.8,0 -13.01,-2.191 -18.64,-6.601 -5.62,-4.442 -9.25,-10.879 -10.95,-19.379 h -50.51 c 1.7,23.437 9.55,42.129 23.49,56.078 6.8,6.793 14.95,12.16 24.48,16.051 9.51,3.93 20.19,5.879 32.13,5.879 10.88,0 21.07,-1.719 30.58,-5.117 9.51,-3.403 17.76,-8.493 24.73,-15.293 6.97,-6.797 12.52,-15.289 16.58,-25.489 4.1,-10.199 6.13,-22.09 6.13,-35.679 V 587.582 h -52.01 v 26.539"
         style="fill:#656263;fill-opacity:1;fill-rule:nonzero;stroke:none"
         id="path68"
         inkscape:connector-curvature="0" /><path
         d="m 6301,924.691 h 52.03 v -78.543 h 32.13 v -40.777 h -32.13 v -143.32 c 0,-6.11 0.58,-10.903 1.77,-14.301 1.22,-3.391 3.09,-5.91 5.61,-7.609 2.58,-1.7 5.88,-2.762 9.96,-3.071 4.1,-0.332 9.02,-0.511 14.79,-0.511 v -48.977 h -21.41 c -11.89,0 -21.86,1.867 -29.82,5.617 -8.03,3.75 -14.4,8.5 -19.16,14.301 -4.75,5.738 -8.25,12.301 -10.43,19.629 -2.23,7.281 -3.34,14.351 -3.34,21.152 v 157.09 h -26 v 40.777 h 26 v 78.543"
         style="fill:#656263;fill-opacity:1;fill-rule:nonzero;stroke:none"
         id="path70"
         inkscape:connector-curvature="0" /><path
         d="m 6407.58,846.148 h 52.03 V 587.582 h -52.03 z m 0,104.551 h 52.03 v -51.988 h -52.03 v 51.988"
         style="fill:#656263;fill-opacity:1;fill-rule:nonzero;stroke:none"
         id="path72"
         inkscape:connector-curvature="0" /><path
         d="m 6544.77,666.148 c 0,-9.898 2.32,-17.277 6.89,-22.199 4.59,-4.929 10.78,-7.39 18.63,-7.39 7.8,0 14.01,2.461 18.62,7.39 4.59,4.922 6.87,12.301 6.87,22.199 v 101.493 c 0,9.839 -2.28,17.218 -6.87,22.16 -4.61,4.929 -10.82,7.39 -18.62,7.39 -7.85,0 -14.04,-2.461 -18.63,-7.39 -4.57,-4.942 -6.89,-12.321 -6.89,-22.16 z m -52,93.301 c 0,10.531 0.65,20.262 2.03,29.102 1.37,8.828 3.89,16.648 7.64,23.437 6.11,11.211 14.98,20.223 26.54,27.012 11.55,6.801 25.32,10.219 41.31,10.219 15.96,0 29.75,-3.418 41.31,-10.219 11.54,-6.789 20.39,-15.801 26.49,-27.012 3.75,-6.789 6.32,-14.609 7.67,-23.437 1.35,-8.84 2.05,-18.571 2.05,-29.102 v -85.148 c 0,-10.551 -0.7,-20.219 -2.05,-29.071 -1.35,-8.839 -3.92,-16.679 -7.67,-23.468 -6.1,-11.211 -14.95,-20.242 -26.49,-27.032 -11.56,-6.8 -25.35,-10.199 -41.31,-10.199 -15.99,0 -29.76,3.399 -41.31,10.199 -11.56,6.79 -20.43,15.821 -26.54,27.032 -3.75,6.789 -6.27,14.629 -7.64,23.468 -1.38,8.852 -2.03,18.52 -2.03,29.071 v 85.148"
         style="fill:#656263;fill-opacity:1;fill-rule:nonzero;stroke:none"
         id="path74"
         inkscape:connector-curvature="0" /><path
         d="m 6686.05,846.148 h 52.04 v -24.957 h 1.01 c 5.43,8.149 11.95,14.86 19.63,20.141 7.64,5.27 17.4,7.887 29.3,7.887 6.46,0 12.95,-1.098 19.39,-3.297 6.45,-2.231 12.25,-5.863 17.35,-10.961 5.09,-5.102 9.19,-11.66 12.24,-19.652 3.05,-8.008 4.57,-17.789 4.57,-29.329 V 587.582 h -52.01 v 179 c 0,9.547 -2.19,17.008 -6.64,22.438 -4.39,5.449 -10.7,8.171 -18.87,8.171 -9.84,0 -16.64,-3.07 -20.39,-9.16 -3.75,-6.121 -5.58,-14.98 -5.58,-26.551 V 587.582 h -52.04 v 258.566"
         style="fill:#656263;fill-opacity:1;fill-rule:nonzero;stroke:none"
         id="path76"
         inkscape:connector-curvature="0" /><path
         d="m 2859.08,258.051 h 51.04 v 29.59 c 0,9.839 -2.31,17.218 -6.92,22.16 -4.57,4.929 -10.78,7.39 -18.59,7.39 -7.83,0 -14.04,-2.461 -18.61,-7.39 -4.59,-4.942 -6.92,-12.321 -6.92,-22.16 z m 0,-40.821 v -35.179 c 0,-8.141 2.33,-14.469 6.92,-18.871 4.57,-4.43 10.78,-6.621 18.61,-6.621 9.86,0 16.41,2.871 19.61,8.671 3.26,5.79 5.19,11.551 5.9,17.352 h 51.99 c 0,-10.902 -1.78,-21.102 -5.35,-30.633 -3.58,-9.508 -8.73,-17.648 -15.53,-24.449 -6.82,-7.148 -15,-12.77 -24.49,-16.84 -9.55,-4.082 -20.26,-6.129 -32.13,-6.129 -15.98,0 -29.75,3.399 -41.33,10.199 -11.56,6.79 -20.41,15.821 -26.5,27.032 -3.75,6.789 -6.31,14.629 -7.68,23.468 -1.35,8.848 -2.03,18.52 -2.03,29.071 v 85.148 c 0,10.531 0.68,20.262 2.03,29.102 1.37,8.828 3.93,16.648 7.68,23.437 6.09,11.211 14.94,20.223 26.5,27.012 11.58,6.801 25.35,10.219 41.33,10.219 11.87,0 22.69,-2.028 32.36,-6.11 9.71,-4.109 17.87,-9.789 24.49,-17.109 6.63,-7.289 11.72,-15.879 15.3,-25.73 3.57,-9.879 5.35,-20.391 5.35,-31.641 V 217.23 h -103.03"
         style="fill:#656263;fill-opacity:1;fill-rule:nonzero;stroke:none"
         id="path78"
         inkscape:connector-curvature="0" /><path
         d="m 3000.35,444.691 h 52.03 v -78.543 h 32.15 v -40.777 h -32.15 v -143.32 c 0,-6.11 0.59,-10.903 1.8,-14.301 1.19,-3.391 3.07,-5.91 5.59,-7.609 2.57,-1.7 5.89,-2.762 9.96,-3.071 4.1,-0.328 9.02,-0.511 14.8,-0.511 v -48.977 h -21.42 c -11.9,0 -21.86,1.867 -29.83,5.617 -8.03,3.75 -14.37,8.5 -19.16,14.301 -4.74,5.738 -8.22,12.301 -10.43,19.629 -2.23,7.281 -3.34,14.351 -3.34,21.152 v 157.09 h -25.97 v 40.777 h 25.97 v 78.543"
         style="fill:#656263;fill-opacity:1;fill-rule:nonzero;stroke:none"
         id="path80"
         inkscape:connector-curvature="0" /><path
         d="m 3297.7,218.789 c -5.79,1 -10.55,1.52 -14.28,1.52 -11.25,0 -20.86,-2.629 -28.83,-7.911 -7.99,-5.269 -11.97,-14.878 -11.97,-28.828 0,-9.84 2.36,-17.832 7.11,-23.961 4.76,-6.129 11.4,-9.179 19.92,-9.179 8.83,0 15.7,2.89 20.62,8.648 4.93,5.801 7.43,13.953 7.43,24.492 z m 0,-84.668 h -1.04 c -6.8,-9.551 -13.69,-16.82 -20.64,-21.93 -7,-5.121 -16.74,-7.66 -29.34,-7.66 -6.13,0 -12.42,0.938 -18.87,2.809 -6.44,1.879 -12.48,5.281 -18.1,10.199 -5.63,4.922 -10.2,11.891 -13.77,20.922 -3.58,9 -5.35,20.617 -5.35,34.918 0,14.633 1.19,27.441 3.55,38.492 2.38,11.078 6.72,20.238 13.01,27.539 6.31,7.332 14.73,12.781 25.23,16.352 10.55,3.578 23.99,5.328 40.32,5.328 3.75,0 7.46,-0.168 11.21,-0.5 3.73,-0.36 8.32,-0.668 13.79,-1.02 v 27.008 c 0,8.852 -1.88,16.172 -5.61,21.973 -3.75,5.75 -10.55,8.64 -20.41,8.64 -6.8,0 -13.01,-2.191 -18.61,-6.601 -5.63,-4.442 -9.26,-10.879 -10.96,-19.379 h -50.51 c 1.7,23.437 9.53,42.129 23.48,56.078 6.8,6.789 14.96,12.16 24.45,16.051 9.53,3.93 20.22,5.879 32.15,5.879 10.86,0 21.05,-1.719 30.61,-5.117 9.49,-3.403 17.75,-8.493 24.72,-15.293 6.97,-6.797 12.48,-15.289 16.58,-25.489 4.07,-10.199 6.1,-22.09 6.1,-35.679 V 107.582 h -51.99 v 26.539"
         style="fill:#656263;fill-opacity:1;fill-rule:nonzero;stroke:none"
         id="path82"
         inkscape:connector-curvature="0" /><path
         d="m 3491.48,282.012 c 0,10.547 -2.05,19.039 -6.13,25.488 -4.06,6.48 -10.55,9.691 -19.35,9.691 -7.86,0 -14.12,-2.949 -18.87,-8.929 -4.79,-5.922 -7.15,-13.653 -7.15,-23.203 v -100.45 c 0,-8.179 2.46,-14.859 7.38,-20.14 4.93,-5.27 11.14,-7.91 18.64,-7.91 9.84,0 16.58,3.05 20.13,9.179 3.56,6.121 5.35,13.262 5.35,21.41 z m -103.53,84.136 h 52.03 v -23.437 c 6.45,7.449 13.07,13.769 19.86,18.867 6.8,5.102 16.68,7.641 29.59,7.641 21.45,0 36.57,-8.168 45.41,-24.489 3.05,-5.769 5.28,-12.91 6.62,-21.41 1.35,-8.5 2.06,-19.879 2.06,-34.16 v -98.441 c 0,-18.688 -0.53,-32.457 -1.53,-41.309 -1.05,-8.84 -3.24,-15.988 -6.64,-21.398 -4.43,-6.84 -10.12,-12.422 -17.09,-16.864 -6.97,-4.386 -16.76,-6.617 -29.31,-6.617 -10.2,0 -19.32,2.289 -27.29,6.879 -7.99,4.61 -14.88,11.129 -20.68,19.66 h -1 V 3.05078 h -52.03 V 366.148"
         style="fill:#656263;fill-opacity:1;fill-rule:nonzero;stroke:none"
         id="path84"
         inkscape:connector-curvature="0" /><path
         d="m 3688.36,282.012 c 0,10.547 -2.05,19.039 -6.15,25.488 -4.05,6.48 -10.55,9.691 -19.36,9.691 -7.83,0 -14.1,-2.949 -18.87,-8.929 -4.78,-5.922 -7.12,-13.653 -7.12,-23.203 v -100.45 c 0,-8.179 2.46,-14.859 7.38,-20.14 4.92,-5.27 11.13,-7.91 18.61,-7.91 9.86,0 16.56,3.05 20.12,9.179 3.57,6.121 5.39,13.262 5.39,21.41 z m -103.54,84.136 h 52.04 v -23.437 c 6.44,7.449 13.06,13.769 19.86,18.867 6.8,5.102 16.64,7.641 29.59,7.641 21.42,0 36.54,-8.168 45.37,-24.489 3.09,-5.769 5.27,-12.91 6.66,-21.41 1.35,-8.5 2.01,-19.879 2.01,-34.16 v -98.441 c 0,-18.688 -0.49,-32.457 -1.52,-41.309 -1.02,-8.84 -3.24,-15.988 -6.64,-21.398 -4.4,-6.84 -10.12,-12.422 -17.05,-16.864 -6.98,-4.386 -16.76,-6.617 -29.36,-6.617 -10.19,0 -19.28,2.289 -27.26,6.879 -8.01,4.61 -14.87,11.129 -20.67,19.66 h -0.99 V 3.05078 h -52.04 V 366.148"
         style="fill:#656263;fill-opacity:1;fill-rule:nonzero;stroke:none"
         id="path86"
         inkscape:connector-curvature="0" /><path
         d="m 3780.64,366.148 h 52.04 v -27.539 c 10.52,9.512 20.87,17 31.07,22.442 10.23,5.449 22.77,8.168 37.77,8.168 v -55.098 c -5.09,2.051 -10.39,3.07 -15.82,3.07 -5.45,0 -11.31,-0.941 -17.61,-2.781 -6.29,-1.871 -12.07,-5.039 -17.35,-9.43 -5.27,-4.449 -9.61,-10.21 -12.97,-17.339 -3.43,-7.149 -5.09,-16 -5.09,-26.551 V 107.582 h -52.04 v 258.566"
         style="fill:#656263;fill-opacity:1;fill-rule:nonzero;stroke:none"
         id="path88"
         inkscape:connector-curvature="0" /><path
         d="m 3969.84,258.051 h 51.02 v 29.59 c 0,9.839 -2.32,17.218 -6.9,22.16 -4.58,4.929 -10.78,7.39 -18.63,7.39 -7.79,0 -14,-2.461 -18.61,-7.39 -4.59,-4.942 -6.88,-12.321 -6.88,-22.16 z m 0,-40.821 v -35.179 c 0,-8.141 2.29,-14.469 6.88,-18.871 4.61,-4.43 10.82,-6.621 18.61,-6.621 9.87,0 16.41,2.871 19.63,8.671 3.24,5.79 5.22,11.551 5.9,17.352 h 51.99 c 0,-10.902 -1.76,-21.102 -5.33,-30.633 -3.57,-9.508 -8.77,-17.648 -15.57,-24.449 -6.81,-7.148 -14.96,-12.77 -24.49,-16.84 -9.51,-4.082 -20.23,-6.129 -32.13,-6.129 -15.95,0 -29.74,3.399 -41.31,10.199 -11.54,6.79 -20.39,15.821 -26.52,27.032 -3.71,6.789 -6.29,14.629 -7.64,23.468 -1.34,8.848 -2.05,18.52 -2.05,29.071 v 85.148 c 0,10.531 0.71,20.262 2.05,29.102 1.35,8.828 3.93,16.648 7.64,23.437 6.13,11.211 14.98,20.223 26.52,27.012 11.57,6.801 25.36,10.219 41.31,10.219 11.9,0 22.72,-2.028 32.4,-6.11 9.67,-4.109 17.86,-9.789 24.5,-17.109 6.62,-7.289 11.72,-15.879 15.29,-25.73 3.57,-9.879 5.33,-20.391 5.33,-31.641 V 217.23 h -103.01"
         style="fill:#656263;fill-opacity:1;fill-rule:nonzero;stroke:none"
         id="path90"
         inkscape:connector-curvature="0" /><path
         d="m 4111.11,366.148 h 52.03 v -24.957 h 1 c 5.45,8.149 12.01,14.86 19.65,20.141 7.66,5.27 17.44,7.887 29.34,7.887 6.44,0 12.89,-1.098 19.37,-3.297 6.46,-2.231 12.23,-5.863 17.34,-10.961 5.08,-5.102 9.16,-11.66 12.23,-19.652 3.09,-8.008 4.61,-17.789 4.61,-29.329 V 107.582 h -52.03 v 178.996 c 0,9.551 -2.23,17.012 -6.62,22.442 -4.46,5.449 -10.73,8.171 -18.87,8.171 -9.86,0 -16.66,-3.07 -20.41,-9.16 -3.73,-6.121 -5.61,-14.98 -5.61,-26.551 V 107.582 h -52.03 v 258.566"
         style="fill:#656263;fill-opacity:1;fill-rule:nonzero;stroke:none"
         id="path92"
         inkscape:connector-curvature="0" /><path
         d="m 4309.51,444.691 h 52.03 v -78.543 h 32.11 v -40.777 h -32.11 v -143.32 c 0,-6.11 0.59,-10.903 1.76,-14.301 1.17,-3.391 3.05,-5.91 5.63,-7.609 2.52,-1.7 5.86,-2.762 9.94,-3.071 4.06,-0.328 8.98,-0.511 14.78,-0.511 v -48.977 h -21.42 c -11.92,0 -21.84,1.867 -29.85,5.617 -7.97,3.75 -14.35,8.5 -19.1,14.301 -4.76,5.738 -8.26,12.301 -10.47,19.629 -2.22,7.281 -3.3,14.351 -3.3,21.152 v 157.09 h -26.01 v 40.777 h 26.01 v 78.543"
         style="fill:#656263;fill-opacity:1;fill-rule:nonzero;stroke:none"
         id="path94"
         inkscape:connector-curvature="0" /><path
         d="m 4413.52,366.148 h 52.03 V 107.582 h -52.03 z m 0,104.551 h 52.03 v -51.988 h -52.03 v 51.988"
         style="fill:#656263;fill-opacity:1;fill-rule:nonzero;stroke:none"
         id="path96"
         inkscape:connector-curvature="0" /><path
         d="m 4602.71,293.73 c -0.33,8.852 -3.14,15.469 -8.37,19.918 -5.28,4.403 -11.31,6.622 -18.11,6.622 -8.18,0 -14.47,-2.629 -18.87,-7.911 -4.45,-5.269 -6.66,-11.308 -6.66,-18.097 0,-4.774 1.21,-9.442 3.6,-14.032 2.36,-4.609 8.47,-8.769 18.36,-12.519 l 30.58,-12.199 c 19.4,-7.481 32.74,-17.684 40.02,-30.633 7.33,-12.93 11,-27.008 11,-42.297 0,-10.902 -1.97,-21.023 -5.9,-30.352 -3.91,-9.378 -9.26,-17.621 -16.06,-24.73 -6.79,-7.148 -14.94,-12.77 -24.49,-16.84 -9.49,-4.082 -19.86,-6.129 -31.09,-6.129 -10.22,0 -19.88,1.699 -29.08,5.098 -9.16,3.402 -17.23,8.32 -24.2,14.781 -6.98,6.488 -12.7,14.539 -17.11,24.238 -4.4,9.672 -6.8,20.981 -7.11,33.934 h 48.94 c 1.02,-7.152 3.48,-13.773 7.39,-19.922 3.92,-6.101 10.78,-9.18 20.68,-9.18 7.44,0 14.18,2.5 20.14,7.418 5.93,4.922 8.92,11.782 8.92,20.622 0,7.152 -1.87,13.3 -5.62,18.402 -3.75,5.098 -10.55,9.488 -20.39,13.238 l -24.98,9.199 c -16.33,6.102 -29.16,15.18 -38.54,27.25 -9.35,12.071 -14,26.782 -14,44.121 0,10.899 2.05,21 6.09,30.348 4.1,9.383 9.61,17.352 16.58,23.973 6.98,6.621 15.06,11.828 24.26,15.578 9.14,3.711 19.01,5.59 29.55,5.59 10.53,0 20.31,-1.949 29.34,-5.879 9.02,-3.891 16.76,-9.141 23.2,-15.801 6.45,-6.641 11.54,-14.609 15.29,-23.949 3.75,-9.348 5.63,-19.309 5.63,-29.86 h -48.99"
         style="fill:#656263;fill-opacity:1;fill-rule:nonzero;stroke:none"
         id="path98"
         inkscape:connector-curvature="0" /><path
         d="m 4777.68,293.73 c -0.36,8.852 -3.17,15.469 -8.44,19.918 -5.28,4.403 -11.31,6.622 -18.11,6.622 -8.14,0 -14.45,-2.629 -18.86,-7.911 -4.4,-5.269 -6.63,-11.308 -6.63,-18.097 0,-4.774 1.18,-9.442 3.58,-14.032 2.38,-4.609 8.49,-8.769 18.34,-12.519 l 30.6,-12.199 c 19.38,-7.481 32.74,-17.684 40.06,-30.633 7.29,-12.93 10.96,-27.008 10.96,-42.297 0,-10.902 -1.95,-21.023 -5.86,-30.352 -3.93,-9.378 -9.26,-17.621 -16.05,-24.73 -6.84,-7.148 -15,-12.77 -24.5,-16.84 -9.55,-4.082 -19.88,-6.129 -31.11,-6.129 -10.2,0 -19.9,1.699 -29.06,5.098 -9.2,3.402 -17.29,8.32 -24.26,14.781 -6.97,6.488 -12.66,14.539 -17.05,24.238 -4.45,9.672 -6.84,20.981 -7.15,33.934 h 48.95 c 1.03,-7.152 3.49,-13.773 7.42,-19.922 3.87,-6.101 10.78,-9.18 20.62,-9.18 7.5,0 14.22,2.5 20.16,7.418 5.94,4.922 8.91,11.782 8.91,20.622 0,7.152 -1.88,13.3 -5.59,18.402 -3.73,5.098 -10.53,9.488 -20.39,13.238 l -25,9.199 c -16.33,6.102 -29.18,15.18 -38.5,27.25 -9.37,12.071 -14.04,26.782 -14.04,44.121 0,10.899 2.03,21 6.13,30.348 4.07,9.383 9.61,17.352 16.58,23.973 6.94,6.621 15.02,11.828 24.2,15.578 9.2,3.711 19.05,5.59 29.59,5.59 10.55,0 20.34,-1.949 29.32,-5.879 9,-3.891 16.74,-9.141 23.2,-15.801 6.49,-6.641 11.59,-14.609 15.34,-23.949 3.73,-9.348 5.6,-19.309 5.6,-29.86 h -48.96"
         style="fill:#656263;fill-opacity:1;fill-rule:nonzero;stroke:none"
         id="path100"
         inkscape:connector-curvature="0" /><path
         d="m 4961.25,218.789 c -5.78,1 -10.55,1.52 -14.26,1.52 -11.23,0 -20.84,-2.629 -28.81,-7.911 -8.02,-5.269 -12.01,-14.878 -12.01,-28.828 0,-9.84 2.4,-17.832 7.15,-23.961 4.75,-6.129 11.37,-9.179 19.88,-9.179 8.83,0 15.75,2.89 20.67,8.648 4.92,5.801 7.38,13.953 7.38,24.492 z m 0,-84.668 h -1 c -6.79,-9.551 -13.71,-16.82 -20.68,-21.93 -6.97,-5.121 -16.72,-7.66 -29.3,-7.66 -6.15,0 -12.42,0.938 -18.86,2.809 -6.49,1.879 -12.5,5.281 -18.11,10.199 -5.62,4.922 -10.19,11.891 -13.77,20.922 -3.57,9 -5.39,20.617 -5.39,34.918 0,14.633 1.21,27.441 3.57,38.492 2.41,11.078 6.74,20.238 13.01,27.539 6.31,7.332 14.71,12.781 25.26,16.352 10.54,3.578 23.96,5.328 40.31,5.328 3.71,0 7.44,-0.168 11.19,-0.5 3.75,-0.36 8.32,-0.668 13.77,-1.02 v 27.008 c 0,8.852 -1.87,16.172 -5.59,21.973 -3.75,5.75 -10.54,8.64 -20.43,8.64 -6.79,0 -13,-2.191 -18.59,-6.601 -5.6,-4.442 -9.26,-10.879 -10.98,-19.379 h -50.46 c 1.69,23.437 9.49,42.129 23.43,56.078 6.8,6.789 14.96,12.16 24.5,16.051 9.49,3.93 20.21,5.879 32.1,5.879 10.9,0 21.1,-1.719 30.63,-5.117 9.51,-3.403 17.77,-8.493 24.75,-15.293 6.93,-6.797 12.48,-15.289 16.54,-25.489 4.08,-10.199 6.13,-22.09 6.13,-35.679 V 107.582 h -52.03 v 26.539"
         style="fill:#656263;fill-opacity:1;fill-rule:nonzero;stroke:none"
         id="path102"
         inkscape:connector-curvature="0" /><path
         d="m 5103.57,187.148 c 0,-8.148 1.76,-15.289 5.34,-21.41 3.57,-6.129 10.27,-9.179 20.15,-9.179 7.46,0 13.65,2.64 18.6,7.91 4.92,5.281 7.42,11.961 7.42,20.14 v 100.45 c 0,9.55 -2.4,17.281 -7.15,23.203 -4.77,5.98 -11.07,8.929 -18.87,8.929 -8.85,0 -15.29,-3.211 -19.39,-9.691 -4.08,-6.449 -6.1,-14.941 -6.1,-25.488 z m 0,-109.6285 c 0.3,-6.1484 2.8,-11.8984 7.39,-17.3398 4.57,-5.4492 11.31,-8.1914 20.15,-8.1914 8.46,0 14.59,2.6601 18.34,7.9336 3.75,5.2773 5.63,11.9687 5.63,20.1172 V 131.07 h -1.06 c -5.78,-8.531 -12.65,-15.05 -20.62,-19.66 -8.01,-4.59 -17.29,-6.879 -27.81,-6.879 -21.41,0 -36.57,8.149 -45.38,24.489 -3.06,5.781 -5.27,12.89 -6.62,21.41 -1.36,8.48 -2.05,19.898 -2.05,34.179 v 98.442 c 0,18.668 0.49,32.461 1.53,41.289 0.99,8.82 3.22,15.969 6.62,21.422 4.41,6.797 10.13,12.418 17.11,16.82 6.95,4.406 16.72,6.637 29.29,6.637 6.45,0 12.02,-0.668 16.59,-2.028 4.57,-1.39 8.73,-3.261 12.48,-5.613 3.75,-2.398 7.14,-5.207 10.19,-8.437 3.09,-3.219 6.33,-6.692 9.73,-10.43 v 23.437 h 51.99 V 75.9805 c 0,-8.8321 -1.43,-17.7813 -4.34,-26.7617 -2.89,-9.0196 -7.57,-17.168 -14.02,-24.4883 -6.44,-7.3321 -14.59,-13.2813 -24.45,-17.87112 C 5154.38,2.28906 5142.66,0 5129.06,0 c -7.85,0 -15.99,1.25 -24.49,3.80859 -8.5,2.5625 -16.41,6.80081 -23.73,12.75001 -7.29,5.9414 -13.59,13.8516 -18.87,23.6914 -5.27,9.9102 -8.73,22.2891 -10.43,37.2695 h 52.03"
         style="fill:#656263;fill-opacity:1;fill-rule:nonzero;stroke:none"
         id="path104"
         inkscape:connector-curvature="0" /><path
         d="m 5297.34,258.051 h 51.02 v 29.59 c 0,9.839 -2.32,17.218 -6.9,22.16 -4.58,4.929 -10.78,7.39 -18.63,7.39 -7.79,0 -14,-2.461 -18.61,-7.39 -4.59,-4.942 -6.88,-12.321 -6.88,-22.16 z m 0,-40.821 v -35.179 c 0,-8.141 2.29,-14.469 6.88,-18.871 4.61,-4.43 10.82,-6.621 18.61,-6.621 9.87,0 16.41,2.871 19.63,8.671 3.24,5.79 5.22,11.551 5.9,17.352 h 51.99 c 0,-10.902 -1.76,-21.102 -5.33,-30.633 -3.57,-9.508 -8.77,-17.648 -15.57,-24.449 -6.81,-7.148 -14.96,-12.77 -24.49,-16.84 -9.51,-4.082 -20.23,-6.129 -32.13,-6.129 -15.95,0 -29.74,3.399 -41.31,10.199 -11.54,6.79 -20.39,15.821 -26.52,27.032 -3.71,6.789 -6.29,14.629 -7.64,23.468 -1.34,8.848 -2.05,18.52 -2.05,29.071 v 85.148 c 0,10.531 0.71,20.262 2.05,29.102 1.35,8.828 3.93,16.648 7.64,23.437 6.13,11.211 14.98,20.223 26.52,27.012 11.57,6.801 25.36,10.219 41.31,10.219 11.9,0 22.72,-2.028 32.4,-6.11 9.67,-4.109 17.86,-9.789 24.5,-17.109 6.62,-7.289 11.72,-15.879 15.29,-25.73 3.57,-9.879 5.33,-20.391 5.33,-31.641 V 217.23 h -103.01"
         style="fill:#656263;fill-opacity:1;fill-rule:nonzero;stroke:none"
         id="path106"
         inkscape:connector-curvature="0" /><path
         d="m 2152.46,98.1992 c -138.05,0 -250.33,112.3318 -250.33,250.3908 0,138.031 112.28,250.301 250.33,250.301 138.03,0 250.31,-112.27 250.31,-250.301 0,-138.059 -112.28,-250.3908 -250.31,-250.3908 z M 1910.33,2760.9 c 0,138.05 112.29,250.35 250.31,250.35 138.05,0 250.32,-112.3 250.32,-250.35 0,-138.03 -112.27,-250.33 -250.32,-250.33 -138.02,0 -250.31,112.3 -250.31,250.33 z M 895.586,686.91 c -138.027,0 -250.352,112.309 -250.352,250.301 0,138.039 112.325,250.329 250.352,250.329 138.004,0 250.334,-112.29 250.334,-250.329 0,-137.992 -112.33,-250.301 -250.334,-250.301 z M 340.352,2142.11 C 202.324,2142.11 90,2254.41 90,2392.44 c 0,138.07 112.324,250.37 250.352,250.37 138.007,0 250.332,-112.3 250.332,-250.37 0,-138.03 -112.325,-250.33 -250.332,-250.33 z M 2153.71,688.832 1958.09,1204.86 c 103.71,82.25 170.45,209.12 170.45,351.78 0,141.17 -65.34,266.99 -167.23,349.3 l 200.57,514.69 c 187.08,0.66 339.08,153.02 339.08,340.27 0,187.67 -152.64,340.35 -340.32,340.35 -187.63,0 -340.31,-152.68 -340.31,-340.35 0,-102.07 45.37,-193.56 116.78,-255.98 l -196.35,-504 c -20.1,2.75 -40.43,4.67 -61.23,4.67 -123.63,0 -235.55,-50 -316.72,-130.79 l -692.927,434.11 c 6.797,26.77 10.801,54.66 10.801,83.53 0,187.68 -152.696,340.37 -340.332,340.37 C 152.695,2732.81 0,2580.12 0,2392.44 c 0,-187.65 152.695,-340.33 340.352,-340.33 71.25,0 137.382,22.09 192.109,59.67 l 711.949,-446.02 c -8.75,-34.98 -13.9,-71.42 -13.9,-109.12 0,-62.09 12.62,-121.27 35.41,-175.06 l -190.37,-156.03 c -52.27,32.75 -113.851,51.99 -179.964,51.99 -187.656,0 -340.352,-152.66 -340.352,-340.329 0,-187.621 152.696,-340.301 340.352,-340.301 187.634,0 340.334,152.68 340.334,340.301 0,33.918 -5.16,66.679 -14.44,97.609 l 194.09,159.14 c 74.12,-54.08 165.17,-86.36 263.96,-86.36 19.42,0 38.44,1.64 57.23,4.04 l 192.2,-507.031 c -71.42,-62.437 -116.83,-153.91 -116.83,-256.019 0,-187.692 152.67,-340.39078 340.33,-340.39078 187.66,0 340.31,152.69878 340.31,340.39078 0,187.25 -152.01,339.57 -339.06,340.242"
         style="fill:#231f20;fill-opacity:1;fill-rule:nonzero;stroke:none"
         id="path108"
         inkscape:connector-curvature="0" /></g></g></svg>