<?xml version="1.0" encoding="UTF-8" standalone="no"?>
<!-- Created with Inkscape (http://www.inkscape.org/) -->

<svg
   xmlns:dc="http://purl.org/dc/elements/1.1/"
   xmlns:cc="http://creativecommons.org/ns#"
   xmlns:rdf="http://www.w3.org/1999/02/22-rdf-syntax-ns#"
   xmlns:svg="http://www.w3.org/2000/svg"
   xmlns="http://www.w3.org/2000/svg"
   xmlns:sodipodi="http://sodipodi.sourceforge.net/DTD/sodipodi-0.dtd"
   xmlns:inkscape="http://www.inkscape.org/namespaces/inkscape"
   version="1.1"
   id="svg2"
   xml:space="preserve"
   width="474.45334"
   height="199.77333"
   viewBox="0 0 474.45334 199.77333"
   sodipodi:docname="fapse_pant_blanc.svg"
   inkscape:version="0.92.3 (2405546, 2018-03-11)"><metadata
     id="metadata8"><rdf:RDF><cc:Work
         rdf:about=""><dc:format>image/svg+xml</dc:format><dc:type
           rdf:resource="http://purl.org/dc/dcmitype/StillImage" /><dc:title></dc:title></cc:Work></rdf:RDF></metadata><defs
     id="defs6" /><sodipodi:namedview
     pagecolor="#ffffff"
     bordercolor="#666666"
     borderopacity="1"
     objecttolerance="10"
     gridtolerance="10"
     guidetolerance="10"
     inkscape:pageopacity="0"
     inkscape:pageshadow="2"
     inkscape:window-width="1366"
     inkscape:window-height="705"
     id="namedview4"
     showgrid="false"
     inkscape:zoom="2.1222741"
     inkscape:cx="202.72402"
     inkscape:cy="100.85978"
     inkscape:window-x="-8"
     inkscape:window-y="-8"
     inkscape:window-maximized="1"
     inkscape:current-layer="g10" /><g
     id="g10"
     inkscape:groupmode="layer"
     inkscape:label="ink_ext_XXXXXX"
     transform="matrix(1.3333333,0,0,-1.3333333,0,199.77333)"><path
       inkscape:connector-curvature="0"
       id="path14"
       style="fill:#ffffff;fill-opacity:1;fill-rule:nonzero;stroke:none;stroke-width:0.1"
       d="m 103.868,98.6813 c -6.0278,0 -7.3871,3.4547 -7.3871,7.2987 v 13.139 h 3.6801 v -12.901 c 0,-2.532 0.793,-4.32 3.963,-4.32 2.83,0 4.017,1.252 4.017,4.678 v 12.543 h 3.652 v -12.305 c 0,-5.482 -2.886,-8.1327 -7.925,-8.1327" /><path
       inkscape:connector-curvature="0"
       id="path16"
       style="fill:#ffffff;fill-opacity:1;fill-rule:nonzero;stroke:none;stroke-width:0.1"
       d="m 126.483,99.0082 c 0,0 -7.104,13.1688 -7.67,14.4798 0.113,-1.729 0.17,-4.887 0.17,-7.299 v -7.1808 h -3.566 v 20.1108 h 4.783 c 0,0 6.962,-12.811 7.669,-14.33 -0.14,2.025 -0.197,5.6 -0.197,8.074 v 6.256 h 3.564 V 99.0082 h -4.753" /><path
       inkscape:connector-curvature="0"
       id="path18"
       style="fill:#ffffff;fill-opacity:1;fill-rule:nonzero;stroke:none;stroke-width:0.1"
       d="m 135.568,99.0082 v 20.1108 h 3.678 V 99.0082 h -3.678" /><path
       inkscape:connector-curvature="0"
       id="path20"
       style="fill:#ffffff;fill-opacity:1;fill-rule:nonzero;stroke:none;stroke-width:0.1"
       d="m 152.488,99.0082 h -4.246 l -6.65,20.1108 h 4.019 l 3.707,-11.768 c 0.368,-1.133 0.793,-2.474 1.133,-3.933 h 0.057 c 0.283,1.371 0.594,2.472 1.131,4.171 l 3.765,11.53 h 3.764 l -6.68,-20.1108" /><path
       inkscape:connector-curvature="0"
       id="path22"
       style="fill:#ffffff;fill-opacity:1;fill-rule:nonzero;stroke:none;stroke-width:0.1"
       d="m 161.68,99.0082 v 20.1108 h 10.498 v -3.248 h -6.78 v -4.946 h 6.436 v -3.158 h -6.436 v -5.451 h 6.78 V 99.0082 H 161.68" /><path
       inkscape:connector-curvature="0"
       id="path24"
       style="fill:#ffffff;fill-opacity:1;fill-rule:nonzero;stroke:none;stroke-width:0.1"
       d="m 181.283,116.08 c -0.537,0 -1.074,-0.03 -1.443,-0.09 v -5.809 c 0.256,-0.03 0.765,-0.06 1.33,-0.06 2.209,0 3.566,1.192 3.566,3.069 0,1.937 -1.131,2.89 -3.453,2.89 z m 4.02,-17.0718 -5.321,8.3128 h -0.142 v -8.3128 h -3.68 v 20.1108 c 1.5,0.09 3.283,0.119 5.492,0.119 4.217,0 6.934,-1.549 6.934,-5.66 0,-2.981 -1.981,-5.125 -4.867,-5.602 0.537,-0.744 1.074,-1.519 1.556,-2.205 l 4.584,-6.7628 h -4.556" /><path
       inkscape:connector-curvature="0"
       id="path26"
       style="fill:#ffffff;fill-opacity:1;fill-rule:nonzero;stroke:none;stroke-width:0.1"
       d="m 196.08,98.6813 c -1.357,0 -2.717,0.1484 -3.906,0.4765 l 0.226,3.6042 c 1.077,-0.387 2.606,-0.715 3.993,-0.715 1.867,0 3.31,0.804 3.31,2.652 0,3.844 -8.01,2.086 -8.01,8.699 0,3.576 2.69,6.049 7.274,6.049 1.076,0 2.322,-0.15 3.453,-0.358 l -0.197,-3.396 c -1.077,0.327 -2.264,0.536 -3.426,0.536 -2.121,0 -3.197,-1.013 -3.197,-2.443 0,-3.605 8.039,-2.265 8.039,-8.551 0,-3.784 -2.86,-6.5537 -7.559,-6.5537" /><path
       inkscape:connector-curvature="0"
       id="path28"
       style="fill:#ffffff;fill-opacity:1;fill-rule:nonzero;stroke:none;stroke-width:0.1"
       d="m 206.609,99.0082 v 20.1108 h 3.68 V 99.0082 h -3.68" /><path
       inkscape:connector-curvature="0"
       id="path30"
       style="fill:#ffffff;fill-opacity:1;fill-rule:nonzero;stroke:none;stroke-width:0.1"
       d="M 221.439,115.812 V 99.0082 h -3.679 v 16.8038 h -4.953 v 3.307 h 13.586 v -3.307 h -4.954" /><path
       inkscape:connector-curvature="0"
       id="path32"
       style="fill:#ffffff;fill-opacity:1;fill-rule:nonzero;stroke:none;stroke-width:0.1"
       d="m 233.381,120.429 -1.311,2.176 5.213,3.277 1.58,-2.622 z m -4.082,-21.4208 v 20.1108 h 10.933 v -3.248 h -7.06 v -4.946 h 6.703 v -3.158 h -6.703 v -5.451 h 7.06 v -3.3078 h -10.933" /><path
       inkscape:connector-curvature="0"
       id="path34"
       style="fill:#ffffff;fill-opacity:1;fill-rule:nonzero;stroke:none;stroke-width:0.1"
       d="m 102.813,83.9059 c -0.895,0 -1.729,-0.0305 -2.355,-0.0899 V 70.2602 c 0.537,-0.0887 1.341,-0.1493 2.115,-0.1493 3.785,0 6.525,2.1454 6.525,6.9121 0,4.3204 -1.697,6.8829 -6.285,6.8829 z m -0.627,-17.1016 c -2.086,0 -3.9024,0.0898 -5.6016,0.1484 v 20.0508 c 1.5801,0.0606 4.0236,0.1492 6.4966,0.1492 6.226,0 10.189,-2.7703 10.189,-9.8308 0,-6.9121 -4.529,-10.5176 -11.084,-10.5176" /><path
       inkscape:connector-curvature="0"
       id="path36"
       style="fill:#ffffff;fill-opacity:1;fill-rule:nonzero;stroke:none;stroke-width:0.1"
       d="m 115.891,66.9234 v 20.1102 h 10.934 v -3.2469 h -7.061 v -4.9453 h 6.703 v -3.1582 h -6.703 v -5.4531 h 7.061 v -3.3067 h -10.934" /><path
       inkscape:connector-curvature="0"
       id="path38"
       style="fill:#ffffff;fill-opacity:1;fill-rule:nonzero;stroke:none;stroke-width:0.1"
       d="m 154.563,82.8629 c -1.61,0.625 -3.458,1.0125 -5.334,1.0125 -3.963,0 -6.823,-2.5027 -6.823,-7.0008 0,-4.2609 2.324,-6.7637 6.407,-6.7637 0.953,0 1.787,0.1192 2.56,0.3575 v 7.0019 h 3.873 v -9.5937 c -1.996,-0.8047 -4.469,-1.2512 -6.881,-1.2512 -6.377,0 -10.16,3.7539 -10.16,9.8918 0,6.3164 4.291,10.8144 11.262,10.8144 1.996,0 3.963,-0.3574 5.691,-0.8632 l -0.595,-3.6055" /><path
       inkscape:connector-curvature="0"
       id="path40"
       style="fill:#ffffff;fill-opacity:1;fill-rule:nonzero;stroke:none;stroke-width:0.1"
       d="m 159.357,66.9234 v 20.1102 h 10.936 v -3.2469 h -7.063 v -4.9453 h 6.706 v -3.1582 h -6.706 v -5.4531 h 7.063 v -3.3067 h -10.936" /><path
       inkscape:connector-curvature="0"
       id="path42"
       style="fill:#ffffff;fill-opacity:1;fill-rule:nonzero;stroke:none;stroke-width:0.1"
       d="m 186.248,66.9234 c 0,0 -7.762,13.168 -8.357,14.4793 0.119,-1.7273 0.179,-4.8855 0.179,-7.2996 v -7.1797 h -3.754 v 20.1102 h 4.752 c 0,0 7.612,-12.8113 8.356,-14.3309 -0.149,2.0262 -0.207,5.6016 -0.207,8.0743 v 6.2566 h 3.754 V 66.9234 h -4.723" /><path
       inkscape:connector-curvature="0"
       id="path44"
       style="fill:#ffffff;fill-opacity:1;fill-rule:nonzero;stroke:none;stroke-width:0.1"
       d="m 201.637,88.3148 -5.483,2.8301 1.639,2.6516 5.184,-3.2774 z m -6.645,-21.3914 v 20.1102 h 10.934 v -3.2469 h -7.061 v -4.9453 h 6.703 v -3.1582 h -6.703 v -5.4531 h 7.061 v -3.3067 h -10.934" /><path
       inkscape:connector-curvature="0"
       id="path46"
       style="fill:#ffffff;fill-opacity:1;fill-rule:nonzero;stroke:none;stroke-width:0.1"
       d="m 219.779,66.9234 h -4.468 l -7.002,20.1102 h 4.23 l 3.904,-11.7684 c 0.387,-1.132 0.834,-2.4726 1.192,-3.9328 h 0.058 c 0.299,1.3703 0.627,2.4739 1.194,4.1711 l 3.961,11.5301 h 3.963 l -7.032,-20.1102" /><path
       inkscape:connector-curvature="0"
       id="path48"
       style="fill:#ffffff;fill-opacity:1;fill-rule:nonzero;stroke:none;stroke-width:0.1"
       d="m 229.344,66.9234 v 20.1102 h 10.933 v -3.2469 h -7.06 v -4.9453 h 6.703 v -3.1582 h -6.703 v -5.4531 h 7.06 v -3.3067 h -10.933" /><path
       inkscape:connector-curvature="0"
       id="path50"
       style="fill:#ffffff;fill-opacity:1;fill-rule:nonzero;stroke:none;stroke-width:0.1"
       d="m 27.6957,117.211 1.7063,-2.206 1.2523,0.969 -2.7789,3.592 -0.9809,-0.758 c 0.3899,-0.605 -0.1695,-1.334 -0.8593,-1.851 l 0.4984,-0.645 1.1621,0.899" /><path
       inkscape:connector-curvature="0"
       id="path52"
       style="fill:#ffffff;fill-opacity:1;fill-rule:nonzero;stroke:none;stroke-width:0.1"
       d="m 32.225,119.284 c 0.0863,0.351 0.3355,0.559 0.7109,0.753 0.5481,0.281 1.0004,0.17 1.2032,-0.225 0.2023,-0.394 -0.0578,-0.849 -0.5743,-1.115 -0.3992,-0.205 -0.9636,-0.261 -1.1355,0.055 l -1.3301,-0.684 c 0.575,-0.928 1.6867,-0.781 2.8766,-0.171 1.2676,0.651 1.9816,1.648 1.4699,2.644 -0.4316,0.841 -1.3875,0.951 -2.5066,0.377 -0.4153,-0.213 -0.7426,-0.5 -0.9157,-0.838 l -0.0156,-0.007 -0.175,0.841 2.4188,1.241 -0.4289,0.835 -3.4434,-1.768 0.6406,-2.558 1.2051,0.62" /><path
       inkscape:connector-curvature="0"
       id="path54"
       style="fill:#ffffff;fill-opacity:1;fill-rule:nonzero;stroke:none;stroke-width:0.1"
       d="m 61.0707,120.68 c -0.416,0.21 -0.8398,0.308 -1.2148,0.249 l -0.0157,0.008 0.5778,0.635 2.4258,-1.225 0.4234,0.837 -3.4547,1.745 -1.6918,-2.021 1.2094,-0.612 c 0.3347,0.138 0.6504,0.059 1.0269,-0.13 0.5496,-0.279 0.7254,-0.711 0.5258,-1.106 -0.1996,-0.396 -0.7219,-0.453 -1.2398,-0.191 -0.4004,0.202 -0.7778,0.627 -0.6239,0.95 l -1.3343,0.675 c -0.4121,-1.012 0.359,-1.824 1.5523,-2.428 1.2723,-0.643 2.4984,-0.635 3.0039,0.365 0.4262,0.844 -0.0472,1.682 -1.1703,2.249" /><path
       inkscape:connector-curvature="0"
       id="path56"
       style="fill:#ffffff;fill-opacity:1;fill-rule:nonzero;stroke:none;stroke-width:0.1"
       d="m 66.4141,117.013 c -0.2508,-0.324 -0.7602,-0.35 -1.2618,0.037 -0.4867,0.377 -0.5761,0.866 -0.3168,1.2 0.2309,0.3 0.7614,0.31 1.2067,-0.035 0.5082,-0.392 0.6187,-0.881 0.3719,-1.202 z m 0.1574,1.93 c -1.0094,0.78 -2.2652,0.91 -2.859,0.143 -0.5414,-0.702 -0.2828,-1.733 0.6777,-2.476 0.4172,-0.323 0.9536,-0.564 1.384,-0.452 l 0.0145,-0.011 c -0.3946,-0.453 -0.9629,-0.714 -1.6032,-0.219 -0.1464,0.113 -0.2792,0.257 -0.3539,0.406 -0.0789,0.142 -0.1011,0.3 -0.0418,0.435 l -1.1062,0.856 c -0.3473,-0.795 0.0504,-1.604 0.934,-2.287 1.5457,-1.194 2.8121,-0.749 3.6133,0.287 0.7453,0.964 0.7531,2.226 -0.6594,3.318" /><path
       inkscape:connector-curvature="0"
       id="path58"
       style="fill:#ffffff;fill-opacity:1;fill-rule:nonzero;stroke:none;stroke-width:0.1"
       d="m 16.4102,100.319 c 0.7968,-0.264 1.3824,0.505 1.8464,1.306 0.4676,0.809 0.8149,1.649 1.1551,1.537 0.2899,-0.096 0.2387,-0.543 0.1281,-0.877 -0.1585,-0.477 -0.4574,-0.944 -0.8507,-0.785 l -0.5149,-1.5523 c 0.9992,-0.3223 1.8215,0.7293 2.2141,1.9163 0.3715,1.12 0.4281,2.554 -0.5363,2.874 -0.8106,0.268 -1.3915,-0.531 -1.8532,-1.322 -0.4644,-0.8 -0.8195,-1.628 -1.2101,-1.498 -0.3278,0.109 -0.2907,0.634 -0.1356,1.102 0.2176,0.658 0.5289,1.037 1.0594,0.898 l 0.5148,1.554 c -1.1351,0.366 -1.9808,-0.697 -2.4351,-2.065 -0.4336,-1.311 -0.5016,-2.717 0.618,-3.088" /><path
       inkscape:connector-curvature="0"
       id="path60"
       style="fill:#ffffff;fill-opacity:1;fill-rule:nonzero;stroke:none;stroke-width:0.1"
       d="m 15.8984,92.4918 0.125,1.6309 c -0.5289,0.1023 -0.8199,0.5664 -0.7613,1.33 0.082,1.0516 0.802,1.4024 1.4906,1.3485 0.6887,-0.0535 1.3457,-0.5098 1.2649,-1.5614 -0.0524,-0.6847 -0.3375,-1.1574 -0.8121,-1.2082 l -0.1258,-1.6308 c 1.1211,-0.0438 1.8711,1.3722 1.9738,2.7246 0.1473,1.8926 -0.8305,3.2031 -2.175,3.3066 -1.3449,0.1035 -2.5117,-1.041 -2.6582,-2.9355 -0.1219,-1.5879 0.4887,-2.827 1.6781,-3.0047" /><path
       inkscape:connector-curvature="0"
       id="path62"
       style="fill:#ffffff;fill-opacity:1;fill-rule:nonzero;stroke:none;stroke-width:0.1"
       d="m 19.4797,87.2387 -1.6707,-0.286 -0.3656,2.1231 1.6699,0.2871 -0.2778,1.6133 -4.5851,-0.7903 0.2777,-1.6132 1.8883,0.3261 0.3656,-2.1238 -1.8879,-0.3262 0.2782,-1.6125 4.5843,0.7903 -0.2769,1.6121" /><path
       inkscape:connector-curvature="0"
       id="path64"
       style="fill:#ffffff;fill-opacity:1;fill-rule:nonzero;stroke:none;stroke-width:0.1"
       d="m 19.8004,79.3648 c -0.6305,-0.2824 -1.4254,-0.1964 -1.8578,0.7676 -0.4321,0.9629 0.0336,1.6153 0.6633,1.8973 0.6304,0.2812 1.4257,0.1953 1.8582,-0.7676 0.432,-0.9629 -0.0325,-1.6152 -0.6637,-1.8973 z m 1.6152,2.3243 c -0.8101,1.8054 -2.2476,2.3855 -3.4793,1.8339 -1.23,-0.5527 -1.7539,-2.0117 -0.9441,-3.8183 0.8098,-1.8059 2.2465,-2.384 3.4773,-1.8332 1.2317,0.5519 1.7551,2.0109 0.9461,3.8176" /><path
       inkscape:connector-curvature="0"
       id="path66"
       style="fill:#ffffff;fill-opacity:1;fill-rule:nonzero;stroke:none;stroke-width:0.1"
       d="m 24.3027,76.5426 -0.9914,1.3027 -3.7008,-2.8183 2.7649,-3.6329 0.8293,0.6309 -1.7734,2.3309 2.8714,2.1867" /><path
       inkscape:connector-curvature="0"
       id="path68"
       style="fill:#ffffff;fill-opacity:1;fill-rule:nonzero;stroke:none;stroke-width:0.1"
       d="m 27.302,69.1773 -1.0809,0.9286 1.6016,0.7714 0.0136,-0.0105 z m -4.0723,1.2129 1.2754,-1.0949 0.8429,0.375 1.6618,-1.4277 -0.2496,-0.8836 1.2945,-1.1125 1.2488,5.0598 -1.2605,1.0828 -4.8133,-1.9989" /><path
       inkscape:connector-curvature="0"
       id="path70"
       style="fill:#ffffff;fill-opacity:1;fill-rule:nonzero;stroke:none;stroke-width:0.1"
       d="m 41.0059,64.7535 c 0.6461,-0.134 1.114,-0.4765 1.0847,-0.8769 l 1.6024,-0.3321 c 0.0902,1.1727 -1.166,1.959 -2.441,2.2235 -1.8602,0.3859 -3.2848,-0.418 -3.5586,-1.7383 -0.2735,-1.3203 0.7136,-2.6231 2.5742,-3.0086 0.5687,-0.1184 1.3242,-0.1152 1.8375,0.2371 l -0.0082,-0.5164 1.0332,-0.2148 0.5176,2.4949 -2.584,0.5351 -0.1828,-0.8797 1.1203,-0.2324 c -0.1727,-0.3965 -0.7641,-0.5605 -1.5563,-0.3957 -1.0332,0.2141 -1.2894,0.9727 -1.1496,1.6485 0.1406,0.6757 0.677,1.2707 1.7106,1.0558" /><path
       inkscape:connector-curvature="0"
       id="path72"
       style="fill:#ffffff;fill-opacity:1;fill-rule:nonzero;stroke:none;stroke-width:0.1"
       d="m 47.7512,61.484 -0.0449,0.8848 3.0746,0.1562 -0.0481,0.9375 -3.0746,-0.1574 -0.041,0.8137 3.3641,0.1718 -0.0493,0.9696 -4.9984,-0.2539 0.2363,-4.6465 5.0864,0.2578 -0.0528,1.041 -3.4523,-0.1746" /><path
       inkscape:connector-curvature="0"
       id="path74"
       style="fill:#ffffff;fill-opacity:1;fill-rule:nonzero;stroke:none;stroke-width:0.1"
       d="m 56.3848,66.7016 0.8523,-2.7371 -0.0164,-0.0051 -2.9352,2.089 -1.6042,-0.5 1.3832,-4.4425 1.4699,0.4582 -0.8625,2.7683 0.0172,0.0059 2.9449,-2.1199 1.6043,0.5 -1.3836,4.4414 -1.4699,-0.4582" /><path
       inkscape:connector-curvature="0"
       id="path76"
       style="fill:#ffffff;fill-opacity:1;fill-rule:nonzero;stroke:none;stroke-width:0.1"
       d="m 62.8461,65.7613 -0.4656,0.7539 2.6183,1.618 -0.4925,0.7981 -2.6196,-1.6184 -0.4281,0.6934 2.8668,1.7707 -0.5106,0.8261 -4.2582,-2.6308 2.4454,-3.9582 4.3324,2.6769 -0.5473,0.8867 -2.941,-1.8164" /><path
       inkscape:connector-curvature="0"
       id="path78"
       style="fill:#ffffff;fill-opacity:1;fill-rule:nonzero;stroke:none;stroke-width:0.1"
       d="m 67.7078,74.268 1.5891,-3.3114 -0.0121,-0.0128 -3.3239,1.5636 -1.2015,-1.2121 4.6969,-1.8711 1.3253,1.336 -1.8711,4.7187 -1.2027,-1.2109" /><path
       inkscape:connector-curvature="0"
       id="path80"
       style="fill:#ffffff;fill-opacity:1;fill-rule:nonzero;stroke:none;stroke-width:0.1"
       d="m 73.5891,76.0512 -0.7578,0.4601 1.5964,2.6317 -0.8027,0.4863 -1.5961,-2.6316 -0.6965,0.4226 1.7469,2.8801 -0.8305,0.5039 -2.5949,-4.2805 3.9777,-2.4121 2.6414,4.3555 -0.8917,0.5402 -1.7922,-2.9562" /><path
       inkscape:connector-curvature="0"
       id="path82"
       style="fill:#ffffff;fill-opacity:1;fill-rule:nonzero;stroke:none;stroke-width:0.1"
       d="m 74.1145,86.1441 2.7449,-0.8273 -0.0043,-0.0164 -3.375,-1.2617 -0.4852,-1.6086 4.4555,-1.3426 0.4441,1.4734 -2.7769,0.8371 0.0054,0.0165 3.4059,1.2531 0.4844,1.6082 -4.4547,1.3418 -0.4441,-1.4735" /><path
       inkscape:connector-curvature="0"
       id="path84"
       style="fill:#ffffff;fill-opacity:1;fill-rule:nonzero;stroke:none;stroke-width:0.1"
       d="m 78.25,94.4633 c -0.8398,0.0371 -1.193,-0.8621 -1.4219,-1.7598 -0.2289,-0.9051 -0.334,-1.8074 -0.6926,-1.7918 -0.3058,0.0137 -0.3773,0.4571 -0.3617,0.8086 0.0223,0.5008 0.1825,1.0313 0.6047,0.9852 l 0.0727,1.6347 c -1.0489,0.0383 -1.5532,-1.1992 -1.6094,-2.4472 -0.0523,-1.1778 0.2844,-2.5742 1.2992,-2.6192 0.8531,-0.0379 1.1942,0.8887 1.4231,1.7766 0.2289,0.8973 0.3464,1.7898 0.7566,1.7723 0.3453,-0.0157 0.4523,-0.5313 0.4309,-1.0235 -0.0309,-0.6941 -0.2274,-1.1433 -0.7754,-1.1543 l -0.0723,-1.6347 c 1.1914,-0.0438 1.7168,1.2101 1.7809,2.6503 0.0613,1.3809 -0.2567,2.75 -1.4348,2.8028" /><path
       inkscape:connector-curvature="0"
       id="path86"
       style="fill:#ffffff;fill-opacity:1;fill-rule:nonzero;stroke:none;stroke-width:0.1"
       d="m 74.7969,96.3598 4.6051,0.664 -0.2336,1.6192 -4.6047,-0.6629 0.2332,-1.6203" /><path
       inkscape:connector-curvature="0"
       id="path88"
       style="fill:#ffffff;fill-opacity:1;fill-rule:nonzero;stroke:none;stroke-width:0.1"
       d="m 75.5309,100.254 c 0.807,0.277 0.7843,1.264 0.6726,2.174 -0.1156,0.918 -0.3328,1.792 0.0559,1.926 0.3261,0.112 0.6152,-0.328 0.775,-0.794 0.2254,-0.658 0.2074,-1.147 -0.2985,-1.358 l 0.5309,-1.548 c 1.125,0.395 1.1551,1.754 0.6863,3.119 -0.4476,1.306 -1.2453,2.464 -2.3601,2.082 -0.795,-0.273 -0.7942,-1.239 -0.6793,-2.158 0.1179,-0.927 0.3504,-1.805 0.0117,-1.921 -0.2899,-0.099 -0.5191,0.287 -0.6328,0.619 -0.1625,0.475 -0.2074,1.026 0.2019,1.14 l -0.5316,1.547 c -0.9887,-0.348 -1.0059,-1.684 -0.6008,-2.866 0.3824,-1.115 1.2067,-2.2926 2.1688,-1.962" /><path
       inkscape:connector-curvature="0"
       id="path90"
       style="fill:#ffffff;fill-opacity:1;fill-rule:nonzero;stroke:none;stroke-width:0.1"
       d="m 32.2355,66.3051 c -0.3695,-0.4891 -0.2707,-1.1856 0.2188,-1.5547 0.4895,-0.3699 1.1852,-0.2715 1.5535,0.218 0.3699,0.4902 0.2727,1.1855 -0.2168,1.5546 -0.4906,0.3692 -1.1863,0.2715 -1.5555,-0.2179" /><path
       inkscape:connector-curvature="0"
       id="path92"
       style="fill:#ffffff;fill-opacity:1;fill-rule:nonzero;stroke:none;stroke-width:0.1"
       d="m 23.1531,110.632 c 0.3614,0.497 0.2532,1.19 -0.2422,1.551 -0.4961,0.362 -1.189,0.254 -1.5515,-0.242 -0.3614,-0.496 -0.2531,-1.189 0.2422,-1.551 0.4961,-0.361 1.1906,-0.253 1.5515,0.242" /><path
       inkscape:connector-curvature="0"
       id="path94"
       style="fill:#ffffff;fill-opacity:1;fill-rule:nonzero;stroke:none;stroke-width:0.1"
       d="m 70.3652,111.941 c -0.3613,-0.496 -0.2531,-1.189 0.2434,-1.551 0.4949,-0.361 1.1894,-0.253 1.5508,0.242 0.3609,0.497 0.2527,1.19 -0.2422,1.551 -0.4961,0.362 -1.1899,0.254 -1.552,-0.242" /><path
       inkscape:connector-curvature="0"
       id="path96"
       style="fill:#ffffff;fill-opacity:1;fill-rule:nonzero;stroke:none;stroke-width:0.1"
       d="m 49.5906,124.046 -0.9011,-1.412 h 2.2058 v 0.684 l -0.8687,-0.004 0.4812,0.719 -0.4812,0.742 0.8535,0.005 v 0.675 h -2.1906 l 0.9011,-1.409" /><path
       inkscape:connector-curvature="0"
       id="path98"
       style="fill:#ffffff;fill-opacity:1;fill-rule:nonzero;stroke:none;stroke-width:0.1"
       d="m 44.823,123.314 -0.5437,-0.006 v 1.472 l 0.5059,-0.005 v 0.68 h -1.8145 v -0.68 l 0.5039,0.005 v -1.472 l -0.5371,0.006 v -0.68 h 1.8855 v 0.68" /><path
       inkscape:connector-curvature="0"
       id="path100"
       style="fill:#ffffff;fill-opacity:1;fill-rule:nonzero;stroke:none;stroke-width:0.1"
       d="m 47.3918,124.461 h -1.1484 l 0.0046,1.003 h -0.8417 v -2.83 h 0.8417 l -0.0046,1.125 h 1.1484 v -1.125 h 0.8395 v 2.83 h -0.8395 v -1.003" /><path
       inkscape:connector-curvature="0"
       id="path102"
       style="fill:#ffffff;fill-opacity:1;fill-rule:nonzero;stroke:none;stroke-width:0.1"
       d="m 46.4641,127.138 c 0,0.213 0.1531,0.348 0.3757,0.348 0.2,0 0.3497,-0.152 0.3497,-0.348 l 0.0109,-1 h 1.5691 v 0.84 h -0.9621 l -0.0039,0.215 c -0.0055,0.602 -0.284,1.088 -0.9695,1.088 -0.5266,0 -0.8906,-0.295 -0.9551,-0.801 -0.0117,-0.107 -0.0117,-0.221 -0.0117,-0.331 v -0.171 h -0.9609 l -8e-4,-0.84 h 1.5562 l 0.0024,1" /><path
       inkscape:connector-curvature="0"
       id="path104"
       style="fill:#ffffff;fill-opacity:1;fill-rule:nonzero;stroke:none;stroke-width:0.1"
       d="m 46.8398,121.97 c -0.2785,0 -0.5046,-0.226 -0.5046,-0.506 0,-0.278 0.2261,-0.505 0.5046,-0.505 0.2793,0 0.5059,0.227 0.5059,0.505 0,0.28 -0.2266,0.506 -0.5059,0.506" /><path
       inkscape:connector-curvature="0"
       id="path106"
       style="fill:#ffffff;fill-opacity:1;fill-rule:nonzero;stroke:none;stroke-width:0.1"
       d="m 46.7727,58.8852 c -18.886,0 -34.25,15.3652 -34.25,34.2511 0,16.7067 12.0269,30.6507 27.8773,33.6467 l 0.477,-0.588 -4.1153,-1.57 4.1133,-1.573 -2.7781,-3.418 4.3484,0.694 -0.1441,-0.898 C 29.7148,117.296 20.0969,106.321 20.0969,93.1363 c 0,-14.709 11.9668,-26.6769 26.6758,-26.6769 14.7086,0 26.6753,11.9679 26.6753,26.6769 0,13.1777 -9.6062,24.1477 -22.1824,26.2907 l -0.1187,0.881 4.2359,-0.679 -2.6648,3.461 4.0039,1.53 -4.05,1.651 0.4238,0.522 c 15.8731,-2.977 27.927,-16.932 27.927,-33.6567 0,-18.8859 -15.3649,-34.2511 -34.25,-34.2511 z m -5.0247,53.8118 0.6165,1.047 h -2.5461 l 0.2976,1.088 c 0,0.525 -0.4246,0.951 -0.95,0.951 -0.1273,0 -0.2484,-0.027 -0.3594,-0.072 0.0211,0.095 0.0352,0.186 0.0352,0.255 0,0.346 -0.2805,0.627 -0.6262,0.627 -0.3457,0 -0.6265,-0.281 -0.6265,-0.627 0,-0.069 0.014,-0.16 0.0347,-0.255 -0.1105,0.045 -0.2312,0.072 -0.3582,0.072 -0.5254,0 -0.9504,-0.426 -0.9504,-0.951 l 0.2969,-1.088 h -0.6707 c -0.4609,0 -0.8445,-0.328 -0.9316,-0.762 -0.1399,0.039 -0.2864,0.063 -0.4375,0.063 -0.8633,0 -1.5625,-0.7 -1.5625,-1.563 0,-0.269 0.0695,-0.523 0.1882,-0.744 0.2649,0.488 0.7805,0.819 1.3735,0.819 0.532,0 1.0008,-0.266 1.2832,-0.673 0.0332,-0.046 0.0633,-0.095 0.0906,-0.146 0.0813,-0.15 0.127,-0.318 0.1555,-0.492 h -3.1606 c -0.8632,0 -1.5625,0.701 -1.5625,1.562 v -0.326 -0.353 -0.327 c 0,-0.863 0.6993,-1.562 1.5625,-1.562 h 2.9953 c -0.2667,-0.479 -0.7761,-0.803 -1.364,-0.803 -0.0305,0 -0.061,0.002 -0.0918,0.004 0.282,-0.408 0.7527,-0.676 1.2871,-0.676 0.6668,0 1.2352,0.419 1.459,1.008 h 4.2312 c 0.8621,0 1.5625,-0.699 1.5625,-1.562 0,-0.401 0.002,-0.966 -0.3984,-1.395 l -0.3898,-0.585 -2.6653,-4.113 c -0.4863,-0.714 -1.4582,-0.898 -2.1719,-0.411 -0.7121,0.486 -0.8996,1.488 -0.4132,2.201 0.6203,0.344 0.8632,1.058 0.7476,1.801 -0.1433,0.918 -0.9824,1.549 -1.8965,1.457 l -0.5254,0.011 c -3.3418,0 -5.8375,2.26 -6.1828,5.463 3.527,3.365 8.0102,5.733 12.995,6.653 l -0.3708,-2.313 3.3969,2.758 1.1461,-2.947 v -4.562 z M 28.0293,76.3512 c 0.0336,0.1414 0.1195,0.2617 0.2434,0.3398 l 3.2671,1.8457 0.9149,-0.9406 -0.0133,-0.0106 0.225,-0.207 0.168,-0.1719 0.0101,0.0079 1.1672,-1.0723 c 0.2035,-0.2051 0.2035,-0.5527 -0.0097,-0.7656 -0.1032,-0.1028 -0.2407,-0.1602 -0.3868,-0.1602 H 32.959 l 0.8308,-0.8293 h 0.1125 c 0.5786,-8e-4 1.1227,0.2258 1.5325,0.634 0.409,0.4102 0.6343,0.9531 0.6343,1.5332 0,1.1523 -0.9058,2.0879 -2.0418,2.1543 -0.2546,0.2559 -0.6195,0.6191 -0.8007,0.8008 0.5199,0.3301 9.5754,6.0761 10.4183,6.6101 -0.2836,-3.1668 -3.016,-6.8836 -5.5941,-9.1113 -1.1797,-1.1797 -1.6328,-2.4961 -1.6328,-3.6367 0,-1.0067 0.3531,-1.8758 0.8707,-2.3934 0.4535,-0.4531 1.1445,-0.5898 1.7191,-0.3371 l 0.3633,0.1594 -0.2809,0.2812 c -0.457,0.4571 -0.6195,1.2539 -0.6195,1.8477 0,1.1914 0.3074,1.7969 0.8832,2.4219 0.1223,-0.1211 0.3785,-0.3782 0.7383,-0.7383 -0.2438,-0.6582 -0.3609,-1.3223 -0.3609,-1.959 0,-1.2734 0.45,-2.4277 1.1941,-3.1719 0.1551,-0.1554 1.8047,-1.5234 2.498,-1.291 l 0.4965,0.168 -0.4226,0.3086 c -0.2422,0.1777 -1.0227,1.0867 -1.2871,1.6414 -0.2122,0.4433 -0.3379,0.9758 -0.3379,1.5383 0,0.9062 0.3703,1.9558 1.1902,2.7754 0.0434,0.0644 1.8508,4.5234 2.7727,6.6718 3e-4,-0.0488 0.0011,-0.4218 0.0011,-0.4218 0.0059,-0.5059 0.0114,-1.0059 0.0114,-1.4961 0,-2.595 -0.1575,-4.8985 -1.2985,-6.0403 -0.709,-0.709 -2.0273,-1.084 -2.0273,-1.084 L 42.8637,71.85 c 0.0332,-0.0379 0.5816,-0.8828 1.4683,-0.9109 0.2114,-0.0078 0.3782,0.1347 0.5621,0.2214 0.0461,-2.032 0.4289,-2.8289 1.1122,-3.5945 -6.8168,0.2012 -12.9727,3.077 -17.4489,7.618 l -0.4597,0.7551 c -0.0547,0.0867 -0.0825,0.1855 -0.0825,0.2871 0,0.041 0.0047,0.0828 0.0141,0.125 z m -1.9848,2.2734 c 0,0.1602 0.0641,0.3301 0.184,0.457 0.1246,0.1387 0.2949,0.2168 0.4809,0.2247 l 1.5586,-0.004 c -0.7785,-0.1777 -1.45,-0.6894 -1.8192,-1.4199 -0.191,0.2774 -0.3843,0.5899 -0.4043,0.7207 0,0.0078 0,0.0157 0,0.0215 z m -2.9504,20.1856 c 0,0 3.1664,0.5906 6.6129,1.2328 -0.0261,-0.1782 -0.025,-0.3617 0.045,-0.5414 0.046,-0.1192 0.1179,-0.2168 0.196,-0.3067 l -6.5132,-2.5363 c -0.911,-0.5555 -1.1743,-1.6746 -0.6489,-2.5234 0.2539,-0.411 0.6536,-0.6981 1.1243,-0.8094 0.4707,-0.1113 0.957,-0.0313 1.3679,0.2226 l 5.7231,3.5371 c 0.0394,-0.1757 0.1066,-0.3457 0.2371,-0.4882 0.0847,-0.0938 0.1879,-0.1602 0.2933,-0.216 l -5.1589,-4.7157 c -0.6481,-0.8476 -0.4903,-1.9855 0.305,-2.5879 0.7965,-0.6027 1.9352,-0.4445 2.5375,0.3516 l 4.1063,5.4258 c 0.0945,-0.1485 0.214,-0.2824 0.3836,-0.3672 0.0902,-0.0449 0.1855,-0.0586 0.2797,-0.0754 0.0207,-0.0145 0.039,-0.0301 0.059,-0.0437 L 31.1832,88.607 c -0.291,-0.9953 0.25,-1.9687 1.1813,-2.2363 0.9308,-0.2648 1.9046,0.2762 2.1707,1.207 l 1.6511,5.7754 c 0.7106,-0.2129 1.4621,-0.3301 2.2414,-0.3301 0.6336,0 1.0504,0.0528 1.6407,0.1954 -0.0055,-1.043 -0.011,-2.0332 -0.0114,-2.125 -0.1386,-0.1504 -5.2468,-5.7012 -5.2468,-5.7012 -0.9,-0.7383 -1.2262,-0.7774 -1.8106,-0.1934 l -0.1699,0.17 -1.5961,-1.252 0.216,-0.2168 c 0.6012,-0.6016 1.1676,-1.0156 1.9328,-1.0898 -1.1105,-0.584 -2.057,-1.0832 -2.223,-1.17 -0.1727,0.1778 -0.9996,1.0352 -1.4364,1.4871 -0.0652,1.1368 -1.0023,2.0442 -2.1554,2.0442 -1.1949,0 -2.1672,-0.9719 -2.1672,-2.166 v -0.1133 l 0.8301,-0.8301 v 0.6563 c 0,0.1464 0.0566,0.2832 0.1597,0.3867 0.2133,0.2129 0.561,0.2129 0.7743,0 0,0 0.639,-0.6953 1.0644,-1.1582 l -0.0043,-0.0051 0.1715,-0.1766 C 28.5164,81.6344 28.6,81.5445 28.6,81.5445 l 0.0055,0.0059 0.4812,-0.4941 -0.6226,7e-4 c -0.4114,0.341 -0.9227,0.5227 -1.4602,0.5012 -0.5793,-0.0234 -1.1144,-0.2695 -1.5074,-0.6953 -0.2848,-0.3086 -0.466,-0.6856 -0.5375,-1.0899 -2.393,3.8926 -3.7766,8.4688 -3.7766,13.3633 0,2.0528 0.25,4.0477 0.709,5.9629 0.3191,-0.2734 0.7313,-0.3769 1.2027,-0.289 z m 2.3793,8.4898 c 0.7496,1.123 1.5864,2.184 2.4989,3.174 0.4597,-1.623 1.4672,-3.082 2.791,-4.129 -0.182,-0.11 -0.3395,-0.265 -0.4227,-0.48 -0.0523,-0.137 -0.0695,-0.277 -0.0629,-0.414 z m 4.177,-3.808 c -0.1352,-0.18 -0.2305,-0.393 -0.2305,-0.635 0,-0.17 0.0473,-0.324 0.1172,-0.467 l -6.6207,-0.013 c 0.291,0.75 0.6152,1.48 0.9731,2.193 z M 48.9855,84.5191 c 0,0.9325 0.6739,1.7032 1.559,1.8614 0.0746,-1.1067 0.9868,-1.9844 2.1125,-1.9844 h 4.2539 c 1.125,0 2.0379,0.8769 2.1125,1.9844 0.8825,-0.1621 1.5528,-0.9317 1.5528,-1.8614 0,-3.582 -2.4676,-5.7461 -5.7949,-6.5695 -3.327,0.8234 -5.7958,2.9875 -5.7958,6.5695 z m 3.8219,-8.1894 c -0.741,-0.2902 -1.2683,-1.007 -1.2683,-1.8496 0,-1.0977 0.8906,-1.9883 1.989,-1.9883 h 2.5051 c 1.0984,0 1.9895,0.8906 1.9895,1.9883 0,0.8426 -0.527,1.5594 -1.2684,1.8496 3.3898,1.1805 5.827,4.3965 5.827,8.1894 0,1.9629 -1.4547,3.5723 -3.3418,3.8446 v 1.4465 l -2.9719,2.7382 v 5.7032 h 1.7129 v -2.4102 h 2.8984 v 1.8223 h 2.1301 v -1.8223 h 2.898 v 6.4436 h -2.898 v -1.559 h -2.1301 v 1.559 h -2.4043 v 1.976 h 2.4043 v 1.558 h 2.1301 v -1.558 h 2.898 v 5.842 c 4.0141,-4.517 6.4551,-10.4608 6.4551,-16.9667 0,-13.9082 -11.1535,-25.2519 -24.9851,-25.5754 v 14.3743 c 0.8187,-2.6192 2.8453,-4.7051 5.4304,-5.6055 z m -1.3886,41.9553 c 5.4359,-1.002 10.2753,-3.722 13.9296,-7.58 H 63.009 v -1.746 h -2.1301 v 1.746 h -2.8984 v -2.412 h -1.7129 c 0,0 0.0117,3.671 0.0117,3.709 0,0.826 -0.6723,1.498 -1.4984,1.498 -0.8262,0 -1.4989,-0.672 -1.4989,-1.498 0,-0.038 0.0118,-19.4536 0.0118,-19.4536 L 50.3223,89.8102 V 88.3637 C 49.0156,88.1754 47.9297,87.3375 47.377,86.1949 V 115.83 l 0.9941,2.877 3.3586,-2.731 z m -4.5997,11.301 c 2.7547,0 4.9954,-2.241 4.9954,-4.995 0,-2.753 -2.2407,-4.994 -4.9954,-4.994 -2.7543,0 -4.9949,2.241 -4.9949,4.994 0,2.754 2.2406,4.995 4.9949,4.995 z m 7.8204,-0.893 0.7453,0.918 -4.3403,-0.639 0.6868,4.291 -3.42,-2.771 -1.5711,4.109 -1.5703,-4.111 -3.4133,2.777 0.6946,-4.349 -4.3504,0.697 0.7562,-0.932 C 22.5684,125.058 10.3508,110.5 10.3508,93.1363 c 0,-20.084 16.3387,-36.423 36.4219,-36.423 20.0828,0 36.4214,16.339 36.4214,36.423 0,17.3807 -12.2414,31.9497 -28.5546,35.5567" /><path
       inkscape:connector-curvature="0"
       id="path108"
       style="fill:#ffffff;stroke:#ffffff;stroke-width:1.10000002;stroke-linecap:butt;stroke-linejoin:miter;stroke-miterlimit:4;stroke-dasharray:none;stroke-opacity:1"
       d="M 340.926,58.4996 H 83.307" /><path
       inkscape:connector-curvature="0"
       id="path110"
       style="fill:#ffffff;fill-opacity:1;fill-rule:nonzero;stroke:none;stroke-width:0.1"
       d="M 98.5098,44.902 V 42.2922 H 101.78 V 40.6871 H 98.5098 V 36.427 h -1.95 v 10.125 h 5.4152 v -1.65 h -3.4652" /><path
       inkscape:connector-curvature="0"
       id="path112"
       style="fill:#ffffff;fill-opacity:1;fill-rule:nonzero;stroke:none;stroke-width:0.1"
       d="m 108.44,42.6969 c -0.195,0.5543 -0.345,1.05 -0.465,1.6203 h -0.015 c -0.12,-0.525 -0.285,-1.1102 -0.481,-1.6953 l -0.914,-2.5797 h 2.82 z m 2.16,-6.2699 -0.705,2.0699 H 106.07 L 105.365,36.427 H 103.4 l 3.54,10.125 h 2.205 l 3.615,-10.125 h -2.16" /><path
       inkscape:connector-curvature="0"
       id="path114"
       style="fill:#ffffff;fill-opacity:1;fill-rule:nonzero;stroke:none;stroke-width:0.1"
       d="m 118.925,36.2922 c -3.54,0 -4.68,2.3547 -4.68,4.875 0,3.209 1.68,5.459 5.069,5.459 0.721,0 1.486,-0.0891 2.145,-0.2692 l -0.209,-1.7699 c -0.66,0.1949 -1.351,0.2988 -2.041,0.2988 -1.889,0 -2.819,-1.4238 -2.819,-3.389 0,-2.2047 0.915,-3.4348 2.955,-3.4348 0.614,0 1.44,0.1801 1.965,0.4199 l 0.225,-1.7398 c -0.75,-0.2703 -1.665,-0.45 -2.61,-0.45" /><path
       inkscape:connector-curvature="0"
       id="path116"
       style="fill:#ffffff;fill-opacity:1;fill-rule:nonzero;stroke:none;stroke-width:0.1"
       d="m 128.029,36.2609 c -3.195,0 -3.915,1.7403 -3.915,3.6762 v 6.6149 h 1.95 v -6.4961 c 0,-1.2739 0.42,-2.1739 2.101,-2.1739 1.5,0 2.129,0.6289 2.129,2.3551 v 6.3149 h 1.935 v -6.195 c 0,-2.775 -1.529,-4.0961 -4.2,-4.0961" /><path
       inkscape:connector-curvature="0"
       id="path118"
       style="fill:#ffffff;fill-opacity:1;fill-rule:nonzero;stroke:none;stroke-width:0.1"
       d="m 135.229,36.427 v 10.125 h 1.951 v -8.4161 h 3.284 V 36.427 h -5.235" /><path
       inkscape:connector-curvature="0"
       id="path120"
       style="fill:#ffffff;fill-opacity:1;fill-rule:nonzero;stroke:none;stroke-width:0.1"
       d="M 146.314,44.8859 V 36.427 h -1.95 v 8.4589 h -2.625 v 1.6661 h 7.2 v -1.6661 h -2.625" /><path
       inkscape:connector-curvature="0"
       id="path122"
       style="fill:#ffffff;fill-opacity:1;fill-rule:nonzero;stroke:none;stroke-width:0.1"
       d="m 153.169,47.2121 -0.66,1.0938 2.625,1.6507 0.795,-1.3207 z M 151.114,36.427 v 10.125 h 5.505 v -1.6348 h -3.555 V 42.427 h 3.375 v -1.5899 h -3.375 V 38.091 h 3.555 v -1.664 h -5.505" /><path
       inkscape:connector-curvature="0"
       id="path124"
       style="fill:#ffffff;fill-opacity:1;fill-rule:nonzero;stroke:none;stroke-width:0.1"
       d="m 166.714,44.977 c -0.449,0 -0.87,-0.0149 -1.186,-0.0461 V 38.107 c 0.271,-0.0449 0.676,-0.075 1.066,-0.075 1.905,0 3.285,1.0801 3.285,3.4789 0,2.1762 -0.855,3.4661 -3.165,3.4661 z m -0.315,-8.6098 c -1.05,0 -1.964,0.0449 -2.82,0.075 v 10.0949 c 0.795,0.0301 2.025,0.075 3.27,0.075 3.134,0 5.13,-1.3961 5.13,-4.95 0,-3.4812 -2.28,-5.2949 -5.58,-5.2949" /><path
       inkscape:connector-curvature="0"
       id="path126"
       style="fill:#ffffff;fill-opacity:1;fill-rule:nonzero;stroke:none;stroke-width:0.1"
       d="m 174.483,36.427 v 10.125 h 5.506 v -1.6348 h -3.554 V 42.427 h 3.375 v -1.5899 h -3.375 V 38.091 h 3.554 v -1.664 h -5.506" /><path
       inkscape:connector-curvature="0"
       id="path128"
       style="fill:#ffffff;fill-opacity:1;fill-rule:nonzero;stroke:none;stroke-width:0.1"
       d="m 189.589,45.0219 c -0.24,0 -0.465,0 -0.691,-0.0149 v -3.375 c 0.196,-0.03 0.39,-0.0449 0.571,-0.0449 1.2,0.0149 2.024,0.6738 2.024,1.7699 0,1.0192 -0.584,1.6649 -1.904,1.6649 z m -0.03,-5.0559 c -0.181,0 -0.42,0 -0.661,0.0309 V 36.427 h -1.95 v 10.125 c 0.825,0.0449 1.726,0.0601 2.715,0.0601 2.49,0 3.856,-1.1551 3.856,-3.1351 0,-1.9661 -1.5,-3.511 -3.96,-3.511" /><path
       inkscape:connector-curvature="0"
       id="path130"
       style="fill:#ffffff;fill-opacity:1;fill-rule:nonzero;stroke:none;stroke-width:0.1"
       d="m 197.688,36.2609 c -0.719,0 -1.44,0.0762 -2.07,0.2403 l 0.12,1.816 c 0.571,-0.1953 1.38,-0.3602 2.116,-0.3602 0.99,0 1.754,0.4051 1.754,1.3352 0,1.934 -4.245,1.0488 -4.245,4.3789 0,1.8008 1.425,3.0449 3.856,3.0449 0.569,0 1.229,-0.0738 1.83,-0.1789 l -0.106,-1.7101 c -0.57,0.1652 -1.2,0.2699 -1.814,0.2699 -1.125,0 -1.695,-0.5098 -1.695,-1.2297 0,-1.8152 4.259,-1.1402 4.259,-4.3051 0,-1.9051 -1.514,-3.3012 -4.005,-3.3012" /><path
       inkscape:connector-curvature="0"
       id="path132"
       style="fill:#ffffff;fill-opacity:1;fill-rule:nonzero;stroke:none;stroke-width:0.1"
       d="M 208.368,40.0109 V 36.427 h -1.95 v 3.5699 l -3.165,6.5551 h 2.131 l 1.335,-2.9098 c 0.269,-0.6 0.494,-1.1551 0.689,-1.6801 h 0.03 c 0.21,0.584 0.51,1.2301 0.81,1.875 l 1.275,2.7149 h 2.071 l -3.226,-6.5411" /><path
       inkscape:connector-curvature="0"
       id="path134"
       style="fill:#ffffff;fill-opacity:1;fill-rule:nonzero;stroke:none;stroke-width:0.1"
       d="m 217.773,36.2922 c -3.54,0 -4.68,2.3547 -4.68,4.875 0,3.209 1.68,5.459 5.07,5.459 0.72,0 1.485,-0.0891 2.146,-0.2692 l -0.21,-1.7699 c -0.661,0.1949 -1.351,0.2988 -2.04,0.2988 -1.891,0 -2.821,-1.4238 -2.821,-3.389 0,-2.2047 0.915,-3.4348 2.955,-3.4348 0.616,0 1.44,0.1801 1.965,0.4199 l 0.225,-1.7398 c -0.75,-0.2703 -1.665,-0.45 -2.61,-0.45" /><path
       inkscape:connector-curvature="0"
       id="path136"
       style="fill:#ffffff;fill-opacity:1;fill-rule:nonzero;stroke:none;stroke-width:0.1"
       d="m 229.203,36.427 v 4.3949 h -4.29 V 36.427 h -1.95 v 10.125 h 1.95 v -4.0508 h 4.29 v 4.0508 h 1.95 V 36.427 h -1.95" /><path
       inkscape:connector-curvature="0"
       id="path138"
       style="fill:#ffffff;fill-opacity:1;fill-rule:nonzero;stroke:none;stroke-width:0.1"
       d="m 238.383,44.9621 c -1.395,0 -2.685,-1.1101 -2.685,-3.3902 0,-2.1449 0.84,-3.5399 2.656,-3.5399 1.319,0 2.729,1.02 2.729,3.45 0,2.25 -0.96,3.4801 -2.7,3.4801 z m -0.165,-8.7012 c -3.09,0 -4.605,1.9653 -4.605,5.1012 0,3.3449 2.235,5.3539 4.95,5.3539 2.7,0 4.605,-1.6191 4.605,-5.084 0,-3.3449 -2.205,-5.3711 -4.95,-5.3711" /><path
       inkscape:connector-curvature="0"
       id="path140"
       style="fill:#ffffff;fill-opacity:1;fill-rule:nonzero;stroke:none;stroke-width:0.1"
       d="m 245.613,36.427 v 10.125 h 1.95 v -8.4161 h 3.285 V 36.427 h -5.235" /><path
       inkscape:connector-curvature="0"
       id="path142"
       style="fill:#ffffff;fill-opacity:1;fill-rule:nonzero;stroke:none;stroke-width:0.1"
       d="m 257.163,44.9621 c -1.395,0 -2.685,-1.1101 -2.685,-3.3902 0,-2.1449 0.839,-3.5399 2.655,-3.5399 1.319,0 2.729,1.02 2.729,3.45 0,2.25 -0.96,3.4801 -2.699,3.4801 z m -0.165,-8.7012 c -3.091,0 -4.605,1.9653 -4.605,5.1012 0,3.3449 2.235,5.3539 4.95,5.3539 2.7,0 4.604,-1.6191 4.604,-5.084 0,-3.3449 -2.205,-5.3711 -4.949,-5.3711" /><path
       inkscape:connector-curvature="0"
       id="path144"
       style="fill:#ffffff;fill-opacity:1;fill-rule:nonzero;stroke:none;stroke-width:0.1"
       d="m 272.117,44.452 c -0.809,0.3152 -1.739,0.5101 -2.684,0.5101 -1.995,0 -3.436,-1.2601 -3.436,-3.525 0,-2.1449 1.17,-3.4051 3.226,-3.4051 0.479,0 0.899,0.059 1.29,0.1801 v 3.525 h 1.95 V 36.907 c -1.006,-0.4058 -2.25,-0.63 -3.466,-0.63 -3.21,0 -5.114,1.8902 -5.114,4.98 0,3.1801 2.159,5.445 5.67,5.445 1.005,0 1.995,-0.1801 2.864,-0.4348 l -0.3,-1.8152" /><path
       inkscape:connector-curvature="0"
       id="path146"
       style="fill:#ffffff;fill-opacity:1;fill-rule:nonzero;stroke:none;stroke-width:0.1"
       d="m 275.417,36.427 v 10.125 h 1.95 V 36.427 h -1.95" /><path
       inkscape:connector-curvature="0"
       id="path148"
       style="fill:#ffffff;fill-opacity:1;fill-rule:nonzero;stroke:none;stroke-width:0.1"
       d="m 280.367,36.427 v 10.125 h 5.505 v -1.6348 h -3.555 V 42.427 h 3.375 v -1.5899 h -3.375 V 38.091 h 3.555 v -1.664 h -5.505" /><path
       inkscape:connector-curvature="0"
       id="path150"
       style="fill:#ffffff;fill-opacity:1;fill-rule:nonzero;stroke:none;stroke-width:0.1"
       d="m 96.5598,19.427 v 10.125 h 5.5052 V 27.9172 H 98.5098 V 25.427 h 3.3752 V 23.8371 H 98.5098 V 21.091 h 3.5552 v -1.664 h -5.5052" /><path
       inkscape:connector-curvature="0"
       id="path152"
       style="fill:#ffffff;fill-opacity:1;fill-rule:nonzero;stroke:none;stroke-width:0.1"
       d="M 108.604,27.8859 V 19.427 h -1.949 v 8.4589 h -2.625 v 1.6661 h 7.2 v -1.6661 h -2.626" /><path
       inkscape:connector-curvature="0"
       id="path154"
       style="fill:#ffffff;fill-opacity:1;fill-rule:nonzero;stroke:none;stroke-width:0.1"
       d="m 120.709,27.977 c -0.45,0 -0.87,-0.0149 -1.185,-0.0461 V 21.107 c 0.27,-0.0449 0.675,-0.075 1.065,-0.075 1.906,0 3.286,1.0801 3.286,3.4789 0,2.1762 -0.855,3.4661 -3.166,3.4661 z m -0.314,-8.611 c -1.051,0 -1.966,0.0449 -2.821,0.0762 v 10.0949 c 0.796,0.0301 2.026,0.075 3.27,0.075 3.135,0 5.131,-1.3961 5.131,-4.95 0,-3.4812 -2.281,-5.2961 -5.58,-5.2961" /><path
       inkscape:connector-curvature="0"
       id="path156"
       style="fill:#ffffff;fill-opacity:1;fill-rule:nonzero;stroke:none;stroke-width:0.1"
       d="m 128.479,19.427 v 10.125 h 5.505 v -1.6348 h -3.555 V 25.427 h 3.375 v -1.5899 h -3.375 V 21.091 h 3.555 v -1.664 h -5.505" /><path
       inkscape:connector-curvature="0"
       id="path158"
       style="fill:#ffffff;fill-opacity:1;fill-rule:nonzero;stroke:none;stroke-width:0.1"
       d="m 138.649,19.2629 c -0.72,0 -1.44,0.0742 -2.07,0.2383 l 0.12,1.816 c 0.57,-0.1953 1.38,-0.3602 2.115,-0.3602 0.99,0 1.755,0.4051 1.755,1.3352 0,1.934 -4.245,1.0488 -4.245,4.3789 0,1.8008 1.425,3.0449 3.855,3.0449 0.571,0 1.23,-0.0738 1.83,-0.1789 l -0.105,-1.7101 c -0.57,0.1652 -1.2,0.2699 -1.815,0.2699 -1.125,0 -1.695,-0.5098 -1.695,-1.2297 0,-1.8152 4.26,-1.1402 4.26,-4.3051 0,-1.9051 -1.515,-3.2992 -4.005,-3.2992" /><path
       inkscape:connector-curvature="0"
       id="path160"
       style="fill:#ffffff;fill-opacity:1;fill-rule:nonzero;stroke:none;stroke-width:0.1"
       d="m 151.265,19.2629 c -0.721,0 -1.442,0.0742 -2.071,0.2383 l 0.119,1.816 c 0.571,-0.1953 1.381,-0.3602 2.116,-0.3602 0.99,0 1.756,0.4051 1.756,1.3352 0,1.934 -4.247,1.0488 -4.247,4.3789 0,1.8008 1.426,3.0449 3.856,3.0449 0.57,0 1.23,-0.0738 1.83,-0.1789 l -0.105,-1.7101 c -0.571,0.1652 -1.2,0.2699 -1.815,0.2699 -1.125,0 -1.695,-0.5098 -1.695,-1.2297 0,-1.8152 4.26,-1.1402 4.26,-4.3051 0,-1.9051 -1.515,-3.2992 -4.004,-3.2992" /><path
       inkscape:connector-curvature="0"
       id="path162"
       style="fill:#ffffff;fill-opacity:1;fill-rule:nonzero;stroke:none;stroke-width:0.1"
       d="m 162.034,19.2922 c -3.541,0 -4.68,2.3547 -4.68,4.875 0,3.209 1.68,5.459 5.07,5.459 0.72,0 1.485,-0.0891 2.145,-0.2692 l -0.211,-1.7699 c -0.66,0.1949 -1.349,0.2988 -2.039,0.2988 -1.89,0 -2.82,-1.4238 -2.82,-3.389 0,-2.2047 0.914,-3.4348 2.955,-3.4348 0.615,0 1.44,0.1801 1.965,0.4199 l 0.225,-1.741 c -0.75,-0.2691 -1.665,-0.4488 -2.61,-0.4488" /><path
       inkscape:connector-curvature="0"
       id="path164"
       style="fill:#ffffff;fill-opacity:1;fill-rule:nonzero;stroke:none;stroke-width:0.1"
       d="m 167.224,19.427 v 10.125 h 1.95 V 19.427 h -1.95" /><path
       inkscape:connector-curvature="0"
       id="path166"
       style="fill:#ffffff;fill-opacity:1;fill-rule:nonzero;stroke:none;stroke-width:0.1"
       d="m 172.173,19.427 v 10.125 h 5.506 v -1.6348 h -3.555 V 25.427 h 3.375 v -1.5899 h -3.375 V 21.091 h 3.555 v -1.664 h -5.506" /><path
       inkscape:connector-curvature="0"
       id="path168"
       style="fill:#ffffff;fill-opacity:1;fill-rule:nonzero;stroke:none;stroke-width:0.1"
       d="m 186.333,19.427 -2.97,5.1152 c -0.45,0.7637 -0.795,1.5137 -1.094,2.1738 0.06,-0.8691 0.089,-2.459 0.089,-3.6738 V 19.427 h -1.89 v 10.125 h 2.535 l 2.82,-4.8301 c 0.465,-0.7797 0.87,-1.6207 1.245,-2.3848 -0.075,1.0199 -0.104,2.8199 -0.104,4.0649 v 3.15 h 1.89 V 19.427 h -2.521" /><path
       inkscape:connector-curvature="0"
       id="path170"
       style="fill:#ffffff;fill-opacity:1;fill-rule:nonzero;stroke:none;stroke-width:0.1"
       d="m 196.054,19.2922 c -3.54,0 -4.681,2.3547 -4.681,4.875 0,3.209 1.681,5.459 5.07,5.459 0.72,0 1.486,-0.0891 2.146,-0.2692 l -0.211,-1.7699 c -0.659,0.1949 -1.35,0.2988 -2.04,0.2988 -1.89,0 -2.819,-1.4238 -2.819,-3.389 0,-2.2047 0.915,-3.4348 2.955,-3.4348 0.614,0 1.439,0.1801 1.964,0.4199 l 0.225,-1.741 c -0.75,-0.2691 -1.665,-0.4488 -2.609,-0.4488" /><path
       inkscape:connector-curvature="0"
       id="path172"
       style="fill:#ffffff;fill-opacity:1;fill-rule:nonzero;stroke:none;stroke-width:0.1"
       d="m 201.243,19.427 v 10.125 h 5.505 v -1.6348 h -3.555 V 25.427 h 3.375 v -1.5899 h -3.375 V 21.091 h 3.555 v -1.664 h -5.505" /><path
       inkscape:connector-curvature="0"
       id="path174"
       style="fill:#ffffff;fill-opacity:1;fill-rule:nonzero;stroke:none;stroke-width:0.1"
       d="m 211.413,19.2629 c -0.72,0 -1.439,0.0742 -2.07,0.2383 l 0.12,1.816 c 0.57,-0.1953 1.38,-0.3602 2.115,-0.3602 0.99,0 1.755,0.4051 1.755,1.3352 0,1.934 -4.245,1.0488 -4.245,4.3789 0,1.8008 1.426,3.0449 3.855,3.0449 0.571,0 1.23,-0.0738 1.83,-0.1789 l -0.105,-1.7101 c -0.569,0.1652 -1.2,0.2699 -1.814,0.2699 -1.125,0 -1.696,-0.5098 -1.696,-1.2297 0,-1.8152 4.26,-1.1402 4.26,-4.3051 0,-1.9051 -1.515,-3.2992 -4.005,-3.2992" /><path
       inkscape:connector-curvature="0"
       id="path176"
       style="fill:#ffffff;fill-opacity:1;fill-rule:nonzero;stroke:none;stroke-width:0.1"
       d="m 225.288,27.977 c -0.45,0 -0.87,-0.0149 -1.185,-0.0461 V 21.107 c 0.27,-0.0449 0.675,-0.075 1.065,-0.075 1.905,0 3.285,1.0801 3.285,3.4789 0,2.1762 -0.855,3.4661 -3.165,3.4661 z m -0.315,-8.611 c -1.05,0 -1.965,0.0449 -2.82,0.0762 v 10.0949 c 0.795,0.0301 2.025,0.075 3.27,0.075 3.135,0 5.13,-1.3961 5.13,-4.95 0,-3.4812 -2.281,-5.2961 -5.58,-5.2961" /><path
       inkscape:connector-curvature="0"
       id="path178"
       style="fill:#ffffff;fill-opacity:1;fill-rule:nonzero;stroke:none;stroke-width:0.1"
       d="m 233.058,19.427 v 10.125 h 5.505 v -1.6348 h -3.555 V 25.427 h 3.375 v -1.5899 h -3.375 V 21.091 h 3.555 v -1.664 h -5.505" /><path
       inkscape:connector-curvature="0"
       id="path180"
       style="fill:#ffffff;fill-opacity:1;fill-rule:nonzero;stroke:none;stroke-width:0.1"
       d="m 245.522,19.427 v 10.125 h 1.951 v -8.4161 h 3.285 V 19.427 h -5.236" /><path
       inkscape:connector-curvature="0"
       id="path182"
       style="fill:#ffffff;fill-opacity:1;fill-rule:nonzero;stroke:none;stroke-width:0.1"
       d="m 252.212,26.5371 c 1.035,1.0949 1.096,1.7399 0.615,2.2949 -0.555,0.675 -0.149,1.8301 0.901,1.8301 1.41,0 2.069,-2.3851 -0.721,-4.8301 l -0.795,0.7051" /><path
       inkscape:connector-curvature="0"
       id="path184"
       style="fill:#ffffff;fill-opacity:1;fill-rule:nonzero;stroke:none;stroke-width:0.1"
       d="m 259.683,30.2121 -0.661,1.0938 2.625,1.6511 0.795,-1.3211 z M 257.627,19.427 v 10.125 h 5.505 v -1.6348 h -3.555 V 25.427 h 3.375 v -1.5899 h -3.375 V 21.091 h 3.555 v -1.664 h -5.505" /><path
       inkscape:connector-curvature="0"
       id="path186"
       style="fill:#ffffff;fill-opacity:1;fill-rule:nonzero;stroke:none;stroke-width:0.1"
       d="m 269.058,27.977 c -0.451,0 -0.87,-0.0149 -1.186,-0.0461 V 21.107 c 0.271,-0.0449 0.675,-0.075 1.066,-0.075 1.904,0 3.284,1.0801 3.284,3.4789 0,2.1762 -0.855,3.4661 -3.164,3.4661 z m -0.316,-8.611 c -1.05,0 -1.965,0.0449 -2.82,0.0762 v 10.0949 c 0.795,0.0301 2.025,0.075 3.27,0.075 3.135,0 5.13,-1.3961 5.13,-4.95 0,-3.4812 -2.28,-5.2961 -5.58,-5.2961" /><path
       inkscape:connector-curvature="0"
       id="path188"
       style="fill:#ffffff;fill-opacity:1;fill-rule:nonzero;stroke:none;stroke-width:0.1"
       d="m 280.742,19.2629 c -3.195,0 -3.915,1.7383 -3.915,3.6742 v 6.6149 h 1.95 v -6.4961 c 0,-1.2739 0.42,-2.1739 2.1,-2.1739 1.5,0 2.13,0.6289 2.13,2.3551 v 6.3149 h 1.935 v -6.195 c 0,-2.775 -1.53,-4.0941 -4.2,-4.0941" /><path
       inkscape:connector-curvature="0"
       id="path190"
       style="fill:#ffffff;fill-opacity:1;fill-rule:nonzero;stroke:none;stroke-width:0.1"
       d="m 292.142,19.2922 c -3.54,0 -4.68,2.3547 -4.68,4.875 0,3.209 1.68,5.459 5.07,5.459 0.72,0 1.485,-0.0891 2.145,-0.2692 l -0.21,-1.7699 c -0.66,0.1949 -1.35,0.2988 -2.04,0.2988 -1.89,0 -2.82,-1.4238 -2.82,-3.389 0,-2.2047 0.915,-3.4348 2.956,-3.4348 0.614,0 1.439,0.1801 1.964,0.4199 l 0.225,-1.741 c -0.75,-0.2691 -1.665,-0.4488 -2.61,-0.4488" /><path
       inkscape:connector-curvature="0"
       id="path192"
       style="fill:#ffffff;fill-opacity:1;fill-rule:nonzero;stroke:none;stroke-width:0.1"
       d="m 301.337,25.6969 c -0.195,0.5543 -0.345,1.05 -0.465,1.6203 h -0.016 c -0.119,-0.525 -0.284,-1.1102 -0.479,-1.6953 l -0.915,-2.5797 h 2.82 z m 2.16,-6.2699 -0.705,2.0699 h -3.825 l -0.705,-2.0699 h -1.965 l 3.54,10.125 h 2.205 l 3.615,-10.125 h -2.16" /><path
       inkscape:connector-curvature="0"
       id="path194"
       style="fill:#ffffff;fill-opacity:1;fill-rule:nonzero;stroke:none;stroke-width:0.1"
       d="M 311.372,27.8859 V 19.427 h -1.95 v 8.4589 h -2.625 v 1.6661 h 7.2 v -1.6661 h -2.625" /><path
       inkscape:connector-curvature="0"
       id="path196"
       style="fill:#ffffff;fill-opacity:1;fill-rule:nonzero;stroke:none;stroke-width:0.1"
       d="m 316.172,19.427 v 10.125 h 1.95 V 19.427 h -1.95" /><path
       inkscape:connector-curvature="0"
       id="path198"
       style="fill:#ffffff;fill-opacity:1;fill-rule:nonzero;stroke:none;stroke-width:0.1"
       d="m 325.337,27.9621 c -1.396,0 -2.686,-1.1101 -2.686,-3.3902 0,-2.1449 0.84,-3.5399 2.656,-3.5399 1.32,0 2.729,1.02 2.729,3.45 0,2.25 -0.96,3.4801 -2.699,3.4801 z m -0.165,-8.6992 c -3.091,0 -4.606,1.9633 -4.606,5.0992 0,3.3449 2.236,5.3539 4.951,5.3539 2.7,0 4.605,-1.6191 4.605,-5.084 0,-3.3449 -2.205,-5.3691 -4.95,-5.3691" /><path
       inkscape:connector-curvature="0"
       id="path200"
       style="fill:#ffffff;fill-opacity:1;fill-rule:nonzero;stroke:none;stroke-width:0.1"
       d="m 338.432,19.427 -2.971,5.1152 c -0.449,0.7637 -0.795,1.5137 -1.095,2.1738 0.061,-0.8691 0.09,-2.459 0.09,-3.6738 V 19.427 h -1.89 v 10.125 h 2.536 l 2.819,-4.8301 c 0.466,-0.7797 0.87,-1.6207 1.245,-2.3848 -0.074,1.0199 -0.104,2.8199 -0.104,4.0649 v 3.15 h 1.889 V 19.427 h -2.519" /></g></svg>