<?xml version="1.0" encoding="utf-8"?>
<!-- Generator: Adobe Illustrator 22.1.0, SVG Export Plug-In . SVG Version: 6.00 Build 0)  -->
<svg version="1.1" id="couleur" xmlns="http://www.w3.org/2000/svg" xmlns:xlink="http://www.w3.org/1999/xlink" x="0px" y="0px"
	 viewBox="0 0 792 325" style="enable-background:new 0 0 792 325;" xml:space="preserve">
<style type="text/css">
	.st0{fill:#DA7512;}
	.st1{fill:#846FA2;}
	.st2{fill:#71C6EE;}
	.st3{fill:#AABB18;}
	.st4{fill:#FCFCFC;}
	.st5{fill:#005684;}
</style>
<path id="XMLID_8_" class="st0" d="M252.1,283.1c0,14.9-12.1,27-27,27s-27-12.1-27-27s12.1-27,27-27S252.1,268.2,252.1,283.1z"/>
<path id="XMLID_5_" class="st1" d="M126.3,224.2c0,14.9-12,26.9-26.9,26.9s-26.9-12-26.9-26.9s12-26.9,26.9-26.9
	S126.3,209.4,126.3,224.2z"/>
<path id="XMLID_9_" class="st2" d="M70.7,78.7c0,14.9-12,26.9-26.9,26.9s-26.9-12-26.9-26.9s12-26.9,26.9-26.9
	C58.6,51.8,70.7,63.8,70.7,78.7z"/>
<path id="XMLID_29_" class="st3" d="M252.8,41.9c0,14.8-12,26.9-26.9,26.9c-14.8,0-26.9-12-26.9-26.9c0-14.8,12-26.9,26.9-26.9
	C240.7,15,252.8,27,252.8,41.9z"/>
<g>
	<path class="st4" d="M287.4,60.3h33.3v46.1h20.6v23.9h-20.6v84.1c0,3.6,0.4,6.4,1.1,8.4c0.8,2,2,3.5,3.6,4.5s3.8,1.6,6.4,1.8
		s5.8,0.3,9.5,0.3v28.7h-13.7c-7.6,0-14-1.1-19.1-3.3s-9.2-5-12.2-8.4s-5.3-7.2-6.7-11.5c-1.4-4.3-2.1-8.4-2.1-12.4v-92.2h-16.6
		v-23.9h16.6L287.4,60.3L287.4,60.3z"/>
	<path class="st4" d="M387.6,193.8v20.7c0,4.8,1.5,8.5,4.4,11.1s6.9,3.9,11.9,3.9c6.3,0,10.5-1.7,12.6-5.1c2.1-3.4,3.3-6.8,3.7-10.2
		h33.3c0,6.4-1.1,12.4-3.4,18s-5.6,10.4-10,14.4c-4.4,4.2-9.6,7.5-15.7,9.9c-6.1,2.4-12.9,3.6-20.6,3.6c-10.2,0-19-2-26.4-6
		s-13.1-9.3-17-15.9c-2.4-4-4-8.6-4.9-13.8s-1.3-10.9-1.3-17.1v-50c0-6.2,0.4-11.9,1.3-17.1c0.9-5.2,2.5-9.8,4.9-13.8
		c3.9-6.6,9.6-11.9,17-15.9s16.2-6,26.4-6c7.6,0,14.5,1.2,20.7,3.6s11.4,5.7,15.7,10c4.2,4.3,7.5,9.3,9.8,15.1s3.4,12,3.4,18.6v41.9
		L387.6,193.8L387.6,193.8z M387.6,169.9h32.6v-17.4c0-5.8-1.5-10.1-4.4-13s-6.9-4.3-11.9-4.3s-9,1.5-11.9,4.3
		c-2.9,2.9-4.4,7.2-4.4,13L387.6,169.9L387.6,169.9z"/>
	<path class="st4" d="M503.4,214.5c0,4.8,1.5,8.5,4.4,11.1s6.9,3.9,11.9,3.9c6.3,0,10.5-1.7,12.6-5.1c2.1-3.4,3.3-6.8,3.7-10.2h33.3
		c0,6.4-1.1,12.4-3.4,18c-2.3,5.6-5.6,10.4-10,14.4c-4.4,4.2-9.6,7.5-15.7,9.9c-6.1,2.4-12.9,3.6-20.6,3.6c-10.2,0-19-2-26.4-6
		s-13.1-9.3-17-15.9c-2.4-4-4-8.6-4.9-13.8s-1.3-10.9-1.3-17.1v-50c0-6.2,0.4-11.9,1.3-17.1c0.9-5.2,2.5-9.8,4.9-13.8
		c3.9-6.6,9.6-11.9,17-15.9s16.2-6,26.4-6c7.6,0,14.5,1.2,20.7,3.6s11.4,5.7,15.7,10c4.2,4.3,7.5,9.4,9.8,15.4
		c2.3,6,3.4,12.5,3.4,19.5H536c0-6.2-1.5-10.7-4.4-13.6c-2.9-2.9-6.9-4.3-11.9-4.3s-9,1.5-11.9,4.3c-2.9,2.9-4.4,7.2-4.4,13
		L503.4,214.5L503.4,214.5z"/>
	<path class="st4" d="M596.7,130.4h-16.3v-23.9h16.3V85.8c0-7.4,1.2-13.6,3.6-18.7c2.4-5.1,5.6-9.3,9.6-12.6s8.6-5.7,13.7-7.2
		c5.1-1.5,10.4-2.2,15.8-2.2h15.3v28.7h-15c-6.5,0-9.8,3.5-9.8,10.5v22.2h24.8v23.9H630v127.8h-33.3V130.4z"/>
	<path class="st4" d="M731.2,242.6h-0.7c-4.4,5.6-8.8,9.9-13.2,12.9c-4.5,3-10.7,4.5-18.8,4.5c-3.9,0-7.9-0.6-12.1-1.6
		c-4.1-1.1-8-3.1-11.6-6s-6.5-7-8.8-12.3s-3.4-12.1-3.4-20.5c0-8.6,0.8-16.1,2.3-22.6s4.3-11.9,8.3-16.2s9.4-7.5,16.2-9.6
		c6.7-2.1,15.3-3.1,25.8-3.1c2.4,0,4.8,0.1,7.2,0.3s5.3,0.4,8.8,0.6v-15.9c0-5.2-1.2-9.5-3.6-12.9c-2.4-3.4-6.7-5.1-13.1-5.1
		c-4.4,0-8.3,1.3-11.9,3.9c-3.6,2.6-5.9,6.4-7,11.4h-32.3c1.1-13.8,6.1-24.7,15-32.9c4.3-4,9.6-7.1,15.7-9.4
		c6.1-2.3,12.9-3.4,20.6-3.4c7,0,13.5,1,19.6,3s11.4,5,15.8,9c4.5,4,8,9,10.6,15c2.6,6,3.9,13,3.9,21v105.7h-33.3V242.6z M731.2,193
		c-3.7-0.6-6.7-0.9-9.1-0.9c-7.2,0-13.3,1.5-18.4,4.6c-5.1,3.1-7.7,8.7-7.7,16.9c0,5.8,1.5,10.5,4.6,14.1c3,3.6,7.3,5.4,12.7,5.4
		c5.7,0,10.1-1.7,13.2-5.1c3.2-3.4,4.7-8.2,4.7-14.4V193z"/>
</g>
<path class="st5" d="M225.2,249.1l-19.6-51.6c10.4-8.2,17-20.9,17-35.2c0-14.1-6.5-26.7-16.7-34.9L226,75.9
	c18.7-0.1,33.9-15.3,33.9-34c0-18.8-15.3-34-34-34c-18.8,0-34,15.3-34,34c0,10.2,4.5,19.4,11.7,25.6L184,117.9c-2-0.3-4-0.5-6.1-0.5
	c-12.4,0-23.6,5-31.7,13.1L76.8,87.1c0.7-2.7,1.1-5.5,1.1-8.4c0-18.8-15.3-34-34-34c-18.8,0-34,15.3-34,34c0,18.8,15.3,34,34,34
	c7.1,0,13.7-2.2,19.2-6l71.2,44.6c-0.9,3.5-1.4,7.1-1.4,10.9c0,6.2,1.3,12.1,3.5,17.5l-19,15.6c-5.2-3.3-11.4-5.2-18-5.2
	c-18.8,0-34,15.3-34,34c0,18.8,15.3,34,34,34c18.8,0,34-15.3,34-34c0-3.4-0.5-6.7-1.4-9.8l19.4-15.9c7.4,5.4,16.5,8.6,26.4,8.6
	c1.9,0,3.8-0.2,5.7-0.4l19.2,50.7c-7.1,6.2-11.7,15.4-11.7,25.6c0,18.8,15.3,34,34,34c18.8,0,34-15.3,34-34
	C259.1,264.4,243.9,249.1,225.2,249.1z M43.9,103.7c-13.8,0-25-11.2-25-25s11.2-25,25-25s25,11.2,25,25S57.7,103.7,43.9,103.7z
	 M99.4,249.3c-13.8,0-25-11.2-25-25s11.2-25,25-25s25,11.2,25,25C124.4,238,113.2,249.3,99.4,249.3z M200.9,41.9
	c0-13.8,11.2-25,25-25s25,11.2,25,25s-11.2,25-25,25C212.1,66.9,200.9,55.7,200.9,41.9z M225.1,308.1c-13.8,0-25-11.2-25-25
	s11.2-25,25-25s25,11.2,25,25S238.9,308.1,225.1,308.1z"/>
</svg>
