<?xml version="1.0" encoding="utf-8"?>
<!-- Generator: Adobe Illustrator 23.0.3, SVG Export Plug-In . SVG Version: 6.00 Build 0)  -->
<svg version="1.1" id="Layer_1" xmlns="http://www.w3.org/2000/svg" xmlns:xlink="http://www.w3.org/1999/xlink" x="0px" y="0px"
	 viewBox="0 0 148 103.1" style="enable-background:new 0 0 148 103.1;" xml:space="preserve">
<style type="text/css">
	.st0{fill:#FFFFFF;}
	.st1{fill:#7F70A2;}
</style>
<path class="st0" d="M71.8,80.4l-6.5-17.2c3.5-2.7,5.7-7,5.7-11.7c0-4.7-2.2-8.9-5.6-11.6l6.7-17.2c6.2,0,11.3-5.1,11.3-11.3
	C83.4,5.1,78.3,0,72,0S60.7,5.1,60.7,11.3c0,3.4,1.5,6.5,3.9,8.5L58,36.7c-0.7-0.1-1.3-0.2-2-0.2c-4.1,0-7.9,1.7-10.6,4.4L22.3,26.4
	c0.2-0.9,0.4-1.8,0.4-2.8c0-6.3-5.1-11.3-11.3-11.3S0,17.4,0,23.6C0,29.9,5.1,35,11.3,35c2.4,0,4.6-0.7,6.4-2l23.7,14.9
	C41.2,49,41,50.2,41,51.5c0,2.1,0.4,4,1.2,5.8l-6.3,5.2c-1.7-1.1-3.8-1.7-6-1.7c-6.3,0-11.3,5.1-11.3,11.3c0,6.3,5.1,11.3,11.3,11.3
	s11.3-5.1,11.3-11.3c0-1.1-0.2-2.2-0.5-3.3l6.5-5.3c2.5,1.8,5.5,2.9,8.8,2.9c0.6,0,1.3-0.1,1.9-0.1l6.4,16.9
	c-2.4,2.1-3.9,5.1-3.9,8.5c0,6.3,5.1,11.3,11.3,11.3c6.3,0,11.3-5.1,11.3-11.3C83.1,85.5,78,80.4,71.8,80.4z M11.3,32
	C6.7,32,3,28.2,3,23.6c0-4.6,3.7-8.3,8.3-8.3s8.3,3.7,8.3,8.3C19.7,28.2,15.9,32,11.3,32z M29.9,80.5c-4.6,0-8.3-3.7-8.3-8.3
	c0-4.6,3.7-8.3,8.3-8.3s8.3,3.7,8.3,8.3C38.2,76.7,34.5,80.5,29.9,80.5z M63.7,11.3C63.7,6.7,67.4,3,72,3c4.6,0,8.3,3.7,8.3,8.3
	s-3.7,8.3-8.3,8.3C67.4,19.7,63.7,15.9,63.7,11.3z M71.7,100.1c-4.6,0-8.3-3.7-8.3-8.3c0-4.6,3.7-8.3,8.3-8.3s8.3,3.7,8.3,8.3
	C80.1,96.4,76.3,100.1,71.7,100.1z"/>
<g>
	<path class="st1" d="M65.8,57.6c-0.6,2.5-1.7,4.4-3.4,5.8c-1.7,1.3-3.8,2-6.1,2c-2.1,0-3.9-0.6-5.3-1.6c-1.4-1-2.5-2.1-3.2-3.3
		c-0.2-0.4-0.4-0.8-0.5-1.2c-0.1-0.4-0.3-0.9-0.4-1.4c-0.2-1.1-0.3-3.2-0.3-6.3c0-3.1,0.1-5.2,0.3-6.3c0.2-1.1,0.5-1.9,0.9-2.6
		c0.7-1.2,1.7-2.4,3.2-3.3c1.4-1,3.2-1.5,5.3-1.5c2.6,0,4.7,0.8,6.4,2.3c1.6,1.5,2.7,3.4,3.1,5.7h-4.3c-0.3-1.1-0.9-2-1.8-2.8
		c-0.9-0.7-2-1.1-3.3-1.1c-1,0-1.8,0.2-2.5,0.6c-0.7,0.4-1.3,0.8-1.7,1.4c-0.5,0.6-0.9,1.3-1.1,2.2c-0.2,1-0.3,2.8-0.3,5.4
		s0.1,4.5,0.3,5.4c0.2,0.9,0.5,1.7,1.1,2.3c0.4,0.6,1,1,1.7,1.4c0.7,0.4,1.5,0.6,2.5,0.6c2.3,0,4-1.2,5.2-3.7H65.8z"/>
</g>
<g>
	<path class="st0" d="M75.9,57c0,1.5,0.4,2.7,1.3,3.5c0.8,0.8,1.9,1.2,3.3,1.2c1.6,0,3-0.6,4.2-1.9l2.8,2.4c-2,2.1-4.3,3.1-6.9,3.1
		c-1,0-2-0.1-3-0.4c-0.5-0.2-1-0.4-1.4-0.6c-0.5-0.2-0.9-0.5-1.4-0.9c-0.8-0.7-1.5-1.7-2-3c-0.6-1.2-0.8-2.8-0.8-4.8
		c0-1.9,0.2-3.5,0.7-4.8c0.5-1.3,1.1-2.3,1.9-3c0.8-0.8,1.6-1.3,2.6-1.6c0.9-0.3,1.9-0.5,2.8-0.5c2.2,0,4.1,0.7,5.6,2.2
		c1.5,1.4,2.3,3.4,2.4,6V57C88,57,75.9,57,75.9,57z M84.1,53.8c-0.1-1.5-0.5-2.6-1.2-3.4c-0.7-0.7-1.7-1.1-2.9-1.1
		c-1.2,0-2.1,0.4-2.9,1.1c-0.7,0.8-1.1,1.9-1.2,3.4H84.1z"/>
	<path class="st0" d="M92.1,41h3.7v20.7h11.8v3.5H92.1V41z"/>
	<path class="st0" d="M111,41h15.5v3.5h-11.8v6.9h10.1v3.3h-10.1v7.1h11.8v3.5H111V41z"/>
	<path class="st0" d="M129.9,41h3.5l11,17.2h0.1V41h3.7v24.2h-3.5L133.6,48h-0.1v17.2h-3.7V41z"/>
</g>
</svg>
