<?xml version="1.0" encoding="utf-8"?>
<!-- Generator: Adobe Illustrator 16.0.0, SVG Export Plug-In . SVG Version: 6.00 Build 0)  -->
<!DOCTYPE svg PUBLIC "-//W3C//DTD SVG 1.1//EN" "http://www.w3.org/Graphics/SVG/1.1/DTD/svg11.dtd">
<svg version="1.1" xmlns="http://www.w3.org/2000/svg" xmlns:xlink="http://www.w3.org/1999/xlink" x="0px" y="0px"
	 width="121.325px" height="103.102px" viewBox="0 0 121.325 103.102" enable-background="new 0 0 121.325 103.102"
	 xml:space="preserve">
<g id="crops">
	<g>
		<line fill="none" stroke="#000000" stroke-width="0.3" x1="-12.584" y1="-67.99" x2="-12.584" y2="-31.99"/>
		<line fill="none" stroke="#000000" stroke-width="0.3" x1="-66.584" y1="-13.99" x2="-30.584" y2="-13.99"/>
		<line fill="none" stroke="#000000" stroke-width="0.3" x1="-66.584" y1="115.422" x2="-30.584" y2="115.422"/>
		<line fill="none" stroke="#000000" stroke-width="0.3" x1="-12.584" y1="169.422" x2="-12.584" y2="133.422"/>
		<line fill="none" stroke="#000000" stroke-width="0.3" x1="242.562" y1="-67.99" x2="242.562" y2="-31.99"/>
		<line fill="none" stroke="#000000" stroke-width="0.3" x1="296.562" y1="-13.99" x2="260.562" y2="-13.99"/>
		<line fill="none" stroke="#000000" stroke-width="0.3" x1="296.562" y1="115.422" x2="260.562" y2="115.422"/>
		<line fill="none" stroke="#000000" stroke-width="0.3" x1="242.562" y1="169.422" x2="242.562" y2="133.422"/>
	</g>
	<g>
		<line fill="none" stroke="#000000" stroke-width="0.3" x1="-12.584" y1="203.344" x2="-12.584" y2="239.344"/>
		<line fill="none" stroke="#000000" stroke-width="0.3" x1="-66.584" y1="257.344" x2="-30.584" y2="257.344"/>
		<line fill="none" stroke="#000000" stroke-width="0.3" x1="-66.584" y1="386.755" x2="-30.584" y2="386.755"/>
		<line fill="none" stroke="#000000" stroke-width="0.3" x1="-12.584" y1="440.755" x2="-12.584" y2="404.755"/>
		<line fill="none" stroke="#000000" stroke-width="0.3" x1="242.562" y1="203.344" x2="242.562" y2="239.344"/>
		<line fill="none" stroke="#000000" stroke-width="0.3" x1="296.562" y1="257.344" x2="260.562" y2="257.344"/>
		<line fill="none" stroke="#000000" stroke-width="0.3" x1="296.562" y1="386.755" x2="260.562" y2="386.755"/>
		<line fill="none" stroke="#000000" stroke-width="0.3" x1="242.562" y1="440.755" x2="242.562" y2="404.755"/>
	</g>
	<g>
		<line fill="none" stroke="#000000" stroke-width="0.3" x1="391.092" y1="-67.99" x2="391.092" y2="-31.99"/>
		<line fill="none" stroke="#000000" stroke-width="0.3" x1="337.092" y1="-13.99" x2="373.092" y2="-13.99"/>
		<line fill="none" stroke="#000000" stroke-width="0.3" x1="337.092" y1="115.422" x2="373.092" y2="115.422"/>
		<line fill="none" stroke="#000000" stroke-width="0.3" x1="391.092" y1="169.422" x2="391.092" y2="133.422"/>
		<line fill="none" stroke="#000000" stroke-width="0.3" x1="646.239" y1="-67.99" x2="646.239" y2="-31.99"/>
		<line fill="none" stroke="#000000" stroke-width="0.3" x1="700.239" y1="-13.99" x2="664.239" y2="-13.99"/>
		<line fill="none" stroke="#000000" stroke-width="0.3" x1="700.239" y1="115.422" x2="664.239" y2="115.422"/>
		<line fill="none" stroke="#000000" stroke-width="0.3" x1="646.239" y1="169.422" x2="646.239" y2="133.422"/>
	</g>
	<g>
		<line fill="#FFFFFF" stroke="#000000" stroke-width="0.3" x1="391.092" y1="203.343" x2="391.092" y2="239.343"/>
		<line fill="#FFFFFF" stroke="#000000" stroke-width="0.3" x1="337.092" y1="257.343" x2="373.092" y2="257.343"/>
		<line fill="#FFFFFF" stroke="#000000" stroke-width="0.3" x1="337.092" y1="386.755" x2="373.092" y2="386.755"/>
		<line fill="#FFFFFF" stroke="#000000" stroke-width="0.3" x1="391.092" y1="440.755" x2="391.092" y2="404.755"/>
		<line fill="#FFFFFF" stroke="#000000" stroke-width="0.3" x1="646.239" y1="203.343" x2="646.239" y2="239.343"/>
		<line fill="#FFFFFF" stroke="#000000" stroke-width="0.3" x1="700.239" y1="257.343" x2="664.239" y2="257.343"/>
		<line fill="#FFFFFF" stroke="#000000" stroke-width="0.3" x1="700.239" y1="386.755" x2="664.239" y2="386.755"/>
		<line fill="#FFFFFF" stroke="#000000" stroke-width="0.3" x1="646.239" y1="440.755" x2="646.239" y2="404.755"/>
	</g>
</g>
<g id="background" display="none">
	<rect x="-12.584" y="257.343" display="inline" fill="#6D6E71" width="255.147" height="129.412"/>
	<rect x="391.721" y="257.343" display="inline" width="255.146" height="129.412"/>
</g>
<g id="art">
	<g display="none">
		<path display="inline" fill="#005B86" d="M93.267,5.091h9.282v14.015h5.733v7.279h-5.733v25.571c0,1.092,0.105,1.942,0.318,2.548
			c0.212,0.607,0.546,1.062,1.001,1.365c0.455,0.305,1.047,0.486,1.775,0.546c0.728,0.062,1.606,0.091,2.639,0.091v8.736h-3.822
			c-2.125,0-3.899-0.333-5.324-1.001c-1.426-0.667-2.563-1.516-3.413-2.548c-0.85-1.031-1.472-2.198-1.865-3.504
			c-0.396-1.304-0.592-2.562-0.592-3.776V26.385h-4.641v-7.279h4.641V5.091z"/>
		<path display="inline" fill="#005B86" d="M121.204,45.677v6.279c0,1.456,0.409,2.579,1.229,3.367
			c0.819,0.789,1.925,1.183,3.321,1.183c1.759,0,2.926-0.515,3.504-1.547c0.576-1.03,0.924-2.062,1.046-3.094h9.282
			c0,1.942-0.318,3.763-0.955,5.46c-0.637,1.699-1.562,3.155-2.775,4.368c-1.215,1.273-2.671,2.274-4.369,3.003
			c-1.699,0.728-3.609,1.092-5.732,1.092c-2.852,0-5.309-0.605-7.371-1.82c-2.062-1.213-3.64-2.82-4.732-4.822
			c-0.668-1.213-1.123-2.608-1.364-4.187c-0.243-1.576-0.364-3.306-0.364-5.187V34.576c0-1.88,0.121-3.608,0.364-5.187
			c0.241-1.577,0.696-2.973,1.364-4.187c1.093-2.002,2.67-3.608,4.732-4.823c2.062-1.213,4.52-1.819,7.371-1.819
			c2.123,0,4.049,0.363,5.778,1.092c1.729,0.728,3.185,1.744,4.368,3.048c1.184,1.306,2.094,2.837,2.73,4.596
			c0.637,1.761,0.955,3.641,0.955,5.643v12.739H121.204z M121.204,38.398h9.1V33.12c0-1.759-0.409-3.078-1.228-3.958
			c-0.82-0.879-1.928-1.32-3.322-1.32c-1.396,0-2.502,0.441-3.321,1.32c-0.819,0.88-1.229,2.199-1.229,3.958V38.398z"/>
		<path display="inline" fill="#005B86" d="M153.508,51.957c0,1.456,0.41,2.579,1.229,3.367c0.819,0.789,1.926,1.183,3.322,1.183
			c1.759,0,2.926-0.515,3.504-1.547c0.575-1.03,0.924-2.062,1.046-3.094h9.282c0,1.942-0.318,3.763-0.955,5.46
			c-0.638,1.699-1.563,3.155-2.776,4.368c-1.214,1.273-2.67,2.274-4.368,3.003c-1.699,0.728-3.609,1.092-5.732,1.092
			c-2.853,0-5.31-0.605-7.371-1.82c-2.063-1.213-3.641-2.82-4.732-4.822c-0.668-1.213-1.123-2.608-1.365-4.187
			c-0.242-1.576-0.363-3.306-0.363-5.187V34.576c0-1.88,0.121-3.608,0.363-5.187c0.242-1.577,0.697-2.973,1.365-4.187
			c1.092-2.002,2.669-3.608,4.732-4.823c2.062-1.213,4.519-1.819,7.371-1.819c2.123,0,4.049,0.363,5.778,1.092
			c1.729,0.728,3.185,1.744,4.368,3.048c1.183,1.306,2.093,2.867,2.73,4.687c0.637,1.82,0.955,3.793,0.955,5.915h-9.282
			c0-1.879-0.409-3.26-1.229-4.14c-0.819-0.879-1.927-1.32-3.321-1.32c-1.396,0-2.503,0.441-3.322,1.32
			c-0.818,0.88-1.229,2.199-1.229,3.958V51.957z"/>
		<path display="inline" fill="#005B86" d="M179.533,26.385h-4.549v-7.279h4.549v-6.279c0-2.244,0.334-4.141,1.002-5.688
			c0.666-1.547,1.561-2.821,2.684-3.822s2.396-1.729,3.822-2.184c1.425-0.455,2.896-0.683,4.414-0.683h4.277v8.736h-4.187
			c-1.82,0-2.729,1.062-2.729,3.185v6.734h6.916v7.279h-6.916v38.857h-9.283V26.385z"/>
		<path display="inline" fill="#005B86" d="M217.023,60.51h-0.182c-1.214,1.699-2.442,3.004-3.686,3.913
			c-1.244,0.91-2.988,1.365-5.232,1.365c-1.092,0-2.215-0.168-3.367-0.5c-1.152-0.333-2.229-0.94-3.23-1.82
			c-1-0.879-1.819-2.123-2.457-3.731c-0.637-1.606-0.955-3.686-0.955-6.233c0-2.607,0.212-4.898,0.637-6.87
			c0.424-1.971,1.197-3.608,2.32-4.914c1.123-1.304,2.624-2.275,4.505-2.912c1.88-0.637,4.277-0.955,7.188-0.955
			c0.668,0,1.334,0.031,2.003,0.091c0.667,0.061,1.485,0.122,2.456,0.182v-4.823c0-1.576-0.334-2.88-1-3.912
			c-0.668-1.031-1.881-1.548-3.641-1.548c-1.214,0-2.32,0.396-3.321,1.184c-1.001,0.789-1.653,1.942-1.956,3.458h-9.01
			c0.303-4.187,1.698-7.521,4.187-10.01c1.213-1.213,2.669-2.169,4.368-2.867c1.697-0.696,3.608-1.046,5.732-1.046
			c1.941,0,3.762,0.304,5.461,0.909c1.697,0.607,3.169,1.518,4.413,2.73c1.243,1.214,2.229,2.729,2.958,4.55
			c0.728,1.82,1.092,3.944,1.092,6.37v32.123h-9.283V60.51z M217.023,45.405c-1.031-0.182-1.881-0.273-2.547-0.273
			c-2.002,0-3.717,0.471-5.143,1.411c-1.426,0.941-2.138,2.654-2.138,5.142c0,1.76,0.424,3.185,1.274,4.276
			c0.848,1.092,2.031,1.639,3.549,1.639c1.576,0,2.805-0.516,3.686-1.548c0.879-1.03,1.318-2.486,1.318-4.367V45.405z"/>
	</g>
	<g display="none">
		<path display="inline" fill="#6D6E71" d="M94.963,73.316h-2.006v-1.632h5.746v1.632h-2.006v10.472h-1.734V73.316z"/>
		<path display="inline" fill="#6D6E71" d="M99.893,80.134v1.173c0,0.272,0.077,0.482,0.229,0.629
			c0.153,0.147,0.36,0.221,0.621,0.221c0.329,0,0.547-0.096,0.654-0.289c0.108-0.193,0.173-0.385,0.196-0.578h1.734
			c0,0.363-0.06,0.703-0.179,1.02c-0.119,0.317-0.292,0.589-0.518,0.816c-0.227,0.238-0.499,0.425-0.816,0.561
			c-0.317,0.136-0.674,0.204-1.071,0.204c-0.533,0-0.992-0.113-1.377-0.34s-0.68-0.527-0.884-0.901
			c-0.125-0.227-0.209-0.487-0.255-0.782s-0.068-0.618-0.068-0.969V78.06c0-0.351,0.022-0.674,0.068-0.969
			c0.045-0.294,0.13-0.555,0.255-0.782c0.204-0.374,0.499-0.674,0.884-0.901s0.844-0.34,1.377-0.34c0.396,0,0.756,0.068,1.08,0.204
			c0.323,0.136,0.595,0.326,0.816,0.57s0.391,0.53,0.51,0.858c0.119,0.329,0.179,0.68,0.179,1.054v2.38H99.893z M99.893,78.773h1.7
			v-0.986c0-0.329-0.077-0.575-0.229-0.74c-0.153-0.164-0.36-0.246-0.621-0.246s-0.467,0.082-0.621,0.246
			c-0.153,0.165-0.229,0.411-0.229,0.74V78.773z"/>
		<path display="inline" fill="#6D6E71" d="M106.183,81.307c0,0.272,0.077,0.482,0.229,0.629c0.153,0.147,0.36,0.221,0.621,0.221
			c0.329,0,0.547-0.096,0.655-0.289c0.107-0.193,0.172-0.385,0.195-0.578h1.734c0,0.363-0.06,0.703-0.178,1.02
			c-0.119,0.317-0.292,0.589-0.519,0.816c-0.227,0.238-0.499,0.425-0.816,0.561c-0.317,0.136-0.675,0.204-1.071,0.204
			c-0.533,0-0.992-0.113-1.377-0.34s-0.68-0.527-0.884-0.901c-0.125-0.227-0.21-0.487-0.255-0.782s-0.068-0.618-0.068-0.969V78.06
			c0-0.351,0.022-0.674,0.068-0.969c0.045-0.294,0.13-0.555,0.255-0.782c0.204-0.374,0.499-0.674,0.884-0.901s0.844-0.34,1.377-0.34
			c0.396,0,0.757,0.068,1.08,0.204c0.323,0.136,0.595,0.326,0.816,0.57c0.221,0.244,0.391,0.535,0.51,0.875
			c0.119,0.34,0.178,0.708,0.178,1.105h-1.734c0-0.352-0.077-0.609-0.229-0.774c-0.153-0.164-0.36-0.246-0.621-0.246
			s-0.467,0.082-0.621,0.246c-0.153,0.165-0.229,0.411-0.229,0.74V81.307z"/>
		<path display="inline" fill="#6D6E71" d="M110.434,71.685h1.734v4.318h0.033c0.182-0.272,0.399-0.496,0.654-0.671
			c0.256-0.176,0.581-0.264,0.978-0.264c0.216,0,0.431,0.037,0.646,0.111c0.216,0.074,0.408,0.195,0.578,0.365
			s0.307,0.389,0.408,0.655c0.103,0.266,0.153,0.592,0.153,0.978v6.613h-1.733v-5.967c0-0.317-0.074-0.567-0.222-0.748
			s-0.356-0.272-0.629-0.272c-0.329,0-0.556,0.102-0.681,0.306c-0.124,0.204-0.186,0.499-0.186,0.884v5.797h-1.734V71.685z"/>
		<path display="inline" fill="#6D6E71" d="M116.961,75.169h1.734v0.833h0.033c0.182-0.272,0.4-0.496,0.655-0.671
			s0.581-0.264,0.978-0.264c0.215,0,0.43,0.037,0.646,0.111s0.408,0.195,0.578,0.365s0.306,0.389,0.408,0.655
			s0.153,0.592,0.153,0.978v6.613h-1.734v-5.967c0-0.317-0.074-0.567-0.221-0.748c-0.148-0.181-0.357-0.272-0.629-0.272
			c-0.329,0-0.556,0.102-0.681,0.306c-0.124,0.204-0.187,0.499-0.187,0.884v5.797h-1.734V75.169z"/>
		<path display="inline" fill="#6D6E71" d="M123.336,78.06c0-0.351,0.022-0.674,0.068-0.969c0.045-0.294,0.13-0.555,0.254-0.782
			c0.205-0.374,0.5-0.674,0.885-0.901s0.844-0.34,1.377-0.34s0.992,0.114,1.377,0.34s0.68,0.527,0.884,0.901
			c0.125,0.227,0.21,0.487,0.255,0.782c0.045,0.295,0.068,0.618,0.068,0.969v2.839c0,0.352-0.023,0.674-0.068,0.969
			s-0.13,0.555-0.255,0.782c-0.204,0.374-0.499,0.675-0.884,0.901s-0.844,0.34-1.377,0.34s-0.992-0.113-1.377-0.34
			s-0.68-0.527-0.885-0.901c-0.124-0.227-0.209-0.487-0.254-0.782c-0.046-0.295-0.068-0.618-0.068-0.969V78.06z M125.07,81.17
			c0,0.329,0.076,0.576,0.229,0.74c0.154,0.165,0.36,0.247,0.621,0.247s0.467-0.082,0.621-0.247c0.152-0.164,0.229-0.411,0.229-0.74
			v-3.383c0-0.329-0.076-0.575-0.229-0.74c-0.154-0.164-0.36-0.246-0.621-0.246s-0.467,0.082-0.621,0.246
			c-0.152,0.165-0.229,0.411-0.229,0.74V81.17z"/>
		<path display="inline" fill="#6D6E71" d="M129.592,71.685h1.734v9.673c0,0.329,0.059,0.553,0.178,0.672
			c0.119,0.119,0.344,0.195,0.672,0.229v1.632c-0.396,0-0.756-0.031-1.079-0.094c-0.323-0.062-0.595-0.181-0.816-0.357
			c-0.221-0.175-0.391-0.422-0.51-0.739s-0.179-0.725-0.179-1.224V71.685z"/>
		<path display="inline" fill="#6D6E71" d="M132.703,78.06c0-0.351,0.021-0.674,0.067-0.969c0.046-0.294,0.13-0.555,0.255-0.782
			c0.204-0.374,0.499-0.674,0.885-0.901c0.385-0.227,0.844-0.34,1.377-0.34c0.532,0,0.991,0.114,1.377,0.34
			c0.385,0.227,0.68,0.527,0.883,0.901c0.125,0.227,0.211,0.487,0.256,0.782c0.045,0.295,0.068,0.618,0.068,0.969v2.839
			c0,0.352-0.023,0.674-0.068,0.969s-0.131,0.555-0.256,0.782c-0.203,0.374-0.498,0.675-0.883,0.901
			c-0.386,0.227-0.845,0.34-1.377,0.34c-0.533,0-0.992-0.113-1.377-0.34c-0.386-0.227-0.681-0.527-0.885-0.901
			c-0.125-0.227-0.209-0.487-0.255-0.782s-0.067-0.618-0.067-0.969V78.06z M134.437,81.17c0,0.329,0.077,0.576,0.229,0.74
			c0.153,0.165,0.359,0.247,0.621,0.247c0.26,0,0.467-0.082,0.62-0.247c0.153-0.164,0.229-0.411,0.229-0.74v-3.383
			c0-0.329-0.076-0.575-0.229-0.74c-0.153-0.164-0.36-0.246-0.62-0.246c-0.262,0-0.468,0.082-0.621,0.246
			c-0.152,0.165-0.229,0.411-0.229,0.74V81.17z"/>
		<path display="inline" fill="#6D6E71" d="M140.88,84.792c0.011,0.204,0.093,0.396,0.246,0.578
			c0.153,0.181,0.377,0.272,0.672,0.272c0.282,0,0.487-0.088,0.612-0.264c0.124-0.176,0.187-0.399,0.187-0.671v-1.7h-0.034
			c-0.193,0.284-0.422,0.502-0.688,0.655s-0.575,0.229-0.927,0.229c-0.714,0-1.219-0.272-1.513-0.816
			c-0.103-0.193-0.176-0.431-0.221-0.714c-0.046-0.283-0.068-0.663-0.068-1.139V77.94c0-0.623,0.017-1.082,0.052-1.377
			c0.033-0.294,0.107-0.533,0.221-0.714c0.146-0.227,0.337-0.414,0.569-0.561c0.231-0.147,0.558-0.221,0.978-0.221
			c0.215,0,0.399,0.023,0.553,0.068c0.152,0.045,0.291,0.108,0.416,0.187s0.238,0.173,0.34,0.28c0.102,0.108,0.21,0.224,0.323,0.349
			v-0.782h1.733v9.673c0,0.294-0.048,0.592-0.145,0.892c-0.096,0.3-0.252,0.572-0.467,0.816c-0.215,0.243-0.487,0.442-0.816,0.595
			c-0.328,0.153-0.72,0.229-1.173,0.229c-0.261,0-0.532-0.042-0.815-0.127s-0.547-0.227-0.791-0.425
			c-0.244-0.199-0.453-0.462-0.629-0.791c-0.176-0.329-0.292-0.743-0.349-1.241H140.88z M140.88,81.137
			c0,0.272,0.06,0.51,0.179,0.714s0.342,0.306,0.671,0.306c0.249,0,0.456-0.088,0.62-0.264s0.247-0.399,0.247-0.671v-3.349
			c0-0.317-0.079-0.575-0.238-0.773s-0.368-0.297-0.629-0.297c-0.295,0-0.51,0.107-0.646,0.323c-0.137,0.215-0.204,0.499-0.204,0.85
			V81.137z"/>
		<path display="inline" fill="#6D6E71" d="M145.758,71.685h1.734v1.734h-1.734V71.685z M145.758,75.169h1.734v8.619h-1.734V75.169z
			"/>
		<path display="inline" fill="#6D6E71" d="M150.416,80.134v1.173c0,0.272,0.076,0.482,0.229,0.629
			c0.154,0.147,0.36,0.221,0.621,0.221c0.328,0,0.547-0.096,0.654-0.289s0.173-0.385,0.195-0.578h1.734
			c0,0.363-0.06,0.703-0.179,1.02c-0.118,0.317-0.292,0.589-0.519,0.816c-0.227,0.238-0.498,0.425-0.816,0.561
			c-0.316,0.136-0.674,0.204-1.07,0.204c-0.533,0-0.992-0.113-1.377-0.34s-0.68-0.527-0.885-0.901
			c-0.124-0.227-0.209-0.487-0.254-0.782c-0.046-0.295-0.068-0.618-0.068-0.969V78.06c0-0.351,0.022-0.674,0.068-0.969
			c0.045-0.294,0.13-0.555,0.254-0.782c0.205-0.374,0.5-0.674,0.885-0.901s0.844-0.34,1.377-0.34c0.396,0,0.756,0.068,1.08,0.204
			c0.322,0.136,0.594,0.326,0.815,0.57s0.392,0.53,0.51,0.858c0.119,0.329,0.179,0.68,0.179,1.054v2.38H150.416z M150.416,78.773
			h1.699v-0.986c0-0.329-0.076-0.575-0.229-0.74c-0.154-0.164-0.36-0.246-0.621-0.246s-0.467,0.082-0.621,0.246
			c-0.152,0.165-0.229,0.411-0.229,0.74V78.773z"/>
		<path display="inline" fill="#6D6E71" d="M158.015,77.583c-0.011-0.294-0.104-0.516-0.28-0.663
			c-0.176-0.147-0.377-0.221-0.604-0.221c-0.271,0-0.482,0.088-0.629,0.263c-0.147,0.176-0.221,0.377-0.221,0.604
			c0,0.159,0.039,0.314,0.119,0.468c0.078,0.153,0.283,0.292,0.611,0.417l1.02,0.408c0.646,0.25,1.092,0.589,1.335,1.02
			c0.243,0.431,0.366,0.901,0.366,1.411c0,0.363-0.066,0.7-0.196,1.012c-0.13,0.312-0.309,0.586-0.535,0.824
			c-0.228,0.238-0.499,0.425-0.816,0.561c-0.317,0.136-0.663,0.204-1.036,0.204c-0.341,0-0.664-0.057-0.97-0.17
			c-0.306-0.113-0.575-0.278-0.808-0.493s-0.422-0.484-0.569-0.808c-0.147-0.323-0.228-0.7-0.237-1.13h1.631
			c0.035,0.238,0.117,0.459,0.247,0.663s0.359,0.306,0.688,0.306c0.249,0,0.473-0.083,0.672-0.247
			c0.197-0.164,0.297-0.394,0.297-0.688c0-0.238-0.062-0.442-0.188-0.612c-0.124-0.17-0.351-0.317-0.68-0.442l-0.832-0.306
			c-0.545-0.204-0.973-0.507-1.284-0.909s-0.468-0.893-0.468-1.471c0-0.362,0.068-0.7,0.204-1.011
			c0.136-0.312,0.32-0.578,0.553-0.799c0.231-0.221,0.501-0.394,0.808-0.519c0.306-0.125,0.635-0.187,0.986-0.187
			c0.351,0,0.677,0.065,0.977,0.196c0.301,0.13,0.559,0.306,0.773,0.527c0.216,0.221,0.386,0.487,0.511,0.799
			c0.124,0.312,0.187,0.644,0.187,0.995H158.015z"/>
		<path display="inline" fill="#6D6E71" d="M167.127,83.006c-0.113,0.125-0.222,0.241-0.324,0.349
			c-0.102,0.108-0.215,0.202-0.34,0.281s-0.266,0.142-0.424,0.187c-0.16,0.045-0.347,0.068-0.562,0.068
			c-0.714,0-1.219-0.272-1.513-0.816c-0.103-0.193-0.176-0.431-0.221-0.714c-0.046-0.283-0.068-0.663-0.068-1.139V77.94
			c0-0.623,0.017-1.082,0.051-1.377c0.033-0.294,0.107-0.533,0.221-0.714c0.147-0.227,0.338-0.414,0.57-0.561
			c0.231-0.147,0.558-0.221,0.977-0.221c0.34,0,0.644,0.077,0.91,0.229c0.266,0.153,0.495,0.372,0.688,0.655h0.035v-4.267h1.733
			v12.104h-1.733V83.006z M165.41,80.983c0,0.352,0.067,0.635,0.203,0.85c0.137,0.215,0.352,0.323,0.646,0.323
			c0.26,0,0.47-0.099,0.629-0.298c0.158-0.198,0.238-0.456,0.238-0.773v-3.349c0-0.272-0.083-0.496-0.247-0.672
			c-0.165-0.175-0.371-0.263-0.62-0.263c-0.329,0-0.553,0.102-0.672,0.306c-0.119,0.204-0.178,0.442-0.178,0.714V80.983z"/>
		<path display="inline" fill="#6D6E71" d="M171.784,80.134v1.173c0,0.272,0.077,0.482,0.229,0.629
			c0.153,0.147,0.359,0.221,0.621,0.221c0.328,0,0.547-0.096,0.654-0.289s0.172-0.385,0.195-0.578h1.734
			c0,0.363-0.061,0.703-0.18,1.02c-0.118,0.317-0.291,0.589-0.518,0.816c-0.227,0.238-0.499,0.425-0.816,0.561
			c-0.317,0.136-0.674,0.204-1.07,0.204c-0.533,0-0.992-0.113-1.377-0.34c-0.386-0.227-0.681-0.527-0.885-0.901
			c-0.125-0.227-0.209-0.487-0.255-0.782s-0.067-0.618-0.067-0.969V78.06c0-0.351,0.021-0.674,0.067-0.969
			c0.046-0.294,0.13-0.555,0.255-0.782c0.204-0.374,0.499-0.674,0.885-0.901c0.385-0.227,0.844-0.34,1.377-0.34
			c0.396,0,0.756,0.068,1.079,0.204c0.323,0.136,0.595,0.326,0.815,0.57c0.222,0.244,0.392,0.53,0.51,0.858
			c0.119,0.329,0.18,0.68,0.18,1.054v2.38H171.784z M171.784,78.773h1.7v-0.986c0-0.329-0.076-0.575-0.229-0.74
			c-0.153-0.164-0.36-0.246-0.62-0.246c-0.262,0-0.468,0.082-0.621,0.246c-0.152,0.165-0.229,0.411-0.229,0.74V78.773z"/>
		<path display="inline" fill="#6D6E71" d="M179.365,76.53h-0.85v-1.36h0.85v-1.173c0-0.419,0.062-0.773,0.188-1.062
			s0.291-0.527,0.502-0.714c0.209-0.187,0.447-0.323,0.713-0.408c0.267-0.085,0.541-0.127,0.825-0.127h0.799v1.632h-0.782
			c-0.34,0-0.51,0.199-0.51,0.595v1.258h1.292v1.36H181.1v7.259h-1.734V76.53z"/>
		<path display="inline" fill="#6D6E71" d="M182.681,78.06c0-0.351,0.022-0.674,0.067-0.969c0.046-0.294,0.131-0.555,0.256-0.782
			c0.203-0.374,0.498-0.674,0.884-0.901s0.845-0.34,1.377-0.34s0.991,0.114,1.377,0.34s0.681,0.527,0.884,0.901
			c0.125,0.227,0.21,0.487,0.256,0.782c0.045,0.295,0.067,0.618,0.067,0.969v2.839c0,0.352-0.022,0.674-0.067,0.969
			c-0.046,0.295-0.131,0.555-0.256,0.782c-0.203,0.374-0.498,0.675-0.884,0.901s-0.845,0.34-1.377,0.34s-0.991-0.113-1.377-0.34
			s-0.681-0.527-0.884-0.901c-0.125-0.227-0.21-0.487-0.256-0.782c-0.045-0.295-0.067-0.618-0.067-0.969V78.06z M184.414,81.17
			c0,0.329,0.077,0.576,0.23,0.74c0.152,0.165,0.359,0.247,0.62,0.247s0.468-0.082,0.62-0.247c0.153-0.164,0.23-0.411,0.23-0.74
			v-3.383c0-0.329-0.077-0.575-0.23-0.74c-0.152-0.164-0.359-0.246-0.62-0.246s-0.468,0.082-0.62,0.246
			c-0.153,0.165-0.23,0.411-0.23,0.74V81.17z"/>
		<path display="inline" fill="#6D6E71" d="M188.953,75.169h1.734v0.918c0.352-0.317,0.697-0.566,1.037-0.748
			c0.34-0.181,0.76-0.272,1.258-0.272v1.836c-0.17-0.068-0.346-0.102-0.527-0.102c-0.181,0-0.377,0.031-0.586,0.093
			c-0.21,0.062-0.402,0.167-0.578,0.314c-0.176,0.147-0.32,0.34-0.434,0.578s-0.17,0.533-0.17,0.884v5.117h-1.734V75.169z"/>
		<path display="inline" fill="#6D6E71" d="M193.68,75.169h1.734v0.833h0.033c0.182-0.272,0.4-0.496,0.655-0.671
			s0.581-0.264,0.978-0.264c0.373,0,0.686,0.091,0.935,0.272c0.249,0.182,0.453,0.38,0.612,0.595
			c0.215-0.238,0.453-0.442,0.714-0.612c0.261-0.17,0.623-0.255,1.088-0.255c0.216,0,0.437,0.037,0.663,0.111
			s0.431,0.195,0.611,0.365c0.182,0.17,0.329,0.389,0.443,0.655c0.112,0.266,0.17,0.592,0.17,0.978v6.613h-1.734v-5.967
			c0-0.317-0.074-0.567-0.221-0.748c-0.148-0.181-0.357-0.272-0.629-0.272c-0.33,0-0.557,0.102-0.681,0.306
			c-0.125,0.204-0.187,0.499-0.187,0.884v5.797h-1.734v-5.967c0-0.317-0.074-0.567-0.221-0.748
			c-0.148-0.181-0.357-0.272-0.629-0.272c-0.329,0-0.556,0.102-0.681,0.306c-0.124,0.204-0.187,0.499-0.187,0.884v5.797h-1.734
			V75.169z"/>
		<path display="inline" fill="#6D6E71" d="M207.025,82.905h-0.035c-0.227,0.317-0.455,0.561-0.688,0.731
			c-0.232,0.17-0.559,0.255-0.979,0.255c-0.203,0-0.413-0.031-0.629-0.094c-0.215-0.062-0.416-0.175-0.604-0.34
			c-0.187-0.164-0.34-0.396-0.459-0.697s-0.178-0.688-0.178-1.165c0-0.487,0.039-0.915,0.119-1.284
			c0.078-0.368,0.223-0.674,0.434-0.918c0.209-0.244,0.49-0.425,0.841-0.544s0.8-0.179,1.343-0.179c0.125,0,0.25,0.006,0.375,0.017
			c0.124,0.012,0.277,0.023,0.459,0.034v-0.901c0-0.295-0.062-0.539-0.188-0.731c-0.125-0.192-0.352-0.289-0.68-0.289
			c-0.227,0-0.434,0.074-0.621,0.221c-0.188,0.147-0.309,0.363-0.365,0.646h-1.684c0.057-0.782,0.318-1.405,0.783-1.87
			c0.227-0.227,0.498-0.405,0.815-0.535s0.674-0.196,1.071-0.196c0.362,0,0.702,0.057,1.02,0.17s0.592,0.283,0.824,0.51
			c0.232,0.227,0.417,0.51,0.553,0.85c0.137,0.34,0.204,0.737,0.204,1.19v6.001h-1.733V82.905z M207.025,80.083
			c-0.193-0.034-0.352-0.051-0.477-0.051c-0.374,0-0.694,0.088-0.961,0.263c-0.266,0.176-0.398,0.496-0.398,0.96
			c0,0.329,0.078,0.595,0.237,0.799s0.38,0.306,0.663,0.306c0.295,0,0.523-0.096,0.688-0.289c0.164-0.193,0.247-0.465,0.247-0.816
			V80.083z"/>
		<path display="inline" fill="#6D6E71" d="M210.033,72.552h1.734v2.618h1.071v1.36h-1.071v4.777c0,0.204,0.02,0.363,0.06,0.476
			s0.103,0.198,0.187,0.255c0.086,0.057,0.196,0.091,0.332,0.102c0.137,0.011,0.301,0.017,0.493,0.017v1.632h-0.714
			c-0.396,0-0.729-0.062-0.994-0.187c-0.268-0.125-0.479-0.283-0.639-0.476c-0.158-0.192-0.274-0.411-0.348-0.654
			c-0.074-0.244-0.111-0.479-0.111-0.706V76.53h-0.866v-1.36h0.866V72.552z"/>
		<path display="inline" fill="#6D6E71" d="M213.586,71.685h1.734v1.734h-1.734V71.685z M213.586,75.169h1.734v8.619h-1.734V75.169z
			"/>
		<path display="inline" fill="#6D6E71" d="M216.426,78.06c0-0.351,0.021-0.674,0.067-0.969c0.046-0.294,0.13-0.555,0.255-0.782
			c0.204-0.374,0.499-0.674,0.885-0.901c0.385-0.227,0.844-0.34,1.377-0.34c0.532,0,0.991,0.114,1.377,0.34
			c0.385,0.227,0.68,0.527,0.883,0.901c0.125,0.227,0.211,0.487,0.256,0.782c0.045,0.295,0.068,0.618,0.068,0.969v2.839
			c0,0.352-0.023,0.674-0.068,0.969s-0.131,0.555-0.256,0.782c-0.203,0.374-0.498,0.675-0.883,0.901
			c-0.386,0.227-0.845,0.34-1.377,0.34c-0.533,0-0.992-0.113-1.377-0.34c-0.386-0.227-0.681-0.527-0.885-0.901
			c-0.125-0.227-0.209-0.487-0.255-0.782s-0.067-0.618-0.067-0.969V78.06z M218.159,81.17c0,0.329,0.077,0.576,0.229,0.74
			c0.153,0.165,0.359,0.247,0.621,0.247c0.26,0,0.467-0.082,0.62-0.247c0.153-0.164,0.229-0.411,0.229-0.74v-3.383
			c0-0.329-0.076-0.575-0.229-0.74c-0.153-0.164-0.36-0.246-0.62-0.246c-0.262,0-0.468,0.082-0.621,0.246
			c-0.152,0.165-0.229,0.411-0.229,0.74V81.17z"/>
		<path display="inline" fill="#6D6E71" d="M222.868,75.169h1.734v0.833h0.034c0.181-0.272,0.398-0.496,0.654-0.671
			c0.255-0.176,0.58-0.264,0.977-0.264c0.216,0,0.432,0.037,0.646,0.111s0.408,0.195,0.578,0.365s0.307,0.389,0.408,0.655
			s0.152,0.592,0.152,0.978v6.613h-1.733v-5.967c0-0.317-0.073-0.567-0.222-0.748c-0.146-0.181-0.356-0.272-0.629-0.272
			c-0.328,0-0.555,0.102-0.68,0.306c-0.125,0.204-0.187,0.499-0.187,0.884v5.797h-1.734V75.169z"/>
		<path display="inline" fill="#6D6E71" d="M95.303,96.134v1.173c0,0.272,0.077,0.482,0.229,0.629
			c0.153,0.147,0.36,0.221,0.621,0.221c0.329,0,0.547-0.096,0.654-0.289c0.108-0.193,0.173-0.385,0.196-0.578h1.734
			c0,0.363-0.06,0.703-0.179,1.02c-0.119,0.317-0.292,0.589-0.518,0.816c-0.227,0.238-0.499,0.425-0.816,0.561
			c-0.317,0.136-0.674,0.204-1.071,0.204c-0.533,0-0.992-0.113-1.377-0.34s-0.68-0.527-0.884-0.901
			c-0.125-0.227-0.209-0.487-0.255-0.782s-0.068-0.618-0.068-0.969V94.06c0-0.351,0.022-0.674,0.068-0.969
			c0.045-0.294,0.13-0.555,0.255-0.782c0.204-0.374,0.499-0.674,0.884-0.901s0.844-0.34,1.377-0.34c0.396,0,0.756,0.068,1.08,0.204
			c0.323,0.136,0.595,0.326,0.816,0.57s0.391,0.53,0.51,0.858c0.119,0.329,0.179,0.68,0.179,1.054v2.38H95.303z M95.303,94.773h1.7
			v-0.986c0-0.329-0.077-0.575-0.229-0.74c-0.153-0.164-0.36-0.246-0.621-0.246s-0.467,0.082-0.621,0.246
			c-0.153,0.165-0.229,0.411-0.229,0.74V94.773z"/>
		<path display="inline" fill="#6D6E71" d="M100.012,88.552h1.734v2.618h1.071v1.36h-1.071v4.777c0,0.204,0.02,0.363,0.059,0.476
			s0.102,0.198,0.187,0.255s0.196,0.091,0.332,0.102c0.136,0.011,0.3,0.017,0.493,0.017v1.632h-0.714
			c-0.397,0-0.729-0.062-0.995-0.187c-0.267-0.125-0.479-0.283-0.638-0.476c-0.159-0.192-0.275-0.411-0.348-0.654
			c-0.074-0.244-0.111-0.479-0.111-0.706V92.53h-0.867v-1.36h0.867V88.552z"/>
		<path display="inline" fill="#6D6E71" d="M109.923,98.905h-0.034c-0.227,0.317-0.456,0.561-0.688,0.731
			c-0.232,0.17-0.558,0.255-0.978,0.255c-0.204,0-0.414-0.031-0.629-0.094c-0.215-0.062-0.417-0.175-0.604-0.34
			c-0.187-0.164-0.34-0.396-0.459-0.697s-0.179-0.688-0.179-1.165c0-0.487,0.04-0.915,0.119-1.284
			c0.079-0.368,0.224-0.674,0.434-0.918c0.209-0.244,0.49-0.425,0.841-0.544s0.799-0.179,1.343-0.179
			c0.125,0,0.249,0.006,0.374,0.017c0.125,0.012,0.277,0.023,0.459,0.034v-0.901c0-0.295-0.062-0.539-0.187-0.731
			c-0.125-0.192-0.352-0.289-0.681-0.289c-0.227,0-0.434,0.074-0.621,0.221c-0.187,0.147-0.309,0.363-0.365,0.646h-1.683
			c0.057-0.782,0.317-1.405,0.782-1.87c0.227-0.227,0.499-0.405,0.816-0.535c0.317-0.13,0.674-0.196,1.071-0.196
			c0.363,0,0.702,0.057,1.021,0.17c0.316,0.113,0.592,0.283,0.824,0.51c0.232,0.227,0.416,0.51,0.553,0.85
			c0.136,0.34,0.203,0.737,0.203,1.19v6.001h-1.733V98.905z M109.923,96.083c-0.192-0.034-0.352-0.051-0.476-0.051
			c-0.374,0-0.694,0.088-0.96,0.263c-0.267,0.176-0.399,0.496-0.399,0.96c0,0.329,0.079,0.595,0.238,0.799s0.379,0.306,0.663,0.306
			c0.294,0,0.524-0.096,0.688-0.289s0.247-0.465,0.247-0.816V96.083z"/>
		<path display="inline" fill="#6D6E71" d="M112.932,91.169h1.734v0.782c0.215-0.249,0.436-0.459,0.662-0.629
			c0.227-0.17,0.556-0.255,0.986-0.255c0.715,0,1.219,0.272,1.514,0.816c0.102,0.193,0.176,0.431,0.221,0.714
			s0.068,0.663,0.068,1.139v3.281c0,0.624-0.018,1.083-0.051,1.377c-0.035,0.295-0.108,0.533-0.222,0.714
			c-0.147,0.227-0.337,0.414-0.569,0.561c-0.232,0.147-0.559,0.221-0.978,0.221c-0.34,0-0.644-0.077-0.909-0.229
			c-0.267-0.153-0.496-0.371-0.689-0.655h-0.033v4.267h-1.734V91.169z M116.383,93.975c0-0.351-0.068-0.635-0.204-0.85
			s-0.352-0.323-0.646-0.323c-0.262,0-0.471,0.099-0.629,0.297c-0.159,0.198-0.238,0.456-0.238,0.773v3.349
			c0,0.272,0.082,0.496,0.246,0.671s0.371,0.264,0.621,0.264c0.328,0,0.553-0.102,0.671-0.306c0.119-0.204,0.179-0.442,0.179-0.714
			V93.975z"/>
		<path display="inline" fill="#6D6E71" d="M119.494,91.169h1.734v0.782c0.215-0.249,0.436-0.459,0.662-0.629
			c0.227-0.17,0.555-0.255,0.986-0.255c0.714,0,1.218,0.272,1.513,0.816c0.103,0.193,0.176,0.431,0.222,0.714
			c0.045,0.283,0.067,0.663,0.067,1.139v3.281c0,0.624-0.017,1.083-0.051,1.377c-0.034,0.295-0.108,0.533-0.222,0.714
			c-0.146,0.227-0.337,0.414-0.568,0.561c-0.232,0.147-0.559,0.221-0.979,0.221c-0.34,0-0.643-0.077-0.909-0.229
			s-0.495-0.371-0.688-0.655h-0.033v4.267h-1.734V91.169z M122.945,93.975c0-0.351-0.068-0.635-0.205-0.85
			c-0.135-0.215-0.352-0.323-0.646-0.323c-0.261,0-0.47,0.099-0.629,0.297s-0.237,0.456-0.237,0.773v3.349
			c0,0.272,0.082,0.496,0.246,0.671s0.371,0.264,0.62,0.264c0.329,0,0.553-0.102,0.671-0.306c0.119-0.204,0.18-0.442,0.18-0.714
			V93.975z"/>
		<path display="inline" fill="#6D6E71" d="M126.021,91.169h1.734v0.918c0.351-0.317,0.696-0.566,1.036-0.748
			c0.341-0.181,0.759-0.272,1.259-0.272v1.836c-0.17-0.068-0.347-0.102-0.527-0.102c-0.182,0-0.377,0.031-0.587,0.093
			c-0.21,0.062-0.402,0.167-0.578,0.314c-0.176,0.147-0.32,0.34-0.433,0.578c-0.114,0.238-0.17,0.533-0.17,0.884v5.117h-1.734
			V91.169z"/>
		<path display="inline" fill="#6D6E71" d="M132.328,96.134v1.173c0,0.272,0.076,0.482,0.229,0.629
			c0.153,0.147,0.36,0.221,0.62,0.221c0.329,0,0.547-0.096,0.654-0.289c0.108-0.193,0.174-0.385,0.196-0.578h1.733
			c0,0.363-0.059,0.703-0.178,1.02s-0.292,0.589-0.519,0.816c-0.228,0.238-0.499,0.425-0.816,0.561
			c-0.317,0.136-0.675,0.204-1.071,0.204c-0.532,0-0.991-0.113-1.377-0.34c-0.385-0.227-0.68-0.527-0.884-0.901
			c-0.124-0.227-0.21-0.487-0.255-0.782s-0.068-0.618-0.068-0.969V94.06c0-0.351,0.023-0.674,0.068-0.969
			c0.045-0.294,0.131-0.555,0.255-0.782c0.204-0.374,0.499-0.674,0.884-0.901c0.386-0.227,0.845-0.34,1.377-0.34
			c0.396,0,0.757,0.068,1.08,0.204c0.322,0.136,0.595,0.326,0.816,0.57c0.221,0.244,0.391,0.53,0.51,0.858s0.178,0.68,0.178,1.054
			v2.38H132.328z M132.328,94.773h1.7v-0.986c0-0.329-0.077-0.575-0.229-0.74c-0.153-0.164-0.359-0.246-0.621-0.246
			c-0.26,0-0.467,0.082-0.62,0.246c-0.153,0.165-0.229,0.411-0.229,0.74V94.773z"/>
		<path display="inline" fill="#6D6E71" d="M137.037,91.169h1.734v0.833h0.033c0.182-0.272,0.4-0.496,0.655-0.671
			s0.581-0.264,0.978-0.264c0.215,0,0.43,0.037,0.646,0.111s0.408,0.195,0.578,0.365s0.306,0.389,0.408,0.655
			s0.153,0.592,0.153,0.978v6.613h-1.734v-5.967c0-0.317-0.074-0.567-0.221-0.748c-0.148-0.181-0.357-0.272-0.629-0.272
			c-0.329,0-0.556,0.102-0.681,0.306c-0.124,0.204-0.187,0.499-0.187,0.884v5.797h-1.734V91.169z"/>
		<path display="inline" fill="#6D6E71" d="M143.65,88.552h1.734v2.618h1.07v1.36h-1.07v4.777c0,0.204,0.02,0.363,0.059,0.476
			s0.102,0.198,0.188,0.255c0.084,0.057,0.195,0.091,0.331,0.102s0.3,0.017,0.493,0.017v1.632h-0.714
			c-0.397,0-0.729-0.062-0.995-0.187c-0.266-0.125-0.479-0.283-0.637-0.476c-0.159-0.192-0.275-0.411-0.349-0.654
			c-0.074-0.244-0.11-0.479-0.11-0.706V92.53h-0.867v-1.36h0.867V88.552z"/>
		<path display="inline" fill="#6D6E71" d="M147.117,87.685h1.734v1.734h-1.734V87.685z M147.117,91.169h1.734v8.619h-1.734V91.169z
			"/>
		<path display="inline" fill="#6D6E71" d="M153.424,93.583c-0.011-0.294-0.104-0.516-0.279-0.663
			c-0.176-0.147-0.377-0.221-0.604-0.221c-0.272,0-0.482,0.088-0.629,0.263c-0.148,0.176-0.222,0.377-0.222,0.604
			c0,0.159,0.04,0.314,0.119,0.468c0.079,0.153,0.283,0.292,0.612,0.417l1.02,0.408c0.646,0.25,1.091,0.589,1.334,1.02
			c0.244,0.431,0.366,0.901,0.366,1.411c0,0.363-0.065,0.7-0.196,1.012c-0.13,0.312-0.309,0.586-0.535,0.824
			c-0.227,0.238-0.498,0.425-0.816,0.561c-0.316,0.136-0.662,0.204-1.036,0.204c-0.341,0-0.663-0.057-0.97-0.17
			c-0.306-0.113-0.574-0.278-0.807-0.493s-0.423-0.484-0.57-0.808c-0.146-0.323-0.227-0.7-0.237-1.13h1.632
			c0.034,0.238,0.116,0.459,0.246,0.663c0.131,0.204,0.359,0.306,0.689,0.306c0.248,0,0.473-0.083,0.671-0.247
			s0.298-0.394,0.298-0.688c0-0.238-0.062-0.442-0.188-0.612s-0.352-0.317-0.68-0.442l-0.833-0.306
			c-0.544-0.204-0.972-0.507-1.284-0.909c-0.312-0.402-0.467-0.893-0.467-1.471c0-0.362,0.068-0.7,0.203-1.011
			c0.137-0.312,0.32-0.578,0.553-0.799c0.232-0.221,0.502-0.394,0.809-0.519c0.305-0.125,0.634-0.187,0.985-0.187
			c0.351,0,0.677,0.065,0.978,0.196s0.559,0.306,0.773,0.527s0.385,0.487,0.51,0.799c0.125,0.312,0.188,0.644,0.188,0.995H153.424z"
			/>
		<path display="inline" fill="#6D6E71" d="M159.256,93.583c-0.012-0.294-0.105-0.516-0.281-0.663
			c-0.176-0.147-0.377-0.221-0.604-0.221c-0.271,0-0.481,0.088-0.629,0.263c-0.146,0.176-0.221,0.377-0.221,0.604
			c0,0.159,0.039,0.314,0.119,0.468c0.079,0.153,0.283,0.292,0.611,0.417l1.021,0.408c0.646,0.25,1.091,0.589,1.335,1.02
			c0.243,0.431,0.365,0.901,0.365,1.411c0,0.363-0.065,0.7-0.195,1.012c-0.131,0.312-0.309,0.586-0.535,0.824
			c-0.228,0.238-0.5,0.425-0.816,0.561c-0.318,0.136-0.663,0.204-1.037,0.204c-0.34,0-0.663-0.057-0.969-0.17
			c-0.307-0.113-0.576-0.278-0.809-0.493s-0.422-0.484-0.568-0.808c-0.148-0.323-0.228-0.7-0.238-1.13h1.632
			c0.034,0.238,0.116,0.459,0.247,0.663c0.129,0.204,0.359,0.306,0.688,0.306c0.25,0,0.474-0.083,0.672-0.247
			s0.297-0.394,0.297-0.688c0-0.238-0.062-0.442-0.187-0.612s-0.351-0.317-0.68-0.442l-0.833-0.306
			c-0.544-0.204-0.973-0.507-1.283-0.909c-0.312-0.402-0.468-0.893-0.468-1.471c0-0.362,0.067-0.7,0.204-1.011
			c0.136-0.312,0.32-0.578,0.553-0.799c0.231-0.221,0.501-0.394,0.807-0.519c0.307-0.125,0.635-0.187,0.986-0.187
			s0.678,0.065,0.978,0.196s0.558,0.306,0.773,0.527s0.386,0.487,0.511,0.799c0.124,0.312,0.187,0.644,0.187,0.995H159.256z"/>
		<path display="inline" fill="#6D6E71" d="M165.375,98.905h-0.033c-0.227,0.317-0.457,0.561-0.689,0.731
			c-0.232,0.17-0.558,0.255-0.977,0.255c-0.205,0-0.414-0.031-0.629-0.094c-0.216-0.062-0.417-0.175-0.604-0.34
			c-0.188-0.164-0.34-0.396-0.459-0.697s-0.18-0.688-0.18-1.165c0-0.487,0.04-0.915,0.119-1.284c0.08-0.368,0.225-0.674,0.434-0.918
			c0.21-0.244,0.49-0.425,0.842-0.544s0.799-0.179,1.344-0.179c0.124,0,0.248,0.006,0.373,0.017
			c0.125,0.012,0.277,0.023,0.459,0.034v-0.901c0-0.295-0.062-0.539-0.187-0.731c-0.125-0.192-0.352-0.289-0.681-0.289
			c-0.227,0-0.434,0.074-0.62,0.221c-0.187,0.147-0.309,0.363-0.365,0.646h-1.683c0.057-0.782,0.316-1.405,0.781-1.87
			c0.227-0.227,0.499-0.405,0.816-0.535c0.316-0.13,0.674-0.196,1.07-0.196c0.363,0,0.703,0.057,1.021,0.17s0.593,0.283,0.825,0.51
			c0.231,0.227,0.416,0.51,0.552,0.85s0.204,0.737,0.204,1.19v6.001h-1.734V98.905z M165.375,96.083
			c-0.192-0.034-0.352-0.051-0.476-0.051c-0.374,0-0.694,0.088-0.96,0.263c-0.268,0.176-0.4,0.496-0.4,0.96
			c0,0.329,0.08,0.595,0.238,0.799s0.379,0.306,0.663,0.306c0.294,0,0.524-0.096,0.688-0.289s0.246-0.465,0.246-0.816V96.083z"/>
		<path display="inline" fill="#6D6E71" d="M170.119,100.792c0.01,0.204,0.093,0.396,0.246,0.578
			c0.152,0.181,0.377,0.272,0.672,0.272c0.282,0,0.486-0.088,0.611-0.264s0.188-0.399,0.188-0.671v-1.7h-0.035
			c-0.192,0.284-0.422,0.502-0.688,0.655c-0.267,0.153-0.576,0.229-0.927,0.229c-0.714,0-1.219-0.272-1.513-0.816
			c-0.103-0.193-0.176-0.431-0.221-0.714c-0.046-0.283-0.068-0.663-0.068-1.139V93.94c0-0.623,0.017-1.082,0.051-1.377
			c0.033-0.294,0.107-0.533,0.221-0.714c0.147-0.227,0.338-0.414,0.57-0.561c0.231-0.147,0.558-0.221,0.977-0.221
			c0.215,0,0.4,0.023,0.553,0.068s0.291,0.108,0.416,0.187s0.238,0.173,0.34,0.28c0.103,0.108,0.211,0.224,0.324,0.349v-0.782h1.733
			v9.673c0,0.294-0.048,0.592-0.145,0.892s-0.253,0.572-0.468,0.816c-0.215,0.243-0.486,0.442-0.815,0.595
			c-0.329,0.153-0.72,0.229-1.173,0.229c-0.262,0-0.533-0.042-0.816-0.127s-0.547-0.227-0.791-0.425
			c-0.243-0.199-0.453-0.462-0.629-0.791c-0.176-0.329-0.291-0.743-0.348-1.241H170.119z M170.119,97.137
			c0,0.272,0.059,0.51,0.178,0.714s0.343,0.306,0.672,0.306c0.249,0,0.455-0.088,0.62-0.264c0.164-0.176,0.247-0.399,0.247-0.671
			v-3.349c0-0.317-0.08-0.575-0.238-0.773c-0.159-0.198-0.369-0.297-0.629-0.297c-0.295,0-0.51,0.107-0.646,0.323
			c-0.136,0.215-0.203,0.499-0.203,0.85V97.137z"/>
		<path display="inline" fill="#6D6E71" d="M176.578,96.134v1.173c0,0.272,0.076,0.482,0.229,0.629
			c0.153,0.147,0.36,0.221,0.62,0.221c0.329,0,0.547-0.096,0.654-0.289c0.108-0.193,0.174-0.385,0.196-0.578h1.733
			c0,0.363-0.059,0.703-0.178,1.02s-0.292,0.589-0.519,0.816c-0.228,0.238-0.499,0.425-0.816,0.561
			c-0.317,0.136-0.675,0.204-1.071,0.204c-0.532,0-0.991-0.113-1.377-0.34c-0.385-0.227-0.68-0.527-0.884-0.901
			c-0.124-0.227-0.21-0.487-0.255-0.782s-0.068-0.618-0.068-0.969V94.06c0-0.351,0.023-0.674,0.068-0.969
			c0.045-0.294,0.131-0.555,0.255-0.782c0.204-0.374,0.499-0.674,0.884-0.901c0.386-0.227,0.845-0.34,1.377-0.34
			c0.396,0,0.757,0.068,1.08,0.204c0.322,0.136,0.595,0.326,0.816,0.57c0.221,0.244,0.391,0.53,0.51,0.858s0.178,0.68,0.178,1.054
			v2.38H176.578z M176.578,94.773h1.7v-0.986c0-0.329-0.077-0.575-0.229-0.74c-0.153-0.164-0.359-0.246-0.621-0.246
			c-0.26,0-0.467,0.082-0.62,0.246c-0.153,0.165-0.229,0.411-0.229,0.74V94.773z"/>
	</g>
	<circle id="XMLID_7_" fill="#DA7A29" cx="71.748" cy="363.088" r="8.996"/>
	<circle id="XMLID_4_" fill="#7F71A2" cx="29.853" cy="343.468" r="8.966"/>
	<circle id="XMLID_2_" fill="#60C4EC" cx="11.317" cy="294.949" r="8.967"/>
	<circle id="XMLID_1_" fill="#A2BC3A" cx="72.022" cy="282.678" r="8.955"/>
	<path id="Logo_Bleu_tecfa" fill="#005B86" d="M71.79,352.136l-6.521-17.201c3.458-2.741,5.683-6.971,5.683-11.726
		c0-4.706-2.178-8.9-5.574-11.644l6.685-17.156c6.236-0.021,11.304-5.102,11.304-11.343c0-6.255-5.089-11.345-11.344-11.345
		c-6.256,0-11.344,5.09-11.344,11.345c0,3.403,1.512,6.452,3.893,8.533l-6.546,16.8c-0.669-0.092-1.347-0.155-2.04-0.155
		c-4.121,0-7.852,1.666-10.559,4.359l-23.098-14.47c0.227-0.893,0.361-1.822,0.361-2.785c0-6.256-5.09-11.346-11.346-11.346
		C5.089,284.003,0,289.093,0,295.349s5.089,11.345,11.344,11.345c2.375,0,4.58-0.737,6.404-1.989l23.732,14.867
		c-0.293,1.166-0.465,2.381-0.465,3.638c0,2.069,0.421,4.042,1.181,5.835l-6.345,5.201c-1.743-1.092-3.795-1.733-6-1.733
		c-6.255,0-11.344,5.089-11.344,11.345c0,6.254,5.089,11.343,11.344,11.343c6.256,0,11.345-5.089,11.345-11.343
		c0-1.131-0.171-2.223-0.481-3.254l6.47-5.305c2.472,1.803,5.507,2.879,8.8,2.879c0.646,0,1.281-0.055,1.906-0.135l6.408,16.901
		c-2.382,2.081-3.896,5.13-3.896,8.533c0,6.257,5.089,11.347,11.345,11.347s11.344-5.09,11.344-11.347
		C83.092,357.235,78.026,352.158,71.79,352.136z M11.344,303.693c-4.601,0-8.344-3.743-8.344-8.345s3.743-8.346,8.344-8.346
		c4.602,0,8.346,3.744,8.346,8.346S15.946,303.693,11.344,303.693z M29.852,352.199c-4.601,0-8.344-3.743-8.344-8.343
		c0-4.602,3.743-8.345,8.344-8.345c4.602,0,8.345,3.743,8.345,8.345C38.197,348.456,34.454,352.199,29.852,352.199z M63.678,283.066
		c0-4.601,3.742-8.345,8.344-8.345c4.601,0,8.344,3.744,8.344,8.345s-3.743,8.345-8.344,8.345
		C67.42,291.411,63.678,287.667,63.678,283.066z M71.749,371.823c-4.602,0-8.345-3.744-8.345-8.347c0-4.601,3.743-8.343,8.345-8.343
		s8.344,3.742,8.344,8.343C80.092,368.079,76.35,371.823,71.749,371.823z"/>
	<rect x="754.328" fill="none" width="169.853" height="420.588"/>
	<text transform="matrix(1 0 0 1 754.3276 8.6279)"><tspan x="0" y="0" font-family="'Helvetica'" font-size="12">bleu TECFA</tspan><tspan x="0" y="14.4" font-family="'Helvetica'" font-size="12">C=96 M=58 Y=23 K=15</tspan><tspan x="0" y="28.8" font-family="'Helvetica'" font-size="12">r=0 g=91 b=134</tspan><tspan x="0" y="57.6" font-family="'Helvetica'" font-size="12">texte gris</tspan><tspan x="0" y="72" font-family="'Helvetica'" font-size="12">K=70%</tspan><tspan x="0" y="100.8" font-family="'Helvetica'" font-size="12">noeud vert </tspan><tspan x="0" y="115.2" font-family="'Helvetica'" font-size="12">C=42 M=10 Y=100 K=0</tspan><tspan x="0" y="129.6" font-family="'Helvetica'" font-size="12">r=162 g=188 b=58</tspan><tspan x="0" y="144" font-family="'Helvetica'" font-size="12">K=20%</tspan><tspan x="0" y="172.8" font-family="'Helvetica'" font-size="12">noeud bleu</tspan><tspan x="0" y="187.2" font-family="'Helvetica'" font-size="12">C=55 M=3 Y=1 K=0</tspan><tspan x="0" y="201.6" font-family="'Helvetica'" font-size="12">r</tspan><tspan x="3.996" y="201.6" font-family="'Helvetica'" font-size="12">=</tspan><tspan x="11.244" y="201.6" font-family="'Helvetica'" font-size="12">97 g=197 b=237</tspan><tspan x="0" y="216" font-family="'Helvetica'" font-size="12">K=40%</tspan><tspan x="0" y="244.8" font-family="'Helvetica'" font-size="12">noeud violet</tspan><tspan x="0" y="259.2" font-family="'Helvetica'" font-size="12">C=57 M=60 Y=13 K=0</tspan><tspan x="0" y="273.6" font-family="'Helvetica'" font-size="12">r=127 g=113 b=163</tspan><tspan x="0" y="288" font-family="'Helvetica'" font-size="12">K=80%</tspan><tspan x="0" y="316.8" font-family="'Helvetica'" font-size="12">noeud orange</tspan><tspan x="0" y="331.2" font-family="'Helvetica'" font-size="12">C=13 M=62 Y=100 K=0</tspan><tspan x="0" y="345.6" font-family="'Helvetica'" font-size="12">r=218 g=122 b=41</tspan><tspan x="0" y="360" font-family="'Helvetica'" font-size="12">K=60%</tspan></text>
	<text transform="matrix(1 0 0 1 17.3423 -210.0083)" font-family="'DINAlternate-Bold'" font-size="12">DIN Alternate Bold</text>
	<text transform="matrix(1 0 0 1 23.2246 -174.7144)" font-family="'DINCondensed-Bold'" font-size="12">DIN Condensed Bold</text>
	<path id="XMLID_8_" fill="none" d="M80.745,91.755c0,4.969-4.027,8.999-8.996,8.999c-4.969,0-8.997-4.029-8.997-8.999
		c0-4.967,4.028-8.995,8.997-8.995C76.717,82.76,80.745,86.788,80.745,91.755z"/>
	<circle id="XMLID_5_" fill="none" cx="29.853" cy="72.135" r="8.966"/>
	<circle id="XMLID_9_" fill="none" cx="11.317" cy="23.617" r="8.967"/>
	<circle id="XMLID_29_" fill="none" cx="72.022" cy="11.345" r="8.955"/>
	<path id="Logo_Vert" fill="#A2BC3A" d="M71.79,80.414l-6.521-17.201c3.458-2.742,5.682-6.971,5.682-11.726
		c0-4.707-2.177-8.9-5.574-11.644l6.685-17.156c6.236-0.022,11.304-5.101,11.304-11.343C83.366,5.089,78.277,0,72.022,0
		c-6.255,0-11.344,5.089-11.344,11.345c0,3.403,1.513,6.452,3.893,8.533l-6.546,16.8c-0.669-0.092-1.347-0.155-2.041-0.155
		c-4.121,0-7.851,1.666-10.558,4.359l-23.098-14.47c0.227-0.893,0.36-1.822,0.36-2.785c0-6.256-5.089-11.346-11.345-11.346
		S0,17.371,0,23.627c0,6.255,5.089,11.345,11.345,11.345c2.375,0,4.58-0.737,6.404-1.989L41.48,47.85
		c-0.292,1.166-0.464,2.38-0.464,3.637c0,2.07,0.42,4.042,1.18,5.834l-6.345,5.202c-1.743-1.092-3.795-1.734-5.999-1.734
		c-6.255,0-11.344,5.089-11.344,11.345c0,6.254,5.089,11.343,11.344,11.343s11.344-5.088,11.344-11.343
		c0-1.131-0.171-2.223-0.481-3.254l6.469-5.304c2.472,1.802,5.506,2.878,8.799,2.878c0.647,0,1.281-0.055,1.907-0.135l6.407,16.901
		c-2.381,2.081-3.895,5.13-3.895,8.533c0,6.256,5.089,11.347,11.345,11.347c6.255,0,11.344-5.09,11.344-11.347
		C83.093,85.514,78.026,80.437,71.79,80.414z M11.345,31.972C6.744,31.972,3,28.228,3,23.627c0-4.602,3.744-8.346,8.345-8.346
		s8.345,3.744,8.345,8.346C19.689,28.228,15.946,31.972,11.345,31.972z M29.853,80.478c-4.601,0-8.344-3.743-8.344-8.343
		c0-4.601,3.743-8.345,8.344-8.345s8.344,3.744,8.344,8.345C38.197,76.735,34.454,80.478,29.853,80.478z M63.678,11.345
		C63.678,6.744,67.421,3,72.022,3c4.601,0,8.344,3.744,8.344,8.345s-3.743,8.345-8.344,8.345
		C67.421,19.689,63.678,15.946,63.678,11.345z M71.749,100.102c-4.602,0-8.345-3.744-8.345-8.347c0-4.6,3.744-8.343,8.345-8.343
		c4.601,0,8.344,3.743,8.344,8.343C80.093,96.357,76.35,100.102,71.749,100.102z"/>
	<g>
		<path fill="#FFFFFF" d="M47.638,42.659h2.641l5.307,12.061l5.205-12.061h2.653v18.51h-2.806v-11.54h-0.063l-3.872,8.887h-2.336
			l-3.872-8.887h-0.051v11.54h-2.806V42.659z"/>
	</g>
	<g>
		<path fill="#A2BC3B" d="M82.366,57.348h-6.517l-1.32,3.82h-2.758l6.246-17.086h2.18l6.246,17.086h-2.746L82.366,57.348z
			 M81.623,55.051l-2.486-7.465H79.09l-2.487,7.465H81.623z"/>
		<path fill="#A2BC3B" d="M88.282,44.083h2.604v14.637h8.367v2.449H88.282V44.083z"/>
		<path fill="#A2BC3B" d="M101.94,46.391h-4.702v-2.309h12.02v2.309h-4.702v14.777h-2.616V46.391z"/>
		<path fill="#A2BC3B" d="M114.007,46.391h-4.702v-2.309h12.02v2.309h-4.702v14.777h-2.616V46.391z"/>
	</g>
	<text transform="matrix(1 0 0 1 93.5693 83.7886)" display="none"><tspan x="0" y="0" display="inline" fill="#6D6E70" font-family="'DINCondensed-Bold'" font-size="14">Master of Science in Learning </tspan><tspan x="0" y="16.8" display="inline" fill="#6D6E70" font-family="'DINCondensed-Bold'" font-size="14">and Teaching Technologies</tspan></text>
	<g>
		<path fill="#6D6E71" d="M176.096,63.168V48.216h2.058l2.751,7.917h0.042l2.73-7.917h2.079v14.952h-2.142v-9.093h-0.042
			l-2.121,6.426h-1.071l-2.1-6.426h-0.042v9.093H176.096z"/>
		<path fill="#6D6E71" d="M191.699,63.168v-1.092h-0.042c-0.28,0.392-0.564,0.693-0.851,0.903c-0.287,0.21-0.69,0.315-1.208,0.315
			c-0.252,0-0.508-0.039-0.767-0.115c-0.259-0.077-0.507-0.221-0.745-0.431c-0.238-0.196-0.431-0.479-0.578-0.851
			c-0.147-0.371-0.221-0.851-0.221-1.438c0-0.602,0.049-1.13,0.147-1.585s0.28-0.836,0.546-1.145
			c0.252-0.294,0.595-0.515,1.029-0.662c0.434-0.147,0.987-0.22,1.659-0.22c0.07,0,0.147,0,0.231,0s0.161,0.007,0.231,0.021
			c0.07,0.014,0.154,0.021,0.252,0.021c0.098,0,0.203,0.007,0.315,0.021v-1.113c0-0.364-0.077-0.665-0.231-0.903
			c-0.154-0.238-0.434-0.357-0.84-0.357c-0.28,0-0.535,0.091-0.766,0.273c-0.231,0.182-0.382,0.448-0.452,0.798h-2.079
			c0.056-0.952,0.378-1.722,0.966-2.31c0.28-0.28,0.616-0.5,1.008-0.662c0.392-0.161,0.833-0.241,1.323-0.241
			c0.448,0,0.868,0.07,1.26,0.21c0.392,0.14,0.735,0.35,1.029,0.63c0.28,0.28,0.504,0.63,0.672,1.05
			c0.168,0.42,0.252,0.91,0.252,1.47v7.413H191.699z M191.699,58.59c-0.238-0.042-0.434-0.063-0.588-0.063
			c-0.462,0-0.858,0.109-1.187,0.326c-0.329,0.217-0.494,0.612-0.494,1.187c0,0.406,0.098,0.735,0.294,0.987
			c0.196,0.252,0.469,0.378,0.819,0.378c0.364,0,0.647-0.119,0.851-0.357c0.203-0.238,0.305-0.574,0.305-1.008V58.59z"/>
		<path fill="#6D6E71" d="M199.301,55.503c-0.014-0.364-0.13-0.637-0.347-0.819c-0.217-0.182-0.465-0.273-0.746-0.273
			c-0.336,0-0.595,0.108-0.777,0.325c-0.182,0.217-0.273,0.466-0.273,0.746c0,0.196,0.049,0.389,0.147,0.578
			c0.098,0.189,0.35,0.36,0.756,0.514l1.26,0.504c0.798,0.308,1.347,0.728,1.648,1.26c0.301,0.532,0.452,1.113,0.452,1.743
			c0,0.448-0.081,0.865-0.242,1.25c-0.161,0.385-0.382,0.725-0.662,1.019c-0.28,0.294-0.616,0.525-1.008,0.693
			c-0.392,0.168-0.819,0.252-1.281,0.252c-0.868,0-1.596-0.273-2.184-0.819c-0.294-0.266-0.532-0.599-0.714-0.998
			s-0.28-0.864-0.294-1.396h2.016c0.042,0.294,0.144,0.567,0.305,0.819c0.161,0.252,0.444,0.378,0.85,0.378
			c0.308,0,0.584-0.101,0.83-0.304s0.368-0.486,0.368-0.851c0-0.294-0.077-0.546-0.231-0.756c-0.154-0.21-0.434-0.392-0.84-0.546
			l-1.029-0.378c-0.672-0.252-1.201-0.626-1.585-1.124c-0.385-0.497-0.578-1.103-0.578-1.816c0-0.448,0.084-0.864,0.252-1.25
			c0.168-0.385,0.399-0.717,0.693-0.998c0.28-0.28,0.609-0.493,0.987-0.641c0.378-0.147,0.784-0.22,1.218-0.22
			s0.836,0.077,1.208,0.231c0.371,0.154,0.689,0.371,0.956,0.651c0.266,0.28,0.476,0.613,0.63,0.998
			c0.154,0.385,0.231,0.795,0.231,1.229H199.301z"/>
		<path fill="#6D6E71" d="M202.807,52.521v-3.234h2.142v3.234h1.323v1.68h-1.323v5.901c0,0.252,0.024,0.448,0.074,0.588
			c0.049,0.14,0.129,0.245,0.241,0.315c0.112,0.07,0.249,0.112,0.41,0.126c0.161,0.014,0.36,0.021,0.599,0.021v2.016h-0.882
			c-0.49,0-0.899-0.077-1.229-0.231c-0.329-0.154-0.591-0.35-0.787-0.588c-0.196-0.238-0.34-0.507-0.431-0.809
			c-0.091-0.301-0.137-0.591-0.137-0.872v-6.468h-1.071v-1.68H202.807z"/>
		<path fill="#6D6E71" d="M213.286,58.653h-4.242v1.449c0,0.336,0.095,0.595,0.284,0.777c0.189,0.182,0.444,0.273,0.766,0.273
			c0.406,0,0.675-0.119,0.809-0.357c0.133-0.238,0.213-0.476,0.242-0.714h2.142c0,0.938-0.287,1.694-0.861,2.268
			c-0.28,0.294-0.616,0.525-1.008,0.693c-0.392,0.168-0.833,0.252-1.323,0.252c-0.672,0-1.242-0.14-1.711-0.42
			c-0.469-0.28-0.829-0.651-1.082-1.113c-0.154-0.28-0.259-0.602-0.315-0.966c-0.056-0.364-0.084-0.763-0.084-1.197v-3.507
			c0-0.434,0.028-0.833,0.084-1.197c0.056-0.364,0.161-0.686,0.315-0.966c0.252-0.462,0.612-0.833,1.082-1.113
			c0.469-0.28,1.04-0.42,1.711-0.42c0.49,0,0.935,0.084,1.333,0.252c0.399,0.168,0.738,0.399,1.019,0.693
			c0.56,0.63,0.84,1.421,0.84,2.373V58.653z M209.044,56.974h2.1v-1.218c0-0.406-0.095-0.71-0.284-0.914
			c-0.189-0.203-0.444-0.304-0.767-0.304c-0.322,0-0.577,0.102-0.766,0.304c-0.189,0.203-0.284,0.508-0.284,0.914V56.974z"/>
		<path fill="#6D6E71" d="M214.861,63.168V52.521h2.142v1.134c0.434-0.392,0.861-0.7,1.281-0.924
			c0.42-0.224,0.938-0.336,1.554-0.336v2.268c-0.21-0.084-0.427-0.126-0.651-0.126c-0.224,0-0.466,0.039-0.725,0.115
			c-0.259,0.077-0.493,0.207-0.704,0.389c-0.224,0.182-0.406,0.42-0.546,0.714s-0.21,0.658-0.21,1.092v6.321H214.861z"/>
		<path fill="#6D6E71" d="M224.416,56.091c0-0.434,0.028-0.833,0.084-1.197c0.056-0.364,0.161-0.686,0.315-0.966
			c0.252-0.462,0.612-0.833,1.082-1.113c0.469-0.28,1.04-0.42,1.711-0.42c0.672,0,1.243,0.14,1.712,0.42
			c0.469,0.28,0.829,0.651,1.082,1.113c0.154,0.28,0.259,0.603,0.315,0.966c0.056,0.364,0.084,0.763,0.084,1.197v3.507
			c0,0.434-0.028,0.833-0.084,1.197c-0.056,0.364-0.161,0.686-0.315,0.966c-0.252,0.462-0.613,0.833-1.082,1.113
			c-0.469,0.28-1.04,0.42-1.712,0.42c-0.672,0-1.242-0.14-1.711-0.42c-0.469-0.28-0.829-0.651-1.082-1.113
			c-0.154-0.28-0.259-0.602-0.315-0.966c-0.056-0.364-0.084-0.763-0.084-1.197V56.091z M226.558,59.935
			c0,0.406,0.095,0.71,0.284,0.914s0.444,0.304,0.766,0.304c0.322,0,0.578-0.101,0.767-0.304s0.284-0.507,0.284-0.914v-4.179
			c0-0.406-0.095-0.71-0.284-0.914c-0.189-0.203-0.444-0.304-0.767-0.304c-0.322,0-0.577,0.102-0.766,0.304
			c-0.189,0.203-0.284,0.508-0.284,0.914V59.935z"/>
		<path fill="#6D6E71" d="M232.647,63.168v-8.967h-1.05v-1.68h1.05v-1.449c0-0.518,0.077-0.955,0.231-1.312
			c0.154-0.357,0.364-0.654,0.63-0.892c0.252-0.238,0.542-0.406,0.872-0.504c0.329-0.098,0.668-0.147,1.018-0.147h0.987v2.016
			h-0.966c-0.42,0-0.63,0.245-0.63,0.735v1.554h1.596v1.68h-1.596v8.967H232.647z"/>
		<path fill="#6D6E71" d="M247.998,52.521h-2.142v-0.483c0-0.49-0.115-0.914-0.346-1.271c-0.231-0.357-0.62-0.536-1.166-0.536
			c-0.294,0-0.532,0.056-0.714,0.168c-0.182,0.112-0.329,0.252-0.441,0.42c-0.112,0.182-0.189,0.389-0.231,0.62
			s-0.063,0.473-0.063,0.725c0,0.294,0.011,0.539,0.032,0.735c0.021,0.196,0.073,0.371,0.157,0.525
			c0.084,0.154,0.207,0.287,0.368,0.399c0.161,0.112,0.381,0.224,0.662,0.336l1.638,0.651c0.476,0.182,0.861,0.396,1.155,0.641
			c0.294,0.245,0.525,0.528,0.693,0.85c0.154,0.336,0.259,0.718,0.315,1.145c0.056,0.427,0.084,0.914,0.084,1.459
			c0,0.63-0.063,1.215-0.189,1.754s-0.329,0.997-0.609,1.375c-0.294,0.392-0.679,0.7-1.155,0.924s-1.057,0.336-1.743,0.336
			c-0.518,0-1.001-0.091-1.449-0.273c-0.448-0.182-0.833-0.434-1.155-0.756c-0.322-0.322-0.578-0.696-0.767-1.124
			s-0.284-0.893-0.284-1.396v-0.798h2.142v0.672c0,0.392,0.116,0.745,0.347,1.061c0.231,0.315,0.619,0.472,1.166,0.472
			c0.364,0,0.647-0.052,0.85-0.157s0.36-0.255,0.473-0.452c0.112-0.196,0.179-0.431,0.2-0.704s0.031-0.577,0.031-0.914
			c0-0.392-0.014-0.714-0.042-0.966c-0.028-0.252-0.084-0.455-0.168-0.609c-0.098-0.154-0.228-0.28-0.389-0.378
			c-0.161-0.098-0.375-0.203-0.64-0.315l-1.533-0.63c-0.924-0.378-1.543-0.878-1.858-1.501c-0.315-0.623-0.473-1.403-0.473-2.341
			c0-0.56,0.077-1.092,0.231-1.596c0.154-0.504,0.385-0.938,0.693-1.302c0.294-0.364,0.668-0.654,1.124-0.872
			c0.455-0.217,0.997-0.326,1.627-0.326c0.532,0,1.019,0.098,1.459,0.294c0.441,0.196,0.822,0.455,1.145,0.777
			c0.644,0.672,0.966,1.442,0.966,2.31V52.521z"/>
		<path fill="#6D6E71" d="M251.736,60.103c0,0.336,0.095,0.595,0.284,0.777c0.189,0.182,0.444,0.273,0.767,0.273
			c0.406,0,0.675-0.119,0.808-0.357c0.133-0.238,0.213-0.476,0.242-0.714h2.142c0,0.938-0.287,1.694-0.861,2.268
			c-0.28,0.294-0.616,0.525-1.008,0.693c-0.392,0.168-0.833,0.252-1.323,0.252c-0.672,0-1.243-0.14-1.712-0.42
			c-0.469-0.28-0.829-0.651-1.081-1.113c-0.154-0.28-0.259-0.602-0.315-0.966c-0.056-0.364-0.084-0.763-0.084-1.197v-3.507
			c0-0.434,0.028-0.833,0.084-1.197c0.056-0.364,0.161-0.686,0.315-0.966c0.252-0.462,0.612-0.833,1.081-1.113
			c0.469-0.28,1.04-0.42,1.712-0.42c0.49,0,0.934,0.084,1.333,0.252c0.399,0.168,0.738,0.399,1.018,0.693
			c0.56,0.63,0.84,1.449,0.84,2.457h-2.142c0-0.434-0.095-0.752-0.284-0.956c-0.189-0.203-0.444-0.304-0.766-0.304
			c-0.322,0-0.578,0.102-0.767,0.304c-0.189,0.203-0.284,0.508-0.284,0.914V60.103z"/>
		<path fill="#6D6E71" d="M257.238,50.358v-2.142h2.142v2.142H257.238z M257.238,63.168V52.521h2.142v10.647H257.238z"/>
		<path fill="#6D6E71" d="M267.339,58.653h-4.242v1.449c0,0.336,0.095,0.595,0.284,0.777c0.189,0.182,0.444,0.273,0.766,0.273
			c0.406,0,0.675-0.119,0.809-0.357c0.133-0.238,0.213-0.476,0.242-0.714h2.142c0,0.938-0.287,1.694-0.861,2.268
			c-0.28,0.294-0.616,0.525-1.008,0.693c-0.392,0.168-0.833,0.252-1.323,0.252c-0.672,0-1.242-0.14-1.711-0.42
			c-0.469-0.28-0.829-0.651-1.082-1.113c-0.154-0.28-0.259-0.602-0.315-0.966c-0.056-0.364-0.084-0.763-0.084-1.197v-3.507
			c0-0.434,0.028-0.833,0.084-1.197c0.056-0.364,0.161-0.686,0.315-0.966c0.252-0.462,0.612-0.833,1.082-1.113
			c0.469-0.28,1.04-0.42,1.711-0.42c0.49,0,0.935,0.084,1.333,0.252c0.399,0.168,0.738,0.399,1.019,0.693
			c0.56,0.63,0.84,1.421,0.84,2.373V58.653z M263.097,56.974h2.1v-1.218c0-0.406-0.095-0.71-0.284-0.914
			c-0.189-0.203-0.444-0.304-0.767-0.304c-0.322,0-0.577,0.102-0.766,0.304c-0.189,0.203-0.284,0.508-0.284,0.914V56.974z"/>
		<path fill="#6D6E71" d="M268.914,63.168V52.521h2.142v1.029h0.042c0.224-0.336,0.494-0.612,0.809-0.829
			c0.315-0.217,0.717-0.326,1.208-0.326c0.266,0,0.532,0.045,0.798,0.136c0.266,0.091,0.504,0.242,0.714,0.452
			c0.21,0.21,0.378,0.48,0.504,0.809c0.126,0.329,0.189,0.731,0.189,1.208v8.169h-2.142v-7.371c0-0.392-0.091-0.7-0.273-0.924
			c-0.182-0.224-0.441-0.336-0.777-0.336c-0.406,0-0.687,0.126-0.84,0.378c-0.154,0.252-0.231,0.616-0.231,1.092v7.161H268.914z"/>
		<path fill="#6D6E71" d="M279.351,60.103c0,0.336,0.095,0.595,0.284,0.777c0.189,0.182,0.444,0.273,0.767,0.273
			c0.406,0,0.675-0.119,0.808-0.357c0.133-0.238,0.213-0.476,0.242-0.714h2.142c0,0.938-0.287,1.694-0.861,2.268
			c-0.28,0.294-0.616,0.525-1.008,0.693c-0.392,0.168-0.833,0.252-1.323,0.252c-0.672,0-1.243-0.14-1.712-0.42
			c-0.469-0.28-0.829-0.651-1.081-1.113c-0.154-0.28-0.259-0.602-0.315-0.966c-0.056-0.364-0.084-0.763-0.084-1.197v-3.507
			c0-0.434,0.028-0.833,0.084-1.197c0.056-0.364,0.161-0.686,0.315-0.966c0.252-0.462,0.612-0.833,1.081-1.113
			c0.469-0.28,1.04-0.42,1.712-0.42c0.49,0,0.934,0.084,1.333,0.252c0.399,0.168,0.738,0.399,1.018,0.693
			c0.56,0.63,0.84,1.449,0.84,2.457h-2.142c0-0.434-0.095-0.752-0.284-0.956c-0.189-0.203-0.444-0.304-0.766-0.304
			c-0.322,0-0.578,0.102-0.767,0.304c-0.189,0.203-0.284,0.508-0.284,0.914V60.103z"/>
		<path fill="#6D6E71" d="M291.048,58.653h-4.242v1.449c0,0.336,0.095,0.595,0.284,0.777c0.189,0.182,0.444,0.273,0.766,0.273
			c0.406,0,0.675-0.119,0.809-0.357c0.133-0.238,0.213-0.476,0.242-0.714h2.142c0,0.938-0.287,1.694-0.861,2.268
			c-0.28,0.294-0.616,0.525-1.008,0.693c-0.392,0.168-0.833,0.252-1.323,0.252c-0.672,0-1.242-0.14-1.711-0.42
			c-0.469-0.28-0.829-0.651-1.082-1.113c-0.154-0.28-0.259-0.602-0.315-0.966c-0.056-0.364-0.084-0.763-0.084-1.197v-3.507
			c0-0.434,0.028-0.833,0.084-1.197c0.056-0.364,0.161-0.686,0.315-0.966c0.252-0.462,0.612-0.833,1.082-1.113
			c0.469-0.28,1.04-0.42,1.711-0.42c0.49,0,0.935,0.084,1.333,0.252c0.399,0.168,0.738,0.399,1.019,0.693
			c0.56,0.63,0.84,1.421,0.84,2.373V58.653z M286.806,56.974h2.1v-1.218c0-0.406-0.095-0.71-0.284-0.914
			c-0.189-0.203-0.444-0.304-0.767-0.304c-0.322,0-0.577,0.102-0.766,0.304c-0.189,0.203-0.284,0.508-0.284,0.914V56.974z"/>
		<path fill="#6D6E71" d="M296.528,50.358v-2.142h2.142v2.142H296.528z M296.528,63.168V52.521h2.142v10.647H296.528z"/>
		<path fill="#6D6E71" d="M300.434,63.168V52.521h2.142v1.029h0.042c0.224-0.336,0.494-0.612,0.809-0.829
			c0.315-0.217,0.717-0.326,1.208-0.326c0.266,0,0.532,0.045,0.798,0.136c0.266,0.091,0.504,0.242,0.714,0.452
			c0.21,0.21,0.378,0.48,0.504,0.809c0.126,0.329,0.189,0.731,0.189,1.208v8.169h-2.142v-7.371c0-0.392-0.091-0.7-0.273-0.924
			c-0.182-0.224-0.441-0.336-0.777-0.336c-0.406,0-0.687,0.126-0.84,0.378c-0.154,0.252-0.231,0.616-0.231,1.092v7.161H300.434z"/>
		<path fill="#6D6E71" d="M312.635,63.168V48.216h2.142v12.81h4.242v2.142H312.635z"/>
		<path fill="#6D6E71" d="M326.474,58.653h-4.242v1.449c0,0.336,0.095,0.595,0.284,0.777c0.189,0.182,0.444,0.273,0.766,0.273
			c0.406,0,0.675-0.119,0.809-0.357c0.133-0.238,0.213-0.476,0.242-0.714h2.142c0,0.938-0.287,1.694-0.861,2.268
			c-0.28,0.294-0.616,0.525-1.008,0.693c-0.392,0.168-0.833,0.252-1.323,0.252c-0.672,0-1.242-0.14-1.711-0.42
			c-0.469-0.28-0.829-0.651-1.082-1.113c-0.154-0.28-0.259-0.602-0.315-0.966c-0.056-0.364-0.084-0.763-0.084-1.197v-3.507
			c0-0.434,0.028-0.833,0.084-1.197c0.056-0.364,0.161-0.686,0.315-0.966c0.252-0.462,0.612-0.833,1.082-1.113
			c0.469-0.28,1.04-0.42,1.711-0.42c0.49,0,0.935,0.084,1.333,0.252c0.399,0.168,0.739,0.399,1.018,0.693
			c0.561,0.63,0.841,1.421,0.841,2.373V58.653z M322.232,56.974h2.1v-1.218c0-0.406-0.095-0.71-0.284-0.914
			c-0.189-0.203-0.444-0.304-0.767-0.304c-0.322,0-0.577,0.102-0.766,0.304c-0.189,0.203-0.284,0.508-0.284,0.914V56.974z"/>
		<path fill="#6D6E71" d="M332.102,63.168v-1.092h-0.042c-0.28,0.392-0.563,0.693-0.851,0.903s-0.689,0.315-1.207,0.315
			c-0.252,0-0.508-0.039-0.768-0.115c-0.259-0.077-0.507-0.221-0.744-0.431c-0.238-0.196-0.432-0.479-0.578-0.851
			c-0.146-0.371-0.221-0.851-0.221-1.438c0-0.602,0.049-1.13,0.146-1.585c0.099-0.455,0.28-0.836,0.547-1.145
			c0.252-0.294,0.595-0.515,1.029-0.662c0.434-0.147,0.986-0.22,1.658-0.22c0.07,0,0.147,0,0.231,0s0.161,0.007,0.231,0.021
			c0.069,0.014,0.153,0.021,0.252,0.021c0.098,0,0.202,0.007,0.314,0.021v-1.113c0-0.364-0.077-0.665-0.23-0.903
			c-0.154-0.238-0.435-0.357-0.841-0.357c-0.28,0-0.535,0.091-0.767,0.273c-0.23,0.182-0.381,0.448-0.451,0.798h-2.079
			c0.056-0.952,0.378-1.722,0.966-2.31c0.28-0.28,0.616-0.5,1.008-0.662c0.393-0.161,0.834-0.241,1.323-0.241
			c0.448,0,0.868,0.07,1.261,0.21c0.391,0.14,0.734,0.35,1.028,0.63c0.28,0.28,0.505,0.63,0.673,1.05
			c0.168,0.42,0.252,0.91,0.252,1.47v7.413H332.102z M332.102,58.59c-0.238-0.042-0.434-0.063-0.588-0.063
			c-0.463,0-0.857,0.109-1.187,0.326c-0.329,0.217-0.493,0.612-0.493,1.187c0,0.406,0.098,0.735,0.293,0.987
			c0.196,0.252,0.469,0.378,0.819,0.378c0.364,0,0.647-0.119,0.851-0.357c0.203-0.238,0.305-0.574,0.305-1.008V58.59z"/>
		<path fill="#6D6E71" d="M335.819,63.168V52.521h2.143v1.134c0.434-0.392,0.86-0.7,1.281-0.924c0.42-0.224,0.938-0.336,1.553-0.336
			v2.268c-0.209-0.084-0.427-0.126-0.65-0.126c-0.225,0-0.466,0.039-0.725,0.115c-0.26,0.077-0.493,0.207-0.703,0.389
			c-0.225,0.182-0.406,0.42-0.547,0.714c-0.14,0.294-0.209,0.658-0.209,1.092v6.321H335.819z"/>
		<path fill="#6D6E71" d="M341.657,63.168V52.521h2.143v1.029h0.041c0.225-0.336,0.494-0.612,0.809-0.829
			c0.315-0.217,0.718-0.326,1.208-0.326c0.266,0,0.532,0.045,0.798,0.136c0.266,0.091,0.504,0.242,0.715,0.452
			c0.209,0.21,0.377,0.48,0.504,0.809c0.125,0.329,0.188,0.731,0.188,1.208v8.169h-2.142v-7.371c0-0.392-0.092-0.7-0.273-0.924
			c-0.182-0.224-0.441-0.336-0.777-0.336c-0.406,0-0.686,0.126-0.84,0.378s-0.23,0.616-0.23,1.092v7.161H341.657z"/>
		<path fill="#6D6E71" d="M349.826,50.358v-2.142h2.142v2.142H349.826z M349.826,63.168V52.521h2.142v10.647H349.826z"/>
		<path fill="#6D6E71" d="M353.731,63.168V52.521h2.143v1.029h0.042c0.224-0.336,0.493-0.612,0.809-0.829
			c0.315-0.217,0.718-0.326,1.208-0.326c0.266,0,0.531,0.045,0.797,0.136c0.267,0.091,0.504,0.242,0.715,0.452
			c0.21,0.21,0.378,0.48,0.504,0.809c0.126,0.329,0.189,0.731,0.189,1.208v8.169h-2.143v-7.371c0-0.392-0.092-0.7-0.273-0.924
			c-0.182-0.224-0.44-0.336-0.776-0.336c-0.406,0-0.687,0.126-0.841,0.378s-0.23,0.616-0.23,1.092v7.161H353.731z"/>
		<path fill="#6D6E71" d="M364.042,64.407c0.014,0.252,0.116,0.49,0.305,0.714c0.188,0.224,0.466,0.336,0.829,0.336
			c0.35,0,0.602-0.109,0.756-0.326c0.154-0.217,0.231-0.493,0.231-0.83v-2.1h-0.042c-0.238,0.35-0.521,0.619-0.851,0.808
			c-0.329,0.189-0.71,0.284-1.145,0.284c-0.896,0-1.519-0.336-1.869-1.008c-0.126-0.238-0.217-0.532-0.272-0.882
			c-0.057-0.35-0.084-0.819-0.084-1.407v-4.053c0-0.77,0.021-1.336,0.062-1.701c0.084-0.7,0.413-1.225,0.987-1.575
			c0.266-0.182,0.665-0.273,1.196-0.273c0.267,0,0.494,0.028,0.684,0.084c0.188,0.056,0.359,0.133,0.514,0.231
			c0.154,0.098,0.295,0.213,0.42,0.347c0.127,0.133,0.26,0.276,0.399,0.43v-0.966h2.142V64.47c0,0.364-0.06,0.731-0.178,1.103
			c-0.119,0.371-0.312,0.704-0.578,0.998c-0.266,0.308-0.602,0.557-1.008,0.746s-0.889,0.284-1.449,0.284
			c-0.322,0-0.658-0.053-1.008-0.158s-0.672-0.283-0.966-0.536c-0.308-0.238-0.571-0.556-0.788-0.955
			c-0.217-0.399-0.36-0.914-0.43-1.544H364.042z M364.042,59.893c0,0.336,0.073,0.63,0.221,0.882s0.423,0.378,0.829,0.378
			c0.309,0,0.563-0.108,0.767-0.325c0.203-0.217,0.305-0.494,0.305-0.83V55.86c0-0.392-0.099-0.71-0.294-0.956
			c-0.196-0.245-0.455-0.367-0.777-0.367c-0.363,0-0.63,0.133-0.798,0.399c-0.168,0.266-0.252,0.616-0.252,1.05V59.893z"/>
		<path fill="#6D6E71" d="M204.991,88.369v-1.092h-0.042c-0.28,0.392-0.564,0.693-0.851,0.903c-0.287,0.21-0.69,0.315-1.208,0.315
			c-0.252,0-0.508-0.039-0.767-0.115c-0.259-0.077-0.507-0.221-0.745-0.431c-0.238-0.196-0.431-0.479-0.578-0.851
			c-0.147-0.371-0.221-0.851-0.221-1.438c0-0.602,0.049-1.13,0.147-1.585s0.28-0.836,0.546-1.145
			c0.252-0.294,0.595-0.515,1.029-0.662c0.434-0.147,0.987-0.22,1.659-0.22c0.07,0,0.147,0,0.231,0s0.161,0.007,0.231,0.021
			c0.07,0.014,0.154,0.021,0.252,0.021c0.098,0,0.203,0.007,0.315,0.021v-1.113c0-0.364-0.077-0.665-0.231-0.903
			c-0.154-0.238-0.434-0.357-0.84-0.357c-0.28,0-0.535,0.091-0.766,0.273c-0.231,0.182-0.382,0.448-0.452,0.798h-2.079
			c0.056-0.952,0.378-1.722,0.966-2.31c0.28-0.28,0.616-0.5,1.008-0.662c0.392-0.161,0.833-0.241,1.323-0.241
			c0.448,0,0.868,0.07,1.26,0.21c0.392,0.14,0.735,0.35,1.029,0.63c0.28,0.28,0.504,0.63,0.672,1.05
			c0.168,0.42,0.252,0.91,0.252,1.47v7.413H204.991z M204.991,83.791c-0.238-0.042-0.434-0.063-0.588-0.063
			c-0.462,0-0.858,0.109-1.187,0.326c-0.329,0.217-0.494,0.612-0.494,1.187c0,0.406,0.098,0.735,0.294,0.987
			c0.196,0.252,0.469,0.378,0.819,0.378c0.364,0,0.647-0.119,0.851-0.357c0.203-0.238,0.305-0.574,0.305-1.008V83.791z"/>
		<path fill="#6D6E71" d="M208.708,88.369V77.722h2.142v1.029h0.042c0.224-0.336,0.494-0.612,0.809-0.829
			c0.315-0.217,0.717-0.326,1.208-0.326c0.266,0,0.532,0.045,0.798,0.136c0.266,0.091,0.504,0.242,0.714,0.452
			c0.21,0.21,0.378,0.48,0.504,0.809c0.126,0.329,0.189,0.731,0.189,1.208v8.169h-2.142v-7.371c0-0.392-0.091-0.7-0.273-0.924
			c-0.182-0.224-0.441-0.336-0.777-0.336c-0.406,0-0.687,0.126-0.84,0.378c-0.154,0.252-0.231,0.616-0.231,1.092v7.161H208.708z"/>
		<path fill="#6D6E71" d="M221.14,88.369v-0.966c-0.14,0.154-0.273,0.297-0.399,0.43c-0.126,0.133-0.266,0.249-0.42,0.347
			c-0.154,0.098-0.329,0.175-0.525,0.231c-0.196,0.056-0.427,0.084-0.693,0.084c-0.896,0-1.519-0.336-1.869-1.008
			c-0.126-0.238-0.217-0.532-0.273-0.882c-0.056-0.35-0.084-0.819-0.084-1.407v-4.053c0-0.77,0.021-1.336,0.063-1.701
			c0.084-0.7,0.413-1.225,0.987-1.575c0.266-0.182,0.665-0.273,1.197-0.273c0.42,0,0.794,0.094,1.124,0.284
			c0.329,0.189,0.612,0.458,0.851,0.808h0.042v-5.271h2.142v14.952H221.14z M219.019,84.904c0,0.434,0.084,0.784,0.252,1.05
			c0.168,0.266,0.434,0.399,0.798,0.399c0.322,0,0.581-0.122,0.777-0.367c0.196-0.245,0.294-0.563,0.294-0.956v-4.137
			c0-0.336-0.102-0.612-0.305-0.83c-0.203-0.217-0.458-0.325-0.766-0.325c-0.406,0-0.683,0.126-0.83,0.378s-0.221,0.546-0.221,0.882
			V84.904z"/>
		<path fill="#6D6E71" d="M230.485,88.369V75.433h-2.478v-2.016h7.098v2.016h-2.478v12.936H230.485z"/>
		<path fill="#6D6E71" d="M240.817,83.854h-4.242v1.449c0,0.336,0.095,0.595,0.284,0.777c0.189,0.182,0.444,0.273,0.766,0.273
			c0.406,0,0.675-0.119,0.809-0.357c0.133-0.238,0.213-0.476,0.242-0.714h2.142c0,0.938-0.287,1.694-0.861,2.268
			c-0.28,0.294-0.616,0.525-1.008,0.693c-0.392,0.168-0.833,0.252-1.323,0.252c-0.672,0-1.242-0.14-1.711-0.42
			c-0.469-0.28-0.829-0.651-1.082-1.113c-0.154-0.28-0.259-0.602-0.315-0.966c-0.056-0.364-0.084-0.763-0.084-1.197v-3.507
			c0-0.434,0.028-0.833,0.084-1.197c0.056-0.364,0.161-0.686,0.315-0.966c0.252-0.462,0.612-0.833,1.082-1.113
			c0.469-0.28,1.04-0.42,1.711-0.42c0.49,0,0.935,0.084,1.333,0.252c0.399,0.168,0.738,0.399,1.019,0.693
			c0.56,0.63,0.84,1.421,0.84,2.373V83.854z M236.575,82.174h2.1v-1.218c0-0.406-0.095-0.71-0.284-0.914
			c-0.189-0.203-0.444-0.304-0.767-0.304c-0.322,0-0.577,0.102-0.766,0.304c-0.189,0.203-0.284,0.508-0.284,0.914V82.174z"/>
		<path fill="#6D6E71" d="M246.445,88.369v-1.092h-0.042c-0.28,0.392-0.564,0.693-0.851,0.903c-0.287,0.21-0.69,0.315-1.208,0.315
			c-0.252,0-0.508-0.039-0.767-0.115c-0.259-0.077-0.507-0.221-0.745-0.431c-0.238-0.196-0.431-0.479-0.578-0.851
			c-0.147-0.371-0.221-0.851-0.221-1.438c0-0.602,0.049-1.13,0.147-1.585s0.28-0.836,0.546-1.145
			c0.252-0.294,0.595-0.515,1.029-0.662c0.434-0.147,0.987-0.22,1.659-0.22c0.07,0,0.147,0,0.231,0s0.161,0.007,0.231,0.021
			c0.07,0.014,0.154,0.021,0.252,0.021c0.098,0,0.203,0.007,0.315,0.021v-1.113c0-0.364-0.077-0.665-0.231-0.903
			c-0.154-0.238-0.434-0.357-0.84-0.357c-0.28,0-0.535,0.091-0.766,0.273c-0.231,0.182-0.382,0.448-0.452,0.798h-2.079
			c0.056-0.952,0.378-1.722,0.966-2.31c0.28-0.28,0.616-0.5,1.008-0.662c0.392-0.161,0.833-0.241,1.323-0.241
			c0.448,0,0.868,0.07,1.26,0.21c0.392,0.14,0.735,0.35,1.029,0.63c0.28,0.28,0.504,0.63,0.672,1.05
			c0.168,0.42,0.252,0.91,0.252,1.47v7.413H246.445z M246.445,83.791c-0.238-0.042-0.434-0.063-0.588-0.063
			c-0.462,0-0.858,0.109-1.187,0.326c-0.329,0.217-0.494,0.612-0.494,1.187c0,0.406,0.098,0.735,0.294,0.987
			c0.196,0.252,0.469,0.378,0.819,0.378c0.364,0,0.647-0.119,0.851-0.357c0.203-0.238,0.305-0.574,0.305-1.008V83.791z"/>
		<path fill="#6D6E71" d="M252.43,85.303c0,0.336,0.095,0.595,0.284,0.777c0.189,0.182,0.444,0.273,0.767,0.273
			c0.406,0,0.675-0.119,0.808-0.357c0.133-0.238,0.213-0.476,0.242-0.714h2.142c0,0.938-0.287,1.694-0.861,2.268
			c-0.28,0.294-0.616,0.525-1.008,0.693c-0.392,0.168-0.833,0.252-1.323,0.252c-0.672,0-1.243-0.14-1.712-0.42
			c-0.469-0.28-0.829-0.651-1.081-1.113c-0.154-0.28-0.259-0.602-0.315-0.966c-0.056-0.364-0.084-0.763-0.084-1.197v-3.507
			c0-0.434,0.028-0.833,0.084-1.197c0.056-0.364,0.161-0.686,0.315-0.966c0.252-0.462,0.612-0.833,1.081-1.113
			c0.469-0.28,1.04-0.42,1.712-0.42c0.49,0,0.934,0.084,1.333,0.252c0.399,0.168,0.738,0.399,1.018,0.693
			c0.56,0.63,0.84,1.449,0.84,2.457h-2.142c0-0.434-0.095-0.752-0.284-0.956c-0.189-0.203-0.444-0.304-0.766-0.304
			c-0.322,0-0.578,0.102-0.767,0.304c-0.189,0.203-0.284,0.508-0.284,0.914V85.303z"/>
		<path fill="#6D6E71" d="M257.68,88.369V73.417h2.142v5.334h0.042c0.224-0.336,0.494-0.612,0.809-0.829
			c0.315-0.217,0.717-0.326,1.208-0.326c0.266,0,0.532,0.045,0.798,0.136c0.266,0.091,0.504,0.242,0.714,0.452
			c0.21,0.21,0.378,0.48,0.504,0.809c0.126,0.329,0.189,0.731,0.189,1.208v8.169h-2.142v-7.371c0-0.392-0.091-0.7-0.273-0.924
			c-0.182-0.224-0.441-0.336-0.777-0.336c-0.406,0-0.687,0.126-0.84,0.378c-0.154,0.252-0.231,0.616-0.231,1.092v7.161H257.68z"/>
		<path fill="#6D6E71" d="M265.849,75.559v-2.142h2.142v2.142H265.849z M265.849,88.369V77.722h2.142v10.647H265.849z"/>
		<path fill="#6D6E71" d="M269.754,88.369V77.722h2.142v1.029h0.042c0.224-0.336,0.494-0.612,0.809-0.829
			c0.315-0.217,0.717-0.326,1.208-0.326c0.266,0,0.532,0.045,0.798,0.136c0.266,0.091,0.504,0.242,0.714,0.452
			c0.21,0.21,0.378,0.48,0.504,0.809c0.126,0.329,0.189,0.731,0.189,1.208v8.169h-2.142v-7.371c0-0.392-0.091-0.7-0.273-0.924
			c-0.182-0.224-0.441-0.336-0.777-0.336c-0.406,0-0.687,0.126-0.84,0.378c-0.154,0.252-0.231,0.616-0.231,1.092v7.161H269.754z"/>
		<path fill="#6D6E71" d="M280.065,89.607c0.014,0.252,0.116,0.49,0.305,0.714c0.189,0.224,0.465,0.336,0.83,0.336
			c0.35,0,0.602-0.109,0.756-0.326c0.154-0.217,0.231-0.493,0.231-0.83v-2.1h-0.042c-0.238,0.35-0.522,0.619-0.851,0.808
			c-0.329,0.189-0.71,0.284-1.145,0.284c-0.896,0-1.519-0.336-1.869-1.008c-0.126-0.238-0.217-0.532-0.273-0.882
			c-0.056-0.35-0.084-0.819-0.084-1.407v-4.053c0-0.77,0.021-1.336,0.063-1.701c0.084-0.7,0.413-1.225,0.987-1.575
			c0.266-0.182,0.665-0.273,1.197-0.273c0.266,0,0.494,0.028,0.683,0.084c0.189,0.056,0.36,0.133,0.515,0.231
			c0.154,0.098,0.294,0.213,0.42,0.347c0.126,0.133,0.259,0.276,0.399,0.43v-0.966h2.142V89.67c0,0.364-0.06,0.731-0.179,1.103
			c-0.119,0.371-0.312,0.704-0.578,0.998c-0.266,0.308-0.602,0.557-1.008,0.746c-0.406,0.189-0.889,0.284-1.449,0.284
			c-0.322,0-0.658-0.053-1.008-0.158s-0.672-0.283-0.966-0.536c-0.308-0.238-0.571-0.556-0.788-0.955
			c-0.217-0.399-0.361-0.914-0.431-1.544H280.065z M280.065,85.093c0,0.336,0.074,0.63,0.221,0.882s0.423,0.378,0.83,0.378
			c0.308,0,0.563-0.108,0.766-0.325c0.203-0.217,0.305-0.494,0.305-0.83v-4.137c0-0.392-0.098-0.71-0.294-0.956
			c-0.196-0.245-0.455-0.367-0.777-0.367c-0.364,0-0.63,0.133-0.798,0.399c-0.168,0.266-0.252,0.616-0.252,1.05V85.093z"/>
		<path fill="#6D6E71" d="M291.531,88.369V75.433h-2.478v-2.016h7.098v2.016h-2.478v12.936H291.531z"/>
		<path fill="#6D6E71" d="M301.863,83.854h-4.242v1.449c0,0.336,0.095,0.595,0.284,0.777c0.189,0.182,0.444,0.273,0.766,0.273
			c0.406,0,0.675-0.119,0.809-0.357c0.133-0.238,0.213-0.476,0.242-0.714h2.142c0,0.938-0.287,1.694-0.861,2.268
			c-0.28,0.294-0.616,0.525-1.008,0.693c-0.392,0.168-0.833,0.252-1.323,0.252c-0.672,0-1.242-0.14-1.711-0.42
			c-0.469-0.28-0.829-0.651-1.082-1.113c-0.154-0.28-0.259-0.602-0.315-0.966c-0.056-0.364-0.084-0.763-0.084-1.197v-3.507
			c0-0.434,0.028-0.833,0.084-1.197c0.056-0.364,0.161-0.686,0.315-0.966c0.252-0.462,0.612-0.833,1.082-1.113
			c0.469-0.28,1.04-0.42,1.711-0.42c0.49,0,0.935,0.084,1.333,0.252c0.399,0.168,0.738,0.399,1.019,0.693
			c0.56,0.63,0.84,1.421,0.84,2.373V83.854z M297.621,82.174h2.1v-1.218c0-0.406-0.095-0.71-0.284-0.914
			c-0.189-0.203-0.444-0.304-0.767-0.304c-0.322,0-0.577,0.102-0.766,0.304c-0.189,0.203-0.284,0.508-0.284,0.914V82.174z"/>
		<path fill="#6D6E71" d="M305.706,85.303c0,0.336,0.095,0.595,0.284,0.777c0.189,0.182,0.444,0.273,0.767,0.273
			c0.406,0,0.675-0.119,0.808-0.357c0.133-0.238,0.213-0.476,0.242-0.714h2.142c0,0.938-0.287,1.694-0.861,2.268
			c-0.28,0.294-0.616,0.525-1.008,0.693c-0.392,0.168-0.833,0.252-1.323,0.252c-0.672,0-1.243-0.14-1.712-0.42
			c-0.469-0.28-0.829-0.651-1.081-1.113c-0.154-0.28-0.259-0.602-0.315-0.966c-0.056-0.364-0.084-0.763-0.084-1.197v-3.507
			c0-0.434,0.028-0.833,0.084-1.197c0.056-0.364,0.161-0.686,0.315-0.966c0.252-0.462,0.612-0.833,1.081-1.113
			c0.469-0.28,1.04-0.42,1.712-0.42c0.49,0,0.934,0.084,1.333,0.252c0.399,0.168,0.738,0.399,1.018,0.693
			c0.56,0.63,0.84,1.449,0.84,2.457h-2.142c0-0.434-0.095-0.752-0.284-0.956c-0.189-0.203-0.444-0.304-0.766-0.304
			c-0.322,0-0.578,0.102-0.767,0.304c-0.189,0.203-0.284,0.508-0.284,0.914V85.303z"/>
		<path fill="#6D6E71" d="M310.956,88.369V73.417h2.142v5.334h0.042c0.224-0.336,0.494-0.612,0.809-0.829
			c0.315-0.217,0.717-0.326,1.208-0.326c0.266,0,0.532,0.045,0.798,0.136c0.266,0.091,0.504,0.242,0.714,0.452
			c0.21,0.21,0.378,0.48,0.504,0.809c0.126,0.329,0.189,0.731,0.189,1.208v8.169h-2.142v-7.371c0-0.392-0.091-0.7-0.273-0.924
			c-0.182-0.224-0.441-0.336-0.777-0.336c-0.406,0-0.687,0.126-0.84,0.378c-0.154,0.252-0.231,0.616-0.231,1.092v7.161H310.956z"/>
		<path fill="#6D6E71" d="M319.125,88.369V77.722h2.142v1.029h0.042c0.224-0.336,0.494-0.612,0.809-0.829
			c0.315-0.217,0.717-0.326,1.208-0.326c0.266,0,0.532,0.045,0.798,0.136c0.266,0.091,0.504,0.242,0.714,0.452
			c0.21,0.21,0.378,0.48,0.504,0.809c0.126,0.329,0.188,0.731,0.188,1.208v8.169h-2.142v-7.371c0-0.392-0.091-0.7-0.273-0.924
			c-0.182-0.224-0.441-0.336-0.777-0.336c-0.406,0-0.687,0.126-0.84,0.378c-0.154,0.252-0.231,0.616-0.231,1.092v7.161H319.125z"/>
		<path fill="#6D6E71" d="M327.105,81.292c0-0.434,0.028-0.833,0.084-1.197c0.056-0.364,0.161-0.686,0.315-0.966
			c0.252-0.462,0.611-0.833,1.081-1.113c0.47-0.28,1.04-0.42,1.712-0.42s1.242,0.14,1.711,0.42c0.469,0.28,0.83,0.651,1.082,1.113
			c0.154,0.28,0.259,0.603,0.314,0.966c0.057,0.364,0.084,0.763,0.084,1.197v3.507c0,0.434-0.027,0.833-0.084,1.197
			c-0.056,0.364-0.16,0.686-0.314,0.966c-0.252,0.462-0.613,0.833-1.082,1.113c-0.469,0.28-1.039,0.42-1.711,0.42
			s-1.242-0.14-1.712-0.42c-0.47-0.28-0.829-0.651-1.081-1.113c-0.154-0.28-0.26-0.602-0.315-0.966
			c-0.056-0.364-0.084-0.763-0.084-1.197V81.292z M329.247,85.135c0,0.406,0.096,0.71,0.284,0.914s0.444,0.304,0.767,0.304
			s0.577-0.101,0.766-0.304c0.189-0.203,0.284-0.507,0.284-0.914v-4.179c0-0.406-0.095-0.71-0.284-0.914
			c-0.188-0.203-0.443-0.304-0.766-0.304s-0.578,0.102-0.767,0.304c-0.188,0.203-0.284,0.508-0.284,0.914V85.135z"/>
		<path fill="#6D6E71" d="M334.938,73.417h2.143v11.949c0,0.406,0.073,0.683,0.221,0.83c0.146,0.147,0.423,0.241,0.829,0.283v2.016
			c-0.49,0-0.932-0.039-1.323-0.115c-0.393-0.077-0.729-0.228-1.008-0.452c-0.28-0.21-0.494-0.507-0.641-0.893
			c-0.146-0.385-0.221-0.893-0.221-1.522V73.417z"/>
		<path fill="#6D6E71" d="M338.781,81.292c0-0.434,0.028-0.833,0.084-1.197c0.056-0.364,0.161-0.686,0.315-0.966
			c0.252-0.462,0.611-0.833,1.081-1.113c0.47-0.28,1.04-0.42,1.712-0.42s1.242,0.14,1.711,0.42c0.469,0.28,0.83,0.651,1.082,1.113
			c0.154,0.28,0.259,0.603,0.314,0.966c0.057,0.364,0.084,0.763,0.084,1.197v3.507c0,0.434-0.027,0.833-0.084,1.197
			c-0.056,0.364-0.16,0.686-0.314,0.966c-0.252,0.462-0.613,0.833-1.082,1.113c-0.469,0.28-1.039,0.42-1.711,0.42
			s-1.242-0.14-1.712-0.42c-0.47-0.28-0.829-0.651-1.081-1.113c-0.154-0.28-0.26-0.602-0.315-0.966
			c-0.056-0.364-0.084-0.763-0.084-1.197V81.292z M340.922,85.135c0,0.406,0.096,0.71,0.284,0.914s0.444,0.304,0.767,0.304
			s0.577-0.101,0.766-0.304c0.189-0.203,0.284-0.507,0.284-0.914v-4.179c0-0.406-0.095-0.71-0.284-0.914
			c-0.188-0.203-0.443-0.304-0.766-0.304s-0.578,0.102-0.767,0.304c-0.188,0.203-0.284,0.508-0.284,0.914V85.135z"/>
		<path fill="#6D6E71" d="M348.881,89.607c0.014,0.252,0.116,0.49,0.305,0.714c0.189,0.224,0.466,0.336,0.83,0.336
			c0.35,0,0.602-0.109,0.756-0.326c0.154-0.217,0.23-0.493,0.23-0.83v-2.1h-0.041c-0.238,0.35-0.522,0.619-0.852,0.808
			c-0.328,0.189-0.71,0.284-1.145,0.284c-0.896,0-1.519-0.336-1.869-1.008c-0.125-0.238-0.217-0.532-0.272-0.882
			c-0.056-0.35-0.084-0.819-0.084-1.407v-4.053c0-0.77,0.021-1.336,0.063-1.701c0.084-0.7,0.412-1.225,0.986-1.575
			c0.266-0.182,0.665-0.273,1.197-0.273c0.266,0,0.494,0.028,0.683,0.084c0.188,0.056,0.36,0.133,0.515,0.231
			c0.154,0.098,0.294,0.213,0.42,0.347c0.126,0.133,0.259,0.276,0.398,0.43v-0.966h2.143V89.67c0,0.364-0.061,0.731-0.179,1.103
			c-0.119,0.371-0.312,0.704-0.577,0.998c-0.267,0.308-0.603,0.557-1.008,0.746c-0.406,0.189-0.89,0.284-1.449,0.284
			c-0.322,0-0.658-0.053-1.008-0.158c-0.351-0.105-0.672-0.283-0.967-0.536c-0.308-0.238-0.57-0.556-0.787-0.955
			c-0.217-0.399-0.361-0.914-0.431-1.544H348.881z M348.881,85.093c0,0.336,0.074,0.63,0.221,0.882
			c0.147,0.252,0.424,0.378,0.83,0.378c0.308,0,0.562-0.108,0.766-0.325c0.203-0.217,0.305-0.494,0.305-0.83v-4.137
			c0-0.392-0.098-0.71-0.293-0.956c-0.197-0.245-0.455-0.367-0.777-0.367c-0.364,0-0.631,0.133-0.799,0.399
			c-0.168,0.266-0.252,0.616-0.252,1.05V85.093z"/>
		<path fill="#6D6E71" d="M354.909,75.559v-2.142h2.143v2.142H354.909z M354.909,88.369V77.722h2.143v10.647H354.909z"/>
		<path fill="#6D6E71" d="M365.01,83.854h-4.242v1.449c0,0.336,0.094,0.595,0.283,0.777c0.189,0.182,0.444,0.273,0.766,0.273
			c0.406,0,0.676-0.119,0.809-0.357c0.133-0.238,0.214-0.476,0.242-0.714h2.143c0,0.938-0.287,1.694-0.861,2.268
			c-0.281,0.294-0.617,0.525-1.008,0.693c-0.393,0.168-0.834,0.252-1.324,0.252c-0.672,0-1.242-0.14-1.711-0.42
			c-0.469-0.28-0.829-0.651-1.082-1.113c-0.153-0.28-0.258-0.602-0.314-0.966c-0.057-0.364-0.084-0.763-0.084-1.197v-3.507
			c0-0.434,0.027-0.833,0.084-1.197c0.057-0.364,0.161-0.686,0.314-0.966c0.253-0.462,0.613-0.833,1.082-1.113
			c0.469-0.28,1.039-0.42,1.711-0.42c0.49,0,0.936,0.084,1.334,0.252c0.399,0.168,0.738,0.399,1.019,0.693
			c0.56,0.63,0.841,1.421,0.841,2.373V83.854z M360.768,82.174h2.1v-1.218c0-0.406-0.095-0.71-0.283-0.914
			c-0.189-0.203-0.445-0.304-0.768-0.304c-0.321,0-0.576,0.102-0.766,0.304c-0.189,0.203-0.283,0.508-0.283,0.914V82.174z"/>
		<path fill="#6D6E71" d="M370.469,80.704c-0.014-0.364-0.129-0.637-0.346-0.819c-0.218-0.182-0.466-0.273-0.746-0.273
			c-0.336,0-0.596,0.108-0.777,0.325c-0.182,0.217-0.272,0.466-0.272,0.746c0,0.196,0.049,0.389,0.147,0.578
			c0.098,0.189,0.35,0.36,0.756,0.514l1.26,0.504c0.798,0.308,1.348,0.728,1.648,1.26c0.301,0.532,0.451,1.113,0.451,1.743
			c0,0.448-0.08,0.865-0.241,1.25c-0.161,0.385-0.382,0.725-0.661,1.019c-0.281,0.294-0.617,0.525-1.008,0.693
			c-0.393,0.168-0.819,0.252-1.281,0.252c-0.869,0-1.596-0.273-2.184-0.819c-0.295-0.266-0.533-0.599-0.715-0.998
			s-0.28-0.864-0.294-1.396h2.017c0.041,0.294,0.143,0.567,0.305,0.819c0.16,0.252,0.443,0.378,0.85,0.378
			c0.309,0,0.584-0.101,0.83-0.304c0.244-0.203,0.367-0.486,0.367-0.851c0-0.294-0.077-0.546-0.23-0.756
			c-0.154-0.21-0.435-0.392-0.841-0.546l-1.028-0.378c-0.672-0.252-1.201-0.626-1.586-1.124c-0.385-0.497-0.578-1.103-0.578-1.816
			c0-0.448,0.084-0.864,0.252-1.25c0.168-0.385,0.399-0.717,0.693-0.998c0.28-0.28,0.609-0.493,0.987-0.641
			c0.378-0.147,0.784-0.22,1.218-0.22s0.836,0.077,1.207,0.231c0.371,0.154,0.689,0.371,0.956,0.651
			c0.267,0.28,0.476,0.613,0.63,0.998c0.154,0.385,0.231,0.795,0.231,1.229H370.469z"/>
	</g>
	<path id="Logo_Bleu" display="none" fill="#60C4EC" d="M473.457,80.414l-6.521-17.201c3.457-2.742,5.682-6.971,5.682-11.726
		c0-4.707-2.178-8.9-5.574-11.644l6.686-17.156c6.236-0.022,11.303-5.101,11.303-11.343C485.032,5.089,479.944,0,473.688,0
		c-6.255,0-11.344,5.089-11.344,11.345c0,3.403,1.513,6.452,3.893,8.533l-6.545,16.8c-0.67-0.092-1.348-0.155-2.041-0.155
		c-4.121,0-7.852,1.666-10.558,4.359l-23.098-14.47c0.227-0.893,0.36-1.822,0.36-2.785c0-6.256-5.09-11.346-11.345-11.346
		s-11.345,5.09-11.345,11.346c0,6.255,5.09,11.345,11.345,11.345c2.375,0,4.58-0.737,6.404-1.989l23.731,14.868
		c-0.292,1.166-0.464,2.38-0.464,3.637c0,2.07,0.421,4.042,1.181,5.834l-6.346,5.202c-1.742-1.092-3.795-1.734-5.999-1.734
		c-6.255,0-11.345,5.089-11.345,11.345c0,6.254,5.09,11.343,11.345,11.343s11.345-5.089,11.345-11.343
		c0-1.131-0.172-2.223-0.481-3.254l6.47-5.304c2.471,1.802,5.506,2.878,8.799,2.878c0.647,0,1.281-0.055,1.907-0.135l6.407,16.901
		c-2.381,2.081-3.895,5.13-3.895,8.533c0,6.257,5.089,11.347,11.345,11.347c6.255,0,11.344-5.09,11.344-11.347
		C484.759,85.514,479.692,80.437,473.457,80.414z M413.011,31.972c-4.601,0-8.345-3.744-8.345-8.345
		c0-4.602,3.744-8.346,8.345-8.346s8.345,3.744,8.345,8.346C421.356,28.228,417.612,31.972,413.011,31.972z M431.519,80.478
		c-4.601,0-8.345-3.743-8.345-8.343c0-4.601,3.744-8.345,8.345-8.345s8.345,3.744,8.345,8.345
		C439.864,76.734,436.12,80.478,431.519,80.478z M465.344,11.345c0-4.601,3.743-8.345,8.344-8.345c4.602,0,8.344,3.744,8.344,8.345
		s-3.742,8.345-8.344,8.345C469.087,19.689,465.344,15.946,465.344,11.345z M473.416,100.102c-4.602,0-8.345-3.744-8.345-8.347
		c0-4.601,3.743-8.343,8.345-8.343c4.601,0,8.344,3.742,8.344,8.343C481.759,96.357,478.016,100.102,473.416,100.102z"/>
	
		<text transform="matrix(1 0 0 1 446.3501 62.1685)" display="none" fill="#FFFFFF" font-family="'DINAlternate-Bold'" font-size="30">M</text>
	
		<text transform="matrix(1.0056 0 0 1 472.0083 63.1685)" display="none" fill="#60C4EC" font-family="'DINAlternate-Bold'" font-size="30">ALTT</text>
	<text transform="matrix(1 0 0 1 495.2358 83.7886)" display="none"><tspan x="0" y="0" display="inline" fill="#6D6E70" font-family="'DINCondensed-Bold'" font-size="14">Master of Science in Learning </tspan><tspan x="0" y="16.8" display="inline" fill="#6D6E70" font-family="'DINCondensed-Bold'" font-size="14">and Teaching Technologies</tspan></text>
	<path id="Logo_Orange" display="none" fill="#DA7A29" d="M473.456,351.748l-6.52-17.201c3.457-2.742,5.682-6.971,5.682-11.727
		c0-4.706-2.178-8.9-5.574-11.643l6.686-17.156c6.236-0.022,11.303-5.102,11.303-11.344c0-6.255-5.088-11.344-11.344-11.344
		s-11.344,5.089-11.344,11.344c0,3.403,1.512,6.453,3.893,8.533l-6.545,16.801c-0.67-0.092-1.348-0.156-2.041-0.156
		c-4.121,0-7.852,1.666-10.559,4.359l-23.098-14.47c0.227-0.893,0.361-1.822,0.361-2.784c0-6.256-5.09-11.346-11.346-11.346
		c-6.254,0-11.344,5.09-11.344,11.346c0,6.255,5.09,11.344,11.344,11.344c2.375,0,4.58-0.736,6.404-1.988l23.732,14.867
		c-0.293,1.166-0.465,2.381-0.465,3.637c0,2.07,0.422,4.042,1.182,5.835l-6.346,5.202c-1.742-1.092-3.795-1.734-6-1.734
		c-6.254,0-11.344,5.09-11.344,11.346c0,6.254,5.09,11.342,11.344,11.342c6.256,0,11.346-5.088,11.346-11.342
		c0-1.131-0.172-2.223-0.482-3.255l6.471-5.304c2.471,1.803,5.506,2.879,8.799,2.879c0.646,0,1.281-0.056,1.906-0.135l6.408,16.9
		c-2.381,2.082-3.895,5.131-3.895,8.533c0,6.258,5.088,11.348,11.344,11.348s11.344-5.09,11.344-11.348
		C484.758,356.848,479.692,351.77,473.456,351.748z M413.01,303.305c-4.6,0-8.344-3.743-8.344-8.344
		c0-4.603,3.744-8.346,8.344-8.346c4.602,0,8.346,3.743,8.346,8.346C421.356,299.562,417.612,303.305,413.01,303.305z
		 M431.518,351.811c-4.6,0-8.344-3.742-8.344-8.342c0-4.602,3.744-8.346,8.344-8.346c4.602,0,8.346,3.744,8.346,8.346
		C439.864,348.068,436.12,351.811,431.518,351.811z M465.344,282.678c0-4.601,3.742-8.344,8.344-8.344s8.344,3.743,8.344,8.344
		c0,4.602-3.742,8.346-8.344,8.346S465.344,287.279,465.344,282.678z M473.415,371.436c-4.602,0-8.344-3.744-8.344-8.348
		c0-4.6,3.742-8.342,8.344-8.342s8.344,3.742,8.344,8.342C481.758,367.691,478.016,371.436,473.415,371.436z"/>
	
		<text transform="matrix(1 0 0 1 446.3491 333.502)" display="none" fill="#FFFFFF" font-family="'DINAlternate-Bold'" font-size="30">M</text>
	
		<text transform="matrix(1.0056 0 0 1 472.0073 334.502)" display="none" fill="#DA7A29" font-family="'DINAlternate-Bold'" font-size="30">ALTT</text>
	<text transform="matrix(1 0 0 1 495.2349 355.1221)" display="none"><tspan x="0" y="0" display="inline" fill="#6D6E70" font-family="'DINCondensed-Bold'" font-size="14">Master of Science in Learning </tspan><tspan x="0" y="16.8" display="inline" fill="#6D6E70" font-family="'DINCondensed-Bold'" font-size="14">and Teaching Technologies</tspan></text>
	<path id="XMLID_11_" fill="#FFFFFF" d="M537.766,101.373c0,4.97-4.027,8.999-8.996,8.999s-8.996-4.029-8.996-8.999
		c0-4.967,4.027-8.995,8.996-8.995S537.766,96.406,537.766,101.373z"/>
	<circle id="XMLID_10_" fill="#FFFFFF" cx="486.875" cy="81.752" r="8.966"/>
	<circle id="XMLID_6_" fill="#FFFFFF" cx="468.338" cy="33.234" r="8.967"/>
	<circle id="XMLID_3_" fill="#FFFFFF" cx="529.043" cy="20.962" r="8.955"/>
	<path id="Logo_Vert_1_" fill="#A2BC3A" d="M528.811,90.032l-6.521-17.201c3.458-2.741,5.683-6.971,5.683-11.726
		c0-4.706-2.178-8.9-5.574-11.644l6.685-17.156c6.236-0.022,11.304-5.101,11.304-11.343c0-6.255-5.089-11.345-11.344-11.345
		c-6.256,0-11.344,5.089-11.344,11.345c0,3.403,1.512,6.452,3.893,8.533l-6.546,16.8c-0.669-0.092-1.347-0.155-2.04-0.155
		c-4.121,0-7.852,1.666-10.559,4.359l-23.098-14.47c0.227-0.893,0.361-1.822,0.361-2.785c0-6.256-5.09-11.346-11.346-11.346
		c-6.255,0-11.344,5.09-11.344,11.346c0,6.255,5.089,11.345,11.344,11.345c2.375,0,4.58-0.737,6.404-1.989l23.732,14.867
		c-0.293,1.166-0.465,2.381-0.465,3.638c0,2.069,0.421,4.042,1.181,5.835l-6.345,5.201c-1.743-1.092-3.795-1.733-6-1.733
		c-6.255,0-11.344,5.089-11.344,11.345c0,6.254,5.089,11.343,11.344,11.343c6.256,0,11.345-5.089,11.345-11.343
		c0-1.131-0.171-2.223-0.481-3.254l6.47-5.305c2.472,1.803,5.507,2.879,8.8,2.879c0.646,0,1.281-0.055,1.906-0.135l6.408,16.901
		c-2.382,2.081-3.896,5.13-3.896,8.533c0,6.257,5.089,11.347,11.345,11.347s11.344-5.09,11.344-11.347
		C540.114,95.131,535.047,90.054,528.811,90.032z M468.366,41.589c-4.601,0-8.344-3.744-8.344-8.345
		c0-4.602,3.743-8.346,8.344-8.346c4.602,0,8.346,3.744,8.346,8.346C476.711,37.846,472.967,41.589,468.366,41.589z M486.874,90.095
		c-4.601,0-8.344-3.743-8.344-8.343c0-4.602,3.743-8.345,8.344-8.345c4.602,0,8.345,3.743,8.345,8.345
		C495.218,86.352,491.475,90.095,486.874,90.095z M520.7,20.962c0-4.601,3.742-8.345,8.344-8.345c4.601,0,8.344,3.744,8.344,8.345
		s-3.743,8.345-8.344,8.345C524.442,29.307,520.7,25.563,520.7,20.962z M528.77,109.719c-4.602,0-8.345-3.744-8.345-8.347
		c0-4.601,3.743-8.343,8.345-8.343s8.344,3.742,8.344,8.343C537.114,105.975,533.372,109.719,528.77,109.719z"/>
	<text transform="matrix(1 0 0 1 502.7046 70.7861)" fill="#FFFFFF" font-family="'DINAlternate-Bold'" font-size="26">M</text>
	<text transform="matrix(1.0056 0 0 1 528.77 70.7861)" fill="#A2BC3B" font-family="'DINAlternate-Bold'" font-size="24">ALTT</text>
	<circle id="XMLID_15_" fill="#FFFFFF" cx="532.77" cy="363.478" r="8.996"/>
	<circle id="XMLID_14_" fill="#FFFFFF" cx="490.875" cy="343.856" r="8.966"/>
	<circle id="XMLID_13_" fill="#FFFFFF" cx="472.338" cy="295.339" r="8.967"/>
	<circle id="XMLID_12_" fill="#FFFFFF" cx="533.043" cy="283.066" r="8.955"/>
	<path id="Logo_Vert_2_" fill="#A2BC3A" d="M532.811,352.136l-6.521-17.201c3.458-2.74,5.683-6.971,5.683-11.725
		c0-4.707-2.178-8.9-5.574-11.645l6.685-17.155c6.236-0.022,11.304-5.102,11.304-11.344c0-6.255-5.089-11.344-11.344-11.344
		c-6.256,0-11.344,5.089-11.344,11.344c0,3.403,1.512,6.453,3.893,8.533l-6.546,16.8c-0.669-0.092-1.347-0.154-2.04-0.154
		c-4.121,0-7.852,1.666-10.559,4.359l-23.098-14.471c0.227-0.893,0.361-1.822,0.361-2.784c0-6.256-5.09-11.346-11.346-11.346
		c-6.255,0-11.344,5.09-11.344,11.346c0,6.255,5.089,11.345,11.344,11.345c2.375,0,4.58-0.737,6.404-1.99l23.732,14.867
		c-0.293,1.166-0.465,2.381-0.465,3.639c0,2.068,0.421,4.041,1.181,5.834l-6.345,5.201c-1.743-1.092-3.795-1.732-6-1.732
		c-6.255,0-11.344,5.088-11.344,11.344c0,6.254,5.089,11.344,11.344,11.344c6.256,0,11.345-5.09,11.345-11.344
		c0-1.131-0.171-2.223-0.481-3.254l6.47-5.305c2.472,1.803,5.507,2.879,8.8,2.879c0.646,0,1.281-0.055,1.906-0.135l6.408,16.902
		c-2.382,2.08-3.896,5.129-3.896,8.533c0,6.256,5.089,11.346,11.345,11.346s11.344-5.09,11.344-11.346
		C544.114,357.235,539.047,352.159,532.811,352.136z M472.366,303.694c-4.601,0-8.344-3.744-8.344-8.345
		c0-4.603,3.743-8.346,8.344-8.346c4.602,0,8.346,3.743,8.346,8.346C480.711,299.95,476.967,303.694,472.366,303.694z
		 M490.874,352.2c-4.601,0-8.344-3.744-8.344-8.344c0-4.602,3.743-8.344,8.344-8.344c4.602,0,8.345,3.742,8.345,8.344
		C499.218,348.456,495.475,352.2,490.874,352.2z M524.7,283.066c0-4.601,3.742-8.344,8.344-8.344c4.601,0,8.344,3.743,8.344,8.344
		c0,4.602-3.743,8.346-8.344,8.346C528.442,291.412,524.7,287.668,524.7,283.066z M532.77,371.823c-4.602,0-8.345-3.744-8.345-8.346
		s3.743-8.344,8.345-8.344s8.344,3.742,8.344,8.344S537.372,371.823,532.77,371.823z"/>
	<g>
		<path fill="#FFFFFF" d="M508.66,314.381h2.641l5.307,12.061l5.205-12.061h2.653v18.51h-2.806v-11.54h-0.063l-3.872,8.887h-2.336
			l-3.872-8.887h-0.051v11.54h-2.806V314.381z"/>
	</g>
	<g>
		<path fill="#A2BC3B" d="M543.387,329.07h-6.517l-1.319,3.82h-2.758l6.245-17.086h2.181l6.245,17.086h-2.745L543.387,329.07z
			 M542.645,326.773l-2.486-7.465h-0.047l-2.487,7.465H542.645z"/>
		<path fill="#A2BC3B" d="M549.303,315.805h2.604v14.637h8.367v2.449h-10.971V315.805z"/>
		<path fill="#A2BC3B" d="M562.961,318.113h-4.703v-2.309h12.021v2.309h-4.702v14.777h-2.615V318.113z"/>
		<path fill="#A2BC3B" d="M575.028,318.113h-4.702v-2.309h12.021v2.309h-4.702v14.777h-2.616V318.113z"/>
	</g>
</g>
</svg>
