<?xml version="1.0" encoding="UTF-8" standalone="no"?>
<!-- Created with Inkscape (http://www.inkscape.org/) -->

<svg
   xmlns:dc="http://purl.org/dc/elements/1.1/"
   xmlns:cc="http://creativecommons.org/ns#"
   xmlns:rdf="http://www.w3.org/1999/02/22-rdf-syntax-ns#"
   xmlns:svg="http://www.w3.org/2000/svg"
   xmlns="http://www.w3.org/2000/svg"
   xmlns:sodipodi="http://sodipodi.sourceforge.net/DTD/sodipodi-0.dtd"
   xmlns:inkscape="http://www.inkscape.org/namespaces/inkscape"
   version="1.1"
   id="svg2"
   xml:space="preserve"
   width="1007.3867"
   height="413.73334"
   viewBox="0 0 1007.3867 413.73334"
   sodipodi:docname="logo_tecfa_trace_notext.svg"
   inkscape:version="0.92.3 (2405546, 2018-03-11)"><metadata
     id="metadata8"><rdf:RDF><cc:Work
         rdf:about=""><dc:format>image/svg+xml</dc:format><dc:type
           rdf:resource="http://purl.org/dc/dcmitype/StillImage" /><dc:title></dc:title></cc:Work></rdf:RDF></metadata><defs
     id="defs6" /><sodipodi:namedview
     pagecolor="#ffffff"
     bordercolor="#666666"
     borderopacity="1"
     objecttolerance="10"
     gridtolerance="10"
     guidetolerance="10"
     inkscape:pageopacity="0"
     inkscape:pageshadow="2"
     inkscape:window-width="640"
     inkscape:window-height="480"
     id="namedview4"
     showgrid="false"
     inkscape:zoom="0.35338961"
     inkscape:cx="503.69336"
     inkscape:cy="206.86667"
     inkscape:window-x="0"
     inkscape:window-y="0"
     inkscape:window-maximized="0"
     inkscape:current-layer="g10" /><g
     id="g10"
     inkscape:groupmode="layer"
     inkscape:label="ink_ext_XXXXXX"
     transform="matrix(1.3333333,0,0,-1.3333333,0,413.73333)"><g
       id="g12"
       transform="scale(0.1)"><path
         d="m 2157.46,95 c -138.05,0 -250.33,112.352 -250.33,250.41 0,138.031 112.28,250.301 250.33,250.301 138.03,0 250.31,-112.27 250.31,-250.301 C 2407.77,207.352 2295.49,95 2157.46,95 Z m -242.13,2662.72 c 0,138.03 112.29,250.33 250.31,250.33 138.05,0 250.32,-112.3 250.32,-250.33 0,-138.03 -112.27,-250.33 -250.32,-250.33 -138.02,0 -250.31,112.3 -250.31,250.33 z M 900.586,683.73 c -138.027,0 -250.352,112.29 -250.352,250.301 0,138.039 112.325,250.329 250.352,250.329 138.004,0 250.334,-112.29 250.334,-250.329 0,-138.011 -112.33,-250.301 -250.334,-250.301 z M 345.352,2138.91 C 207.324,2138.91 95,2251.21 95,2389.26 c 0,138.05 112.324,250.35 250.352,250.35 138.007,0 250.332,-112.3 250.332,-250.35 0,-138.05 -112.325,-250.35 -250.332,-250.35 z M 2158.71,685.629 1963.09,1201.68 c 103.71,82.23 170.45,209.1 170.45,351.76 0,141.17 -65.34,267.01 -167.23,349.3 l 200.57,514.69 c 187.08,0.66 339.08,153.04 339.08,340.29 0,187.64 -152.64,340.33 -340.32,340.33 -187.63,0 -340.31,-152.69 -340.31,-340.33 0,-102.09 45.37,-193.58 116.78,-256 l -196.35,-503.98 c -20.1,2.73 -40.43,4.65 -61.23,4.65 -123.63,0 -235.55,-49.98 -316.72,-130.79 l -692.927,434.11 c 6.797,26.75 10.801,54.65 10.801,83.55 0,187.66 -152.696,340.35 -340.332,340.35 C 157.695,2729.61 5,2576.92 5,2389.26 c 0,-187.69 152.695,-340.35 340.352,-340.35 71.25,0 137.382,22.11 192.109,59.69 l 711.949,-446.02 c -8.75,-35 -13.9,-71.44 -13.9,-109.14 0,-62.07 12.62,-121.25 35.41,-175.04 l -190.37,-156.05 c -52.27,32.77 -113.851,52.01 -179.964,52.01 -187.656,0 -340.352,-152.68 -340.352,-340.329 0,-187.621 152.696,-340.301 340.352,-340.301 187.634,0 340.334,152.68 340.334,340.301 0,33.899 -5.16,66.679 -14.44,97.609 l 194.09,159.14 c 74.12,-54.1 165.17,-86.36 263.96,-86.36 19.42,0 38.44,1.64 57.23,4.02 l 192.2,-507.03 C 1862.54,538.988 1817.13,447.5 1817.13,345.41 1817.13,157.699 1969.8,5 2157.46,5 c 187.66,0 340.31,152.699 340.31,340.41 0,187.25 -152.01,339.551 -339.06,340.219 z"
         style="fill:none;stroke:#000000;stroke-width:10;stroke-linecap:butt;stroke-linejoin:miter;stroke-miterlimit:10;stroke-dasharray:none;stroke-opacity:1"
         id="path14"
         inkscape:connector-curvature="0" /><path
         d="m 2779.2,2571.83 h 332.88 v -461.04 h 205.61 v -239.45 h -205.61 v -841.21 c 0,-35.911 3.76,-63.86 11.41,-83.79 7.62,-19.969 19.57,-34.942 35.92,-44.899 16.29,-10.019 37.53,-16.011 63.64,-17.992 26.08,-1.988 57.59,-2.961 94.64,-2.961 V 593.102 H 3180.6 c -76.19,0 -139.81,10.929 -190.91,32.91 -51.16,21.968 -91.93,49.84 -122.38,83.84 -30.49,33.918 -52.79,72.277 -66.91,115.269 -14.17,42.84 -21.2,84.219 -21.2,124.188 v 922.031 h -166.43 v 239.45 h 166.43 z"
         style="fill:none;stroke:#231f20;stroke-width:10;stroke-linecap:butt;stroke-linejoin:miter;stroke-miterlimit:10;stroke-dasharray:none;stroke-opacity:1"
         id="path16"
         inkscape:connector-curvature="0" /><path
         d="m 3781.06,1476.17 h 326.35 v 173.64 c 0,57.86 -14.64,101.24 -43.98,130.2 -29.42,28.92 -69.14,43.44 -119.14,43.44 -50.1,0 -89.74,-14.52 -119.16,-43.44 -29.35,-28.96 -44.07,-72.34 -44.07,-130.2 z m 0,-239.45 v -206.59 c 0,-47.86 14.72,-84.81 44.07,-110.759 29.42,-25.961 69.06,-38.883 119.16,-38.883 63.03,0 104.92,16.922 125.65,50.883 20.67,33.879 33.14,67.789 37.47,101.779 h 332.92 c 0,-63.931 -11.4,-123.81 -34.25,-179.638 -22.83,-55.891 -56.04,-103.774 -99.53,-143.66 -43.57,-41.891 -95.83,-74.852 -156.7,-98.813 -60.92,-23.91 -129.44,-35.918 -205.56,-35.918 -102.28,0 -190.38,19.91 -264.37,59.879 -73.96,39.898 -130.55,92.789 -169.71,158.629 -23.95,39.91 -40.27,85.851 -48.97,137.742 -8.68,51.859 -13.02,108.729 -13.02,170.609 v 499.94 c 0,61.82 4.34,118.68 13.02,170.6 8.7,51.89 25.02,97.79 48.97,137.73 39.16,65.86 95.75,118.68 169.71,158.66 73.99,39.9 162.09,59.85 264.37,59.85 76.12,0 145.18,-11.94 207.18,-35.92 62.07,-23.93 114.23,-57.37 156.7,-100.27 42.44,-42.94 75.08,-93.3 97.91,-151.17 22.85,-57.92 34.25,-119.77 34.25,-185.63 v -419.05 z"
         style="fill:none;stroke:#231f20;stroke-width:10;stroke-linecap:butt;stroke-linejoin:miter;stroke-miterlimit:10;stroke-dasharray:none;stroke-opacity:1"
         id="path18"
         inkscape:connector-curvature="0" /><path
         d="m 4939.62,1030.13 c 0,-47.86 14.7,-84.81 44.06,-110.759 29.35,-25.961 69.06,-38.883 119.13,-38.883 63.05,0 104.92,16.922 125.67,50.883 20.58,33.879 33.14,67.789 37.48,101.779 h 332.92 c 0,-63.931 -11.42,-123.81 -34.25,-179.638 -22.92,-55.891 -56.11,-103.774 -99.61,-143.66 -43.51,-41.891 -95.73,-74.852 -156.62,-98.813 -60.94,-23.91 -129.44,-35.918 -205.59,-35.918 -102.33,0 -190.45,19.91 -264.34,59.879 -74.03,39.898 -130.55,92.789 -169.71,158.629 -23.96,39.91 -40.29,85.851 -48.97,137.742 -8.69,51.859 -13.02,108.729 -13.02,170.609 v 499.94 c 0,61.82 4.33,118.68 13.02,170.6 8.68,51.89 25.01,97.79 48.97,137.73 39.16,65.86 95.68,118.68 169.71,158.66 73.89,39.9 162.01,59.85 264.34,59.85 76.15,0 145.22,-11.94 207.19,-35.92 62.06,-23.93 114.26,-57.37 156.71,-100.27 42.37,-42.94 75,-94.31 97.92,-154.15 22.83,-59.88 34.25,-124.77 34.25,-194.59 h -332.92 c 0,61.8 -14.64,107.22 -44.07,136.18 -29.35,28.92 -69.07,43.44 -119.08,43.44 -50.07,0 -89.78,-14.52 -119.13,-43.44 -29.36,-28.96 -44.06,-72.34 -44.06,-130.2 z"
         style="fill:none;stroke:#231f20;stroke-width:10;stroke-linecap:butt;stroke-linejoin:miter;stroke-miterlimit:10;stroke-dasharray:none;stroke-opacity:1"
         id="path20"
         inkscape:connector-curvature="0" /><path
         d="m 5872.96,1871.34 h -163.13 v 239.45 h 163.13 v 206.57 c 0,73.82 11.97,136.21 35.93,187.09 23.88,50.89 55.97,92.82 96.24,125.74 40.29,32.94 85.94,56.87 137.09,71.83 51.05,14.98 103.87,22.47 158.3,22.47 h 153.39 V 2437.1 h -150.19 c -65.26,0 -97.84,-34.94 -97.84,-104.77 v -221.54 h 248.03 V 1871.34 H 6205.88 V 593.102 h -332.92 z"
         style="fill:none;stroke:#231f20;stroke-width:10;stroke-linecap:butt;stroke-linejoin:miter;stroke-miterlimit:10;stroke-dasharray:none;stroke-opacity:1"
         id="path22"
         inkscape:connector-curvature="0" /><path
         d="m 7217.46,1245.67 c -36.99,5.98 -67.45,9 -91.33,9 -71.79,0 -133.29,-15.49 -184.42,-46.41 -51.12,-31 -76.71,-87.35 -76.71,-169.14 0,-57.882 15.21,-104.78 45.74,-140.698 30.41,-35.934 72.85,-53.91 127.28,-53.91 56.53,0 100.56,16.968 132.16,50.949 31.52,33.859 47.28,81.789 47.28,143.659 z m 0,-496.881 h -6.51 c -43.56,-55.91 -87.61,-98.828 -132.16,-128.758 -44.63,-29.941 -107.17,-44.91 -187.66,-44.91 -39.16,0 -79.44,5.508 -120.76,16.438 -41.32,11 -79.91,30.972 -115.86,59.882 -35.86,28.918 -65.27,69.848 -88.1,122.778 -22.84,52.812 -34.26,121.242 -34.26,205.031 0,85.77 7.57,161.14 22.83,226 15.21,64.83 42.94,118.71 83.21,161.66 40.29,42.89 94.09,74.85 161.53,95.8 67.45,20.95 153.4,31.41 257.84,31.41 23.94,0 47.84,-1.01 71.8,-2.97 23.94,-1.99 53.29,-4.03 88.1,-5.98 v 158.66 c 0,51.85 -11.96,94.74 -35.86,128.69 -23.94,33.92 -67.45,50.93 -130.56,50.93 -43.56,0 -83.21,-13.02 -119.15,-38.94 -35.85,-25.95 -59.26,-63.91 -70.11,-113.76 h -323.12 c 10.86,137.72 60.87,247.42 150.12,329.28 43.5,39.9 95.74,71.35 156.69,94.31 60.86,22.93 129.36,34.42 205.57,34.42 69.62,0 134.92,-10 195.86,-29.92 60.85,-19.97 113.61,-49.92 158.22,-89.82 44.62,-39.93 79.99,-89.77 106.12,-149.66 26.06,-59.88 39.15,-129.77 39.15,-209.55 V 593.102 h -332.93 z"
         style="fill:none;stroke:#231f20;stroke-width:10;stroke-linecap:butt;stroke-linejoin:miter;stroke-miterlimit:10;stroke-dasharray:none;stroke-opacity:1"
         id="path24"
         inkscape:connector-curvature="0" /></g></g></svg>